<?xml version="1.0" encoding="UTF-8"?>
<svg width="125px" height="116px" viewBox="0 0 125 116" version="1.1" xmlns="http://www.w3.org/2000/svg" xmlns:xlink="http://www.w3.org/1999/xlink">
    <!-- Generator: Sketch 53.1 (72631) - https://sketchapp.com -->
    <title>logo</title>
    <desc>Created with Sketch.</desc>
    <g id="Page-1" stroke="none" stroke-width="1" fill="none" fill-rule="evenodd">
        <g id="big-southern-logo" fill="#B5B5B5">
            <path d="M116.195068,79.2597236 C115.723816,80.4285303 115.213745,81.5816238 114.665405,82.7163243 C111.014587,90.2711484 105.667908,97.0126617 99.2578735,102.277499 C90.5181885,109.455633 79.6737061,113.970865 68.4503174,115.10995 C56.9477539,116.277417 45.0924072,113.937672 34.9090576,108.394321 C24.3233643,102.631899 15.6210327,93.5067288 10.3886108,82.6375756 C9.85455322,81.528272 9.35760498,80.401489 8.89794922,79.2597236 L14.114563,79.2597236 C14.3099365,79.6965873 14.5114136,80.1307103 14.7189331,80.5619099 C20.3057251,92.1693401 30.2230835,101.600552 42.2125854,106.578228 C53.3538818,111.203696 66.1652832,111.864869 77.7606201,108.400168 C85.7838745,106.002808 93.239502,101.644586 99.2943726,95.8322224 C104.199829,91.1231939 108.185608,85.4598013 110.972046,79.2597236 L116.195068,79.2597236 L116.195068,79.2597236 Z M4.80285645,54.6545489 C4.93475342,52.0775223 5.23931885,49.5076214 5.71942139,46.9670762 C7.36676025,38.2501449 11.0825195,29.9222068 16.4759521,22.8380481 C23.7260132,13.3151756 33.9725952,6.11432502 45.4424438,2.57075353 C50.9388428,0.872631048 56.6885376,0.0140688004 62.4525757,6.09038979e-05 C62.5148315,1.00259123e-14 62.5771484,1.00259123e-14 62.6394043,6.09038979e-05 C70.6616211,0.0195501512 78.6950073,1.70683174 86.0184937,4.95946531 C96.4749146,9.60363113 105.473877,17.4244834 111.536011,27.0470556 C116.729736,35.2911899 119.762817,44.9396463 120.291138,54.6545489 L115.472473,54.6545489 C115.197144,49.8391822 114.272522,45.0642557 112.703613,40.5114457 C109.913635,32.4151861 105.095886,25.0084194 98.8331909,19.1381972 C91.4141846,12.1841902 81.9554443,7.41023816 71.927063,5.62069892 C68.8617554,5.07372102 65.7454224,4.80117608 62.6317139,4.7937458 L62.4602661,4.7937458 C55.0974731,4.81122522 47.7494507,6.35337282 41.0270386,9.3390037 C32.8192749,12.9842847 25.5684814,18.7546245 20.1571655,25.9281292 C14.3062744,33.6843015 10.6636963,43.0369477 9.75482178,52.7145161 C9.69421387,53.3603411 9.64556885,54.0071405 9.60900879,54.6545489 L4.80285645,54.6545489 Z" id="Shape"></path>
            <path d="M88.0456543,56.6556074 L123.647461,56.6556074 C124.091736,57.0989877 124.536072,57.5423072 124.980347,57.9856876 L124.980347,75.7696258 L123.647461,77.099706 L1.33300781,77.099706 L6.10351562e-05,75.7696258 L6.10351562e-05,57.9856876 L1.33300781,56.6556074 L40.4492798,56.6556074 C41.3822632,56.6756447 42.3152466,56.6933678 43.2481689,56.7129179 L43.3057861,56.7266822 C43.8362427,56.7830183 44.3634033,56.8648732 44.8882446,56.9600659 C46.4986572,57.2536836 48.1790771,57.5339025 49.8269653,57.3375483 C50.6356812,57.2411983 51.4428101,56.9807124 52.2513428,57.0513609 C52.3468628,57.0597047 52.4907837,57.0829091 52.4907837,57.0829091 C52.4145508,57.458138 52.6340942,57.8219779 52.9655762,57.9728978 C53.3709717,58.1575584 53.8353882,58.2841776 54.2900391,58.2536647 C54.6589355,58.2288768 54.9937134,58.0475659 55.3109741,57.8718582 C55.3109741,57.8718582 55.5053101,57.9379998 55.5053101,57.9379998 C55.8339844,58.1174836 56.1912842,58.2865528 56.1912842,58.2865528 C56.5068359,58.5968582 56.8259888,58.9052146 57.1879272,59.1558951 C57.3390503,59.260528 57.53302,59.3463416 57.53302,59.3463416 C57.9717407,59.6888042 58.3014526,60.3394405 58.8985596,60.5478537 C59.1343994,60.6301957 59.4014282,60.5933489 59.5914307,60.4442561 C59.8855591,60.2134913 59.8925781,59.8115864 59.8813477,59.4299017 C59.8774414,59.3141234 59.8884277,59.3468897 59.8884277,59.3468897 C60.1474609,59.3882434 60.4088135,59.4194871 60.6707153,59.4194871 C60.9937744,59.4194871 61.2991333,59.3151588 61.2991333,59.3151588 C61.8642578,59.2752058 62.5439453,59.5495779 63.0953369,59.2445102 C63.1279297,59.2264827 63.1593628,59.2062626 63.1890869,59.1837891 C63.8212891,58.7052062 63.2746582,57.9492671 62.7362671,57.4753129 C62.6358643,57.3879767 62.6669312,57.4352382 62.7208252,57.4059434 L62.7617187,57.3831044 C63.3102417,57.283222 63.9191284,57.4310358 64.4140625,57.1641549 C64.6454468,57.0393628 64.7437744,56.8391108 64.7817383,56.6556074 L72.5874023,56.6556074 L72.6270142,56.6633422 C72.9213867,56.721079 73.2131958,56.8071972 73.4968262,56.8334467 C73.4993896,56.8336904 73.6053467,56.8313151 73.6359253,56.8305843 C74.1819458,56.8171854 74.7159424,56.7324072 75.249939,56.6556074 L77.4776001,56.6556074 C77.659729,56.6901399 77.8407593,56.7307019 78.0203247,56.7744309 L78.0117798,56.7861853 C77.8034668,57.0717637 77.5610962,57.4292696 77.6242676,57.7867145 C77.6270752,57.8024278 77.6303101,57.8180801 77.6340942,57.8335496 C77.7174683,58.1762559 78.0568237,58.3936828 78.4082031,58.4095787 C79.0397949,58.4310778 79.7311401,58.3509283 80.2008057,57.9216167 C80.647522,58.3065902 81.0737915,58.724391 81.590332,58.8848118 C82.0319214,59.1799521 82.3495483,59.6970262 82.8731689,59.842282 C83.328125,59.9685358 83.7369385,59.6425172 83.7919922,59.2336694 C83.8164673,59.0521148 83.8043213,58.761786 83.8043213,58.761786 C83.9118042,58.8017998 84.020752,58.8381594 84.1322632,58.8653835 C84.3119507,58.9092343 84.5219116,58.9116095 84.5219116,58.9116095 C85.0241089,59.0402386 85.5009766,59.4035303 86.0351562,59.3715558 C86.3833618,59.3507876 86.6639404,59.0935295 86.715332,58.7774992 C86.7454834,58.5922904 86.6723633,58.3700521 86.6723633,58.3700521 C86.6098633,58.1986685 86.5532837,58.0313046 86.4711304,57.8724672 C86.4285278,57.7918914 86.4701538,57.8367776 86.4701538,57.8367776 C86.9039917,57.8923219 87.394043,58.0416583 87.8251953,57.8524908 C87.8540039,57.8398837 87.8820801,57.8256321 87.9091187,57.8096144 C87.9487305,57.7861055 87.9863281,57.7591251 88.0206909,57.7288558 C88.3116455,57.4722677 88.3005981,57.0361958 88.1000977,56.7366095 C88.0822754,56.7093855 88.0641479,56.6823442 88.0456543,56.6556074 L88.0456543,56.6556074 Z M6.62719727,60.970953 L3.9230957,60.970953 L3.9230957,72.7842994 L7.10540771,72.7842994 C8.30358887,72.7842994 8.90264893,72.1974903 8.90264893,71.0238113 L8.90264893,68.0622984 C8.90264893,67.4041709 8.46844482,66.9544565 7.60003662,66.7130943 L7.60003662,66.6308741 C8.35852051,66.4772744 8.73773193,66.0605091 8.73773193,65.3803952 L8.73773193,63.1098979 C8.73773193,61.683955 8.03424072,60.9710139 6.62719727,60.970953 L6.62719727,60.970953 Z M114.000854,60.970953 L110.901001,60.970953 L110.901001,72.7842994 L112.483887,72.7842994 L112.483887,68.0129053 L113.440247,68.0129053 L114.479004,72.7842994 L115.979492,72.7842994 L114.874756,67.864848 C115.501343,67.5905977 115.814575,66.9379515 115.814575,65.9069094 L115.814575,62.9947287 C115.814575,61.6455855 115.210022,60.9710139 114.000854,60.970953 L114.000854,60.970953 Z M11.8048096,60.970953 L10.2219238,60.970953 L10.2219238,72.7842994 L11.8048096,72.7842994 L11.8048096,60.970953 Z M56.7197266,60.970953 L52.7954102,60.970953 L52.7954102,72.7842994 L56.7197266,72.7842994 L56.7197266,71.3528751 L54.3783569,71.3528751 L54.3783569,67.4206149 L56.4558716,67.4206149 L56.4558716,65.9891906 L54.3783569,65.9891906 L54.3783569,62.4023774 L56.7197266,62.4023774 L56.7197266,60.970953 Z M89.5649414,60.970953 L85.640686,60.970953 L85.640686,72.7842994 L87.2235718,72.7842994 L87.2235718,67.4206149 L89.3011475,67.4206149 L89.3011475,65.9891906 L87.2235718,65.9891906 L87.2235718,62.4023774 L89.5649414,62.4023774 L89.5649414,60.970953 Z M121.058167,60.970953 L117.13385,60.970953 L117.13385,72.7842994 L121.058167,72.7842994 L121.058167,71.3528751 L118.716797,71.3528751 L118.716797,67.4206149 L120.794312,67.4206149 L120.794312,65.9891906 L118.716797,65.9891906 L118.716797,62.4023774 L121.058167,62.4023774 L121.058167,60.970953 Z M45.2927856,60.970953 L40.6760254,60.970953 L40.6760254,62.4023774 L42.1929321,62.4023774 L42.1929321,72.7842994 L43.7758789,72.7842994 L43.7758789,62.4023774 L45.2927856,62.4023774 L45.2927856,60.970953 Z M94.6760864,60.970953 L90.0593262,60.970953 L90.0593262,62.4023774 L91.5762939,62.4023774 L91.5762939,72.7842994 L93.1591797,72.7842994 L93.1591797,62.4023774 L94.6760864,62.4023774 L94.6760864,60.970953 Z M82.3426514,60.970953 L80.8256836,60.970953 C79.5615845,60.9710139 78.9295044,61.6455855 78.9295044,62.9947287 L78.9295044,70.7770287 C78.9295044,72.1152092 79.5670776,72.7842994 80.8422241,72.7842994 L82.3261719,72.7842994 C83.6013184,72.7842994 84.2388306,72.1152092 84.2388306,70.7770287 L84.2388306,62.9947287 C84.2388306,61.6455855 83.6068115,60.9710139 82.3426514,60.970953 L82.3426514,60.970953 Z M24.7810059,60.970953 L23.791687,60.970953 C22.5275879,60.9710139 21.8955078,61.6455855 21.8955078,62.9947287 L21.8955078,65.4133443 C21.8955078,65.7204217 21.9284668,65.9700059 21.9944458,66.1619141 C22.0604248,66.3538831 22.1676025,66.5102235 22.315979,66.6308741 C22.4643555,66.7515247 22.7034302,66.8995821 23.0332031,67.0751071 L24.5336914,67.9141801 C24.7315674,68.0348307 24.8744507,68.1335559 24.9624023,68.2103558 C25.050354,68.2871556 25.0942993,68.435213 25.0942993,68.6545888 L25.0942993,70.6618595 C25.0942993,71.1225365 24.885437,71.3528751 24.4677124,71.3528751 L24.187439,71.3528751 C23.7147827,71.3528751 23.4783936,71.1225365 23.4783936,70.6618595 L23.4783936,70.020176 L21.8955078,70.020176 L21.8955078,70.6125273 C21.8955078,72.0603957 22.5275879,72.7842994 23.791687,72.7842994 L24.7645264,72.7842994 C26.0396729,72.7842994 26.6771851,72.1206905 26.6771851,70.7934728 L26.6771851,68.2761929 C26.6771851,67.8593666 26.6387329,67.5768943 26.5617676,67.4288369 C26.4848633,67.2807796 26.3776855,67.1545867 26.2402344,67.0503801 C26.1028442,66.9462345 25.8692627,66.8008569 25.5394897,66.61443 L24.0390015,65.8081842 C23.8411865,65.6875336 23.6982422,65.5888084 23.6103516,65.5120695 C23.5223999,65.4352697 23.4783936,65.2872123 23.4783936,65.0678364 L23.4783936,63.1098979 C23.4783936,62.6382581 23.7037354,62.4024383 24.15448,62.4023774 L24.4017944,62.4023774 C24.8634644,62.4024383 25.0942993,62.6382581 25.0942993,63.1098979 L25.0942993,64.1464214 L26.6771851,64.1464214 L26.6771851,62.9947287 C26.6771851,61.6455855 26.045166,60.9710139 24.7810059,60.970953 L24.7810059,60.970953 Z M75.7966919,60.970953 L74.807373,60.970953 C73.5432129,60.9710139 72.9111938,61.6455855 72.9111938,62.9947287 L72.9111938,65.4133443 C72.9111938,65.7204217 72.9441528,65.9700059 73.0101318,66.1619141 C73.0760498,66.3538831 73.1832275,66.5102235 73.331665,66.6308741 C73.4800415,66.7515247 73.7191162,66.8995821 74.0488892,67.0751071 L75.5493774,67.9141801 C75.7472534,68.0348307 75.8901367,68.1335559 75.9780884,68.2103558 C76.065979,68.2871556 76.1099854,68.435213 76.1099854,68.6545888 L76.1099854,70.6618595 C76.1099854,71.1225365 75.901123,71.3528751 75.4833984,71.3528751 L75.203125,71.3528751 C74.7304077,71.3528751 74.4940796,71.1225365 74.4940796,70.6618595 L74.4940796,70.020176 L72.9111938,70.020176 L72.9111938,70.6125273 C72.9111938,72.0603957 73.5432739,72.7842994 74.807373,72.7842994 L75.7802124,72.7842994 C77.0553589,72.7842994 77.6928711,72.1206905 77.6928711,70.7934728 L77.6928711,68.2761929 C77.6928711,67.8593666 77.6544189,67.5768943 77.5774536,67.4288369 C77.5004883,67.2807796 77.3933105,67.1545867 77.2559204,67.0503801 C77.1185303,66.9462345 76.8849487,66.8008569 76.5551758,66.61443 L75.0546875,65.8081842 C74.8568115,65.6875336 74.7139282,65.5888084 74.6259766,65.5120695 C74.5380859,65.4352697 74.4940796,65.2872123 74.4940796,65.0678364 L74.4940796,63.1098979 C74.4940796,62.6382581 74.7194214,62.4024383 75.170105,62.4023774 L75.4174805,62.4023774 C75.8791504,62.4024383 76.1099854,62.6382581 76.1099854,63.1098979 L76.1099854,64.1464214 L77.6928711,64.1464214 L77.6928711,62.9947287 C77.6928711,61.6455855 77.0608521,60.9710139 75.7966919,60.970953 L75.7966919,60.970953 Z M31.3269653,60.970953 L29.8100586,60.970953 C28.5458984,60.9710139 27.9138184,61.6455855 27.9138184,62.9947287 L27.9138184,70.7770287 C27.9138184,72.1152092 28.5513916,72.7842994 29.8265381,72.7842994 L31.3104858,72.7842994 C32.5856323,72.7842994 33.2231445,72.1152092 33.2231445,70.7770287 L33.2231445,62.9947287 C33.2231445,61.6455855 32.5911255,60.9710139 31.3269653,60.970953 L31.3269653,60.970953 Z M16.1245117,60.970953 L15.0362549,60.970953 C13.8161011,60.9710139 13.2060547,61.6455855 13.2060547,62.9947287 L13.2060547,70.7934728 C13.2060547,72.1206905 13.8161011,72.7842994 15.0362549,72.7842994 L18.1361084,72.7842994 L18.1361084,67.025714 L15.7287598,67.025714 L15.7287598,68.4571384 L16.5532227,68.4571384 L16.5532227,71.3528751 L15.4814453,71.3528751 C15.0197754,71.3528751 14.7889404,71.067723 14.7889404,70.497358 L14.7889404,63.2579553 C14.7889404,62.6875903 15.0197754,62.4024383 15.4814453,62.4023774 L15.8771973,62.4023774 C16.3278809,62.4024383 16.5532227,62.6876512 16.5532227,63.2579553 L16.5532227,64.3109837 L18.1361084,64.3109837 L18.1361084,63.0276168 C18.1361084,61.6565482 17.4655762,60.9710139 16.1245117,60.970953 L16.1245117,60.970953 Z M60.9569702,60.970953 L57.8571167,60.970953 L57.8571167,72.7842994 L59.4400024,72.7842994 L59.4400024,68.0129053 L60.3963623,68.0129053 L61.4351196,72.7842994 L62.9356079,72.7842994 L61.8308716,67.864848 C62.4573975,67.5905977 62.7706909,66.9379515 62.7706909,65.9069094 L62.7706909,62.9947287 C62.7706909,61.6455855 62.1661377,60.9710139 60.9569702,60.970953 L60.9569702,60.970953 Z M36.2075806,60.970953 L34.6246948,60.970953 L34.6246948,70.5302461 C34.6246948,72.0329889 35.2567749,72.7842994 36.520874,72.7842994 L37.8564453,72.7842994 C39.1315918,72.7842994 39.769165,72.0384094 39.769165,70.5466902 L39.769165,60.970953 L38.1862183,60.970953 L38.1862183,70.5795783 C38.1862183,71.0951298 37.9719238,71.3528751 37.5431519,71.3528751 L36.9001465,71.3528751 C36.4384155,71.3528751 36.2075806,71.0951298 36.2075806,70.5795783 L36.2075806,60.970953 L36.2075806,60.970953 Z M107.603455,60.970953 L106.416321,60.970953 C105.152161,60.9710139 104.520081,61.6455855 104.520081,62.9947287 L104.520081,72.7842994 L106.103027,72.7842994 L106.103027,68.4571384 L107.916748,68.4571384 L107.916748,72.7842994 L109.499634,72.7842994 L109.499634,62.9947287 C109.499634,61.6455855 108.867615,60.9710139 107.603455,60.970953 L107.603455,60.970953 Z M47.7828979,60.970953 L46.2000122,60.970953 L46.2000122,72.7842994 L47.7828979,72.7842994 L47.7828979,67.4206149 L49.7285767,67.4206149 L49.7285767,72.7842994 L51.3114624,72.7842994 L51.3114624,60.970953 L49.7285767,60.970953 L49.7285767,65.9891906 L47.7828979,65.9891906 L47.7828979,60.970953 L47.7828979,60.970953 Z M65.6730347,60.970953 L64.0900879,60.970953 L64.0900879,72.7842994 L65.6730347,72.7842994 L65.6730347,65.0513315 L67.3713379,70.4315209 L67.3713379,72.7842994 L68.9542236,72.7842994 L68.9542236,60.970953 L67.3713379,60.970953 L67.3713379,66.6802062 L65.6730347,60.970953 L65.6730347,60.970953 Z M96.5726318,60.970953 L95.0061646,60.970953 L96.7539673,72.7842994 L98.468811,72.7842994 L99.4251099,65.9397975 L100.397949,72.7842994 L102.112793,72.7842994 L103.860535,60.970953 L102.294128,60.970953 L101.172913,69.8227865 L100.051697,60.970953 L98.8150635,60.970953 L97.6938477,69.8227865 L96.5726318,60.970953 L96.5726318,60.970953 Z M31.0141602,71.3528751 L30.2062378,71.3528751 C29.7335815,71.3528751 29.4972534,71.1225365 29.4972534,70.6618595 L29.4972534,63.0934539 C29.4972534,62.6327768 29.7280884,62.4024383 30.1897583,62.4023774 L30.9317627,62.4023774 C31.4044189,62.4024383 31.6407471,62.6327768 31.6407471,63.0934539 L31.6407471,70.6618595 C31.6407471,71.1225365 31.4319458,71.3528751 31.0141602,71.3528751 L31.0141602,71.3528751 Z M82.0298462,71.3528751 L81.2219238,71.3528751 C80.7492676,71.3528751 80.5129395,71.1225365 80.5129395,70.6618595 L80.5129395,63.0934539 C80.5129395,62.6327768 80.7437134,62.4024383 81.2054443,62.4023774 L81.9474487,62.4023774 C82.420105,62.4024383 82.6564331,62.6327768 82.6564331,63.0934539 L82.6564331,70.6618595 C82.6564331,71.1225365 82.4475708,71.3528751 82.0298462,71.3528751 L82.0298462,71.3528751 Z M6.69354248,71.3528751 L5.50634766,71.3528751 L5.50634766,67.3877268 L6.38024902,67.3877268 C7.00683594,67.3877268 7.32006836,67.6673975 7.32006836,68.2267998 L7.32006836,70.8428658 C7.32006836,71.1828923 7.11126709,71.3528751 6.69354248,71.3528751 Z M107.916687,67.025714 L106.102966,67.025714 L106.102966,63.0934539 C106.102966,62.6327768 106.33374,62.4024383 106.795471,62.4023774 L107.224182,62.4023774 C107.685852,62.4024383 107.916687,62.6327768 107.916687,63.0934539 L107.916687,67.025714 Z M60.4790649,66.6637622 L59.4402466,66.6637622 L59.4402466,62.4023774 L60.4790649,62.4023774 C60.9517212,62.4024383 61.1880493,62.6875903 61.1880493,63.2579553 L61.1880493,65.8081842 C61.1880493,66.3785492 60.9517212,66.6637622 60.4790649,66.6637622 Z M113.522827,66.6637622 L112.484009,66.6637622 L112.484009,62.4023774 L113.522827,62.4023774 C113.995483,62.4024383 114.231812,62.6875903 114.231812,63.2579553 L114.231812,65.8081842 C114.231812,66.3785492 113.995483,66.6637622 113.522827,66.6637622 Z M6.24804688,65.9563025 L5.50604248,65.9563025 L5.50604248,62.4023774 L6.44592285,62.4023774 C6.9185791,62.4024383 7.15490723,62.6875903 7.15490723,63.2579553 L7.15490723,65.1007245 C7.15490723,65.6710895 6.85266113,65.9562416 6.24804688,65.9563025 Z M59.0853816,59.9619099 C59.0917566,59.9652777 59.0981316,59.9686454 59.1045066,59.9717637 C59.1112566,59.9751314 59.1181316,59.9783744 59.1250066,59.9816175 L59.1045066,59.9717637 L59.0853816,59.9619099 Z M59.0780725,59.9572569 L59.0871975,59.9624956 L59.0708225,59.953016 L59.0780725,59.9572569 Z M59.0729788,59.9543691 L59.0767288,59.9564895 L59.0578538,59.9450142 L59.0729788,59.9543691 L59.0729788,59.9543691 Z M59.0449771,59.9365293 L59.0531021,59.9418928 L59.0373521,59.9312906 L59.0449771,59.9365293 L59.0449771,59.9365293 Z M59.0393281,59.9327338 L59.0432031,59.9353532 L59.0232031,59.921508 L59.0393281,59.9327338 Z M59.0104343,59.912255 L59.0189343,59.9183668 L58.9995593,59.9040227 L59.0104343,59.912255 Z M58.6414795,59.5701025 C58.7440186,59.6803385 58.8515015,59.7853369 58.9715576,59.8750483 C58.8754272,59.8028163 58.7614746,59.6931284 58.6414795,59.5701025 Z M59.0906982,58.6326088 C59.2941284,59.1567477 59.2491455,59.6039041 59.2498779,59.7875294 C59.249939,59.8149971 59.2483521,59.8388714 59.2452393,59.8594569 C59.3065186,59.4603537 59.2440796,59.0245863 59.0906982,58.6326088 L59.0906982,58.6326088 Z M83.0239519,59.2491679 L83.0322019,59.2530346 L83.0160769,59.245426 L83.0239519,59.2491679 L83.0239519,59.2491679 Z M82.9826252,59.2275122 L82.9905002,59.2320025 L82.9756252,59.2235208 L82.9826252,59.2275122 L82.9826252,59.2275122 Z M82.552002,58.8825584 C82.670105,58.9940734 82.793396,59.1009598 82.9350586,59.1864079 C82.9382935,59.1883569 82.9415283,59.1903058 82.9447632,59.1921938 C82.8356323,59.1283665 82.6970215,59.0115528 82.552002,58.8825584 L82.552002,58.8825584 Z M83.1456568,58.5537382 C83.2465318,58.8036878 83.2064068,59.0029045 83.2072818,59.1030914 C83.2075318,59.1292192 83.2031568,59.1512664 83.1945318,59.1695985 L83.2004068,59.1566868 C83.2866568,58.9622207 83.2571568,58.7569136 83.1456568,58.5537382 L83.1456568,58.5537382 Z M56.4897461,57.7258716 C56.5339355,57.7512685 56.574646,57.7801978 56.6098022,57.8150349 C56.9570313,58.1576802 57.286377,58.5511194 57.7294922,58.7468645 C57.8041382,58.7798135 57.8737793,58.8199492 57.9396362,58.8655053 C57.8753662,58.8136152 57.8186646,58.7772555 57.7728882,58.7633086 C57.5587158,58.6978978 57.0637817,58.269987 56.5358276,57.7413411 C56.5202637,57.736347 56.5048828,57.7311702 56.4897461,57.7258716 Z M59.0855713,58.5276714 C59.692749,58.6968624 60.3314209,58.866967 60.9098511,58.7747585 C60.520813,58.8367587 59.7531128,58.711723 59.0855713,58.5276714 Z M61.7364502,58.7066358 C62.0367432,58.7621412 62.34021,58.8548165 62.6425171,58.7761111 C62.4232788,58.8308681 62.0626221,58.7541584 61.7364502,58.7066358 Z M85.9803438,58.7747904 L85.9893438,58.7755388 L85.9715938,58.7739173 L85.9803438,58.7747904 L85.9803438,58.7747904 Z M85.9340093,58.7686391 L85.9430093,58.7700111 L85.9260093,58.7671423 L85.9340093,58.7686391 L85.9340093,58.7686391 Z M84.8851929,58.3681032 C85.218689,58.4891801 85.5308228,58.6642788 85.8842163,58.7333438 C85.8879395,58.7340747 85.8916016,58.7347446 85.8953247,58.7354146 C85.6469727,58.6904675 85.2156982,58.4872921 84.8851929,58.3681032 Z M61.2459717,58.6970307 C61.1766357,58.7082565 61.1165771,58.7487942 61.0578613,58.7892071 C61.062439,58.7849662 61.0667725,58.7806006 61.0710449,58.7761103 C61.1113892,58.7337017 61.1716309,58.7091297 61.2459717,58.6970307 C61.2459717,58.6970307 61.2459717,58.6970307 61.2459717,58.6970307 Z M62.6929368,58.7637056 L62.6743118,58.7662003 L62.6831868,58.7650777 L62.6929368,58.7637056 Z M62.721179,58.7591232 L62.698804,58.7628652 L62.716929,58.7598716 L62.721179,58.7591232 Z M62.7333479,58.756719 L62.7142229,58.7603362 L62.7228479,58.7587147 L62.7333479,58.756719 Z M85.8693848,58.0852655 C85.9943237,58.2963584 86.0427856,58.4828461 86.0767822,58.5744456 C86.0858765,58.598868 86.0914917,58.6203062 86.093811,58.6390037 L86.0921021,58.6259703 C86.0656738,58.4360719 85.9849243,58.2534211 85.8693848,58.0852655 L85.8693848,58.0852655 Z M81.7584839,58.2774173 C81.4429932,58.1582892 81.1800537,57.9180234 80.9152832,57.6995611 L80.8894653,57.6783665 C81.2546387,57.9772219 81.5794067,58.2086568 81.7584839,58.2774173 L81.760498,58.278209 C81.7752075,58.2837513 81.7889404,58.2882581 81.8015747,58.291547 C81.84375,58.3025706 81.8959961,58.3311954 81.9552002,58.3719401 C81.8948364,58.3360068 81.8311768,58.3045804 81.7631836,58.2792444 L81.760498,58.278209 L81.7593384,58.2777218 L81.7584839,58.2774173 L81.7584839,58.2774173 Z M84.8967708,58.3926469 L84.9170208,58.3998814 L84.8963958,58.3925222 L84.8911458,58.3906512 L84.8967708,58.3926469 L84.8967708,58.3926469 Z M84.3518677,58.2696825 C84.5158081,58.314223 84.6856689,58.3122671 84.8486328,58.3944136 C84.7067871,58.3220464 84.5864258,58.2759057 84.5117798,58.2862185 C84.4675293,58.2923528 84.4136353,58.2863074 84.3518677,58.2696825 Z M82.737793,57.4938886 L82.7480469,57.5006489 C83.2437134,57.8242314 83.7650757,58.1538432 84.3381348,58.2670636 C83.9487915,58.190142 83.2664185,57.84031 82.737793,57.4938886 L82.737793,57.4938886 Z M55.5180608,57.962307 C55.5180608,57.962307 55.6518108,58.0028447 55.5171858,57.9618081 C55.5168108,57.9616834 55.5178108,57.9621823 55.5180608,57.962307 Z M78.8330688,57.8187439 C78.7617188,57.8242321 78.6953735,57.8232342 78.6365356,57.8199912 C78.7001343,57.8249805 78.7668457,57.8241074 78.8330688,57.8187439 Z M78.8947864,57.8186455 L78.8704114,57.8197681 L78.8824114,57.8192691 L78.8947864,57.8186455 Z M78.4550171,57.2476541 C78.3636475,57.3608136 78.2799683,57.4781145 78.2497559,57.6057691 C78.2735596,57.5080183 78.3597412,57.3798156 78.4550171,57.2476541 Z M82.4718628,57.4592952 C82.5093149,57.4996149 82.5508858,57.5411081 82.5968628,57.5840264 C82.5538551,57.5437067 82.5118053,57.5022135 82.4718628,57.4592952 Z M53.6677979,57.5800011 L53.6775479,57.5827452 L53.6517979,57.5751366 L53.6677979,57.5800011 Z M80.2401123,57.1214613 C80.242981,57.1240192 80.4828491,57.3374874 80.7318115,57.5472404 C80.5718994,57.4122165 80.4072876,57.267387 80.2463379,57.1200605 L80.2401123,57.1214613 Z M53.5888447,57.5554861 C53.6167197,57.5644667 53.6450947,57.5733226 53.6740947,57.5820538 L53.6320947,57.5692065 L53.5888447,57.5554861 Z M55.7131348,57.3424815 L55.7211914,57.3451004 C55.7211914,57.3451004 55.9451294,57.464472 56.0769653,57.5369477 L56.0531616,57.5238533 C55.9425049,57.4627058 55.8408813,57.4021064 55.7428589,57.3519825 L55.7131348,57.3424815 Z M82.4951719,57.4805587 L82.5040469,57.491535 L82.4920469,57.476692 L82.4951719,57.4805587 L82.4951719,57.4805587 Z M60.447937,56.9977046 L60.444458,56.996791 C60.4249268,57.0064747 60.4050293,57.0160975 60.3847656,57.0255985 C60.5262451,57.2290176 60.7224121,57.3783539 61.1436768,57.438527 C60.8548584,57.3965642 60.5668945,57.2847446 60.3847656,57.0255985 C60.4185181,57.0096417 60.4372559,57.0013588 60.447937,56.9977046 Z M55.3779297,57.2326718 C55.2371826,57.2217091 55.0899048,57.2591041 54.9199829,57.375126 C55.0563354,57.2830393 55.2161255,57.221161 55.3779297,57.2326718 Z M82.4308306,57.3927082 L82.4334556,57.3968244 L82.4192056,57.3746222 L82.4308306,57.3927082 Z M82.3120117,57.1931452 C82.3411558,57.2427818 82.3818219,57.2941847 82.4370117,57.3483892 C82.3873409,57.2994225 82.3445446,57.2478369 82.3120117,57.1931452 Z M80.2382202,57.1218876 C80.114502,57.1497816 79.9987183,57.2145833 79.8856812,57.3410807 C79.9805908,57.2358388 80.0987549,57.1541058 80.2382202,57.1218876 Z M84.7293701,57.1845577 C84.7922974,57.233829 84.8701172,57.2822476 84.9667969,57.3304835 L84.956665,57.3253066 C84.864563,57.2776798 84.760498,57.2062395 84.7351685,57.1885774 L84.7293701,57.1845577 L84.7293701,57.1845577 Z M55.6947048,57.3579713 L55.7044548,57.3612143 L55.6873298,57.3556014 L55.6947048,57.3579713 Z M55.3812866,57.2329763 C55.3864746,57.2353409 55.5215454,57.2981709 55.6529541,57.3577075 C55.5663452,57.3183543 55.4781494,57.2768053 55.3882446,57.2337364 L55.3812866,57.2329763 Z M86.862915,57.2586241 C87.0755615,57.3426929 87.2918701,57.409923 87.5001831,57.3423187 C87.3579712,57.386723 87.1152954,57.3282241 86.862915,57.2586241 Z M87.5425107,57.3262867 L87.5295107,57.3284071 L87.5386357,57.3269103 L87.5425107,57.3262867 L87.5425107,57.3262867 Z M87.560259,57.3227864 L87.543634,57.3264036 C87.549134,57.325281 87.554759,57.3240337 87.560259,57.3227864 C87.566259,57.3215391 87.572134,57.3200423 87.578009,57.3185456 L87.560259,57.3227864 Z M84.7610474,57.1902218 C85.1398926,57.2946457 85.5396118,57.3775844 85.8945312,57.250737 C85.618042,57.3390236 85.1677246,57.3009318 84.7610474,57.1902218 Z M82.3116749,57.1942984 C82.3134833,57.1960513 82.3618774,57.2426409 82.4341431,57.3100806 C82.3902339,57.2677348 82.3484226,57.226127 82.3091431,57.1853495 L82.3116749,57.1942984 Z M53.6069336,56.6556074 L53.6325684,56.6622459 C53.4401855,56.8232758 53.2322388,56.9887517 53.1450195,57.1295615 L53.1412964,57.1356519 C53.2602539,56.9364961 53.4576416,56.8082934 53.6325684,56.6622459 L53.6067505,56.6556074 L53.6069336,56.6556074 Z M62.2644043,56.9232191 C61.8082886,57.0875987 60.987854,57.1187815 60.4988403,57.0098244 C61.0797729,57.1416205 61.7164307,57.1236538 62.2644043,56.9232191 Z M87.3417358,56.7601184 C87.3999634,56.8267473 87.4468994,56.8905137 87.4852295,56.9464844 C87.4460449,56.8863722 87.397522,56.8229713 87.3417358,56.7601184 Z M62.8842773,56.7361832 C62.6612549,56.7535408 62.4822998,56.8407552 62.2960205,56.9114646 L62.2779541,56.918225 C62.3500366,56.8914273 62.4124756,56.8612189 62.4624634,56.8275391 C62.5391846,56.7760144 62.6955566,56.7508611 62.8842773,56.7361832 C62.8842773,56.7361832 62.8842773,56.7361832 62.8842773,56.7361832 Z M63.5939492,56.7364215 L63.6640742,56.7321806 L63.6706992,56.7316817 L63.5939492,56.7364215 Z M63.7022058,56.7295328 L63.6478308,56.73315 L63.6893308,56.7304059 L63.7022058,56.7295328 L63.7022058,56.7295328 Z M63.7368586,56.7267921 L63.6889836,56.7304093 L63.7196086,56.7281641 L63.7368586,56.7267921 L63.7368586,56.7267921 Z M63.784803,56.722587 L63.770678,56.7238343 L63.777553,56.7232107 L63.784803,56.722587 Z M63.8389033,56.71692 L63.8254033,56.7184168 L63.8321533,56.7177932 L63.8389033,56.71692 L63.8389033,56.71692 Z M63.8882778,56.7108267 L63.8750278,56.712573 L63.8786528,56.712074 L63.8882778,56.7108267 Z M63.9088701,56.7079294 L63.8936201,56.7100498 L63.9007451,56.709052 L63.9088701,56.7079294 Z M63.9274683,56.7050669 L63.9137183,56.7071874 L63.9230933,56.7058153 L63.9274683,56.7050669 L63.9274683,56.7050669 Z M50.1845703,56.6789681 C50.158289,56.6862026 50.1320805,56.6931875 50.1057992,56.7001724 L50.0595703,56.7123961 C50.1014311,56.7014198 50.1427095,56.6903187 50.1834783,56.6789681 L50.1845703,56.6789681 L50.1845703,56.6789681 Z M63.9788896,56.6961226 L63.9573896,56.700114 L63.9780146,56.6962473 L63.9788896,56.6961226 L63.9788896,56.6961226 Z M63.9931658,56.693234 L63.9747908,56.6968512 L63.9925408,56.6933588 L63.9931658,56.693234 L63.9931658,56.693234 Z M63.9962307,56.6926172 L64.0211057,56.6870043 L64.0236057,56.6865054 L63.9962307,56.6926172 Z" id="Shape"></path>
            <path d="M33.8865967,35.0688298 C33.8789063,35.0698043 33.902771,35.1059812 33.9399414,35.1500756 C33.9868774,35.2056809 34.0039673,35.2495317 33.9940796,35.2887538 C33.9854126,35.3234081 33.9949951,35.3587324 34.0184326,35.3780998 C34.0526123,35.4064201 34.0518799,35.4140331 34.0119629,35.4432061 C33.9870605,35.4613554 33.9665527,35.4974714 33.9664917,35.5234165 C33.9661255,35.5609942 33.9397583,35.573784 33.8375854,35.5854776 C33.7131958,35.5997291 33.5665283,35.5678154 33.5665283,35.5265226 C33.5665283,35.5154381 33.5479736,35.5063634 33.5252686,35.5063634 C33.5025635,35.5063634 33.4432983,35.4658623 33.3936768,35.4162865 C33.3439941,35.3667717 33.2971191,35.3262097 33.2894897,35.3262097 C33.2817993,35.3262097 33.2617798,35.3073904 33.2449951,35.2844296 C33.217041,35.2463038 33.2032471,35.2476436 33.0873413,35.2997165 C33.0175171,35.331082 32.9067383,35.3730448 32.8411865,35.3929603 L32.7219849,35.4291982 L32.7020874,35.6415092 C32.6911621,35.7583228 32.6846313,35.8960874 32.6876831,35.947734 C32.6906738,35.9993805 32.6807251,36.0493217 32.6655273,36.05864 C32.6503906,36.0680192 32.6380005,36.0981057 32.6380005,36.1255733 C32.6380005,36.1605322 32.6201782,36.1755145 32.5786133,36.1755145 C32.5460205,36.1755145 32.5078125,36.1870254 32.4937134,36.2010942 C32.4768066,36.2179645 32.4379272,36.216442 32.3789673,36.1966482 C32.2090454,36.1394594 32.1478882,36.1114436 32.1478882,36.0905536 C32.1478882,36.0790428 32.1142578,36.0268481 32.0731201,35.9745926 C32.0320435,35.922337 31.9906006,35.8535156 31.9811401,35.8216629 C31.9623413,35.7586883 31.9473267,35.7527197 31.8931274,35.7870086 C31.8735352,35.7993112 31.8654175,35.822211 31.875061,35.8377415 C31.8862915,35.85583 31.8775024,35.860276 31.8508911,35.850105 C31.8140259,35.8359753 31.6931763,35.8797043 31.6578369,35.9199009 C31.6507568,35.9280011 31.5897827,35.9608892 31.5223999,35.9929856 C31.3809814,36.0604671 31.3711548,36.1001155 31.4537354,36.2703419 C31.5546875,36.4783896 31.4561157,36.7093372 31.2696533,36.7019069 C31.1699219,36.6978873 31.0387573,36.6260816 31.0387573,36.5754704 C31.0387573,36.5581128 31.0148926,36.5222404 30.9856567,36.495869 C30.9401855,36.4547589 30.9290161,36.4532972 30.9086304,36.4854545 C30.8955688,36.5061009 30.8847046,36.5376491 30.8844604,36.555494 C30.8841553,36.5733388 30.8607178,36.6375315 30.8321533,36.69807 C30.7841187,36.800084 30.7664185,36.8128129 30.5935669,36.8704889 C30.4908447,36.9047169 30.395813,36.9419292 30.3823853,36.9530746 C30.3688965,36.9642809 30.3366089,36.9734165 30.3106689,36.9734165 C30.256958,36.9734165 30.2179565,37.0471711 30.2582397,37.0725071 C30.3034668,37.1009493 30.3840942,37.2670951 30.3744507,37.3120422 C30.3694458,37.3354293 30.3398438,37.3611916 30.3087158,37.36917 C30.2775879,37.3771484 30.229248,37.4181368 30.2012329,37.4602823 C30.1732178,37.5024278 30.125061,37.5432943 30.0941162,37.5510291 C30.0268555,37.5678385 29.8782959,37.5426243 29.8323364,37.5066301 C29.81427,37.4924395 29.7925415,37.4877499 29.7840576,37.4962765 C29.7755127,37.5047421 29.7285156,37.4706968 29.6796875,37.420512 L29.5909424,37.3292171 L29.4702148,37.4563235 C29.2001953,37.7403184 29.206604,37.7287466 29.2094727,37.9193758 C29.2110596,38.0293683 29.2295532,38.1307124 29.2598267,38.1959404 C29.326355,38.3393082 29.3485718,38.4404696 29.3134766,38.4404696 C29.2977295,38.4404696 29.2848511,38.4699471 29.2848511,38.5060022 C29.2848511,38.5669061 29.2785645,38.5703167 29.1946411,38.5546035 C29.1217651,38.540961 29.1043091,38.5456506 29.1043091,38.5791478 C29.1043091,38.6019258 29.0927124,38.6206233 29.0784912,38.6206233 C29.0643311,38.6206233 29.0527344,38.6083816 29.0527344,38.5933384 C29.0527344,38.578356 29.041748,38.5728747 29.0283203,38.5811576 C28.9979858,38.5998551 28.7727661,38.4388861 28.7705688,38.3969233 C28.7672119,38.3315125 28.7089844,38.3341923 28.6500854,38.4025874 C28.6162109,38.4419922 28.5884399,38.4870002 28.5884399,38.5025916 C28.5884399,38.5182439 28.5576172,38.5642263 28.5199585,38.6047883 C28.4655762,38.663256 28.4522705,38.7016255 28.4556274,38.7895707 C28.4589233,38.8767242 28.447937,38.9088815 28.4046631,38.9391507 C28.3716431,38.9621724 28.3556519,38.9935379 28.3647461,39.0171077 C28.3730469,39.0387895 28.3687134,39.0633338 28.3551636,39.0716776 C28.3416138,39.0800823 28.3301392,39.1180864 28.3296509,39.1561513 C28.3291626,39.1942162 28.3121338,39.2543893 28.2918701,39.2897744 C28.2374268,39.3848454 28.2453003,39.4537886 28.317688,39.5165806 C28.3925171,39.581565 28.3964844,39.6134787 28.3431396,39.7201214 C28.3062134,39.7939978 28.1298218,39.9332241 28.0731812,39.9332241 C28.0586548,39.9332241 28.046814,39.9447959 28.046814,39.9589865 C28.046814,39.9731162 27.9974976,39.985297 27.9371948,39.9859669 C27.8336182,39.987185 27.8244019,39.993519 27.7705688,40.1017452 C27.7177124,40.2079616 27.71698,40.2163054 27.7598267,40.2163054 C27.7852783,40.2163054 27.8131714,40.2092406 27.8217773,40.2006531 C27.8304443,40.1920048 27.8875122,40.1822602 27.9486084,40.1789105 C28.0097046,40.1755607 28.0713501,40.169714 28.0855103,40.1658161 C28.0997314,40.1617965 28.1328735,40.1600911 28.1592407,40.1617965 C28.197937,40.1642935 28.2037964,40.1781187 28.1898193,40.2336022 C28.1803589,40.2714235 28.1495972,40.3314138 28.121582,40.3669817 C28.0873413,40.4104671 28.0754395,40.4536479 28.0853271,40.4985341 C28.0960083,40.5470745 28.0776978,40.5991473 28.0183105,40.6884934 C27.9581299,40.7791793 27.9442139,40.8191322 27.9653931,40.8403268 C27.9866333,40.8615213 27.977417,40.8911206 27.9302368,40.9528163 C27.8950806,40.9988596 27.866272,41.0619561 27.866272,41.093078 C27.866272,41.1593414 27.9616089,41.3230511 28.0001831,41.3230511 C28.0167236,41.3230511 28.0202637,41.3594716 28.0096436,41.4195838 C27.9807739,41.5818926 27.9705811,41.599433 27.8847046,41.6345745 C27.7893677,41.6736139 27.6679077,41.7770896 27.6907349,41.7999286 C27.6992187,41.8083942 27.7566528,41.8201487 27.8184204,41.8261173 C27.880188,41.8320249 27.9736938,41.8473118 28.0261841,41.8601016 C28.0786743,41.8728306 28.1279907,41.8769111 28.1358032,41.8691154 C28.1435547,41.8613197 28.1499634,41.8869603 28.1499634,41.9261215 C28.1499634,41.9962828 28.1176147,42.0861769 28.0193481,42.2881951 C27.9918213,42.3448358 27.9693604,42.4171896 27.9693604,42.4490423 C27.9693604,42.4808951 27.9598389,42.5069619 27.9481201,42.5069619 C27.9129639,42.5069619 27.9472046,42.6643376 27.9855347,42.6790155 C28.0050659,42.6865066 28.0209961,42.7087366 28.0209961,42.7284694 C28.0209961,42.7821867 28.3778687,42.7796287 28.3986206,42.7257287 C28.4067993,42.7045342 28.4315796,42.6871157 28.4537354,42.6871157 C28.4759521,42.6871157 28.5159302,42.6674437 28.5425415,42.6433867 C28.5691528,42.6193296 28.6049194,42.5970388 28.6219482,42.59375 C28.6389771,42.5905221 28.7159424,42.5650643 28.7929687,42.5371703 C28.9979248,42.4629893 29.0523682,42.4938067 29.053833,42.6848013 C29.0544434,42.7726247 29.0731812,42.8628843 29.1017456,42.9164189 C29.1392212,42.9865801 29.1439209,43.0250105 29.1251221,43.1084488 C29.1122437,43.1658203 29.088623,43.2283686 29.0726318,43.2475533 C29.0169067,43.3146085 29.0340576,43.4093141 29.1119995,43.4646757 C29.1712646,43.5068212 29.2108154,43.5144342 29.3095703,43.5027407 C29.4845581,43.4820943 29.6975708,43.4079742 29.6975708,43.3677776 C29.6975708,43.3490801 29.7178955,43.3335496 29.7426758,43.3331842 C29.7675171,43.3328797 29.9146118,43.2995653 30.0695801,43.259186 C30.3040771,43.1980385 30.3679199,43.190121 30.4500122,43.2119855 C30.5059814,43.2269069 30.5549316,43.2581506 30.5632935,43.2844002 C30.5713501,43.3097971 30.5888672,43.3305654 30.6020508,43.3305654 C30.6152954,43.3305654 30.6260986,43.3510291 30.6260986,43.3759997 C30.6260986,43.4009703 30.6477661,43.4803889 30.6741943,43.5524992 C30.7005615,43.6246703 30.7296143,43.7228474 30.7387695,43.7709005 C30.7478638,43.8188928 30.7609253,43.8871052 30.7677612,43.9224903 C30.7746582,43.9578755 30.7976074,43.9995947 30.8188477,44.0151252 C30.8400879,44.0307166 30.850769,44.0500231 30.8426514,44.0581233 C30.8345947,44.0662235 30.8417358,44.1390037 30.8585205,44.2198232 C30.8828735,44.3367587 30.8823242,44.3794523 30.8560181,44.4285408 C30.828186,44.48037 30.8292847,44.4965705 30.862793,44.5300067 C30.8987427,44.5658791 30.9152222,44.5626512 31.031189,44.4971186 C31.1019287,44.4571048 31.2163696,44.386578 31.2855225,44.340352 C31.3638306,44.2879746 31.4408569,44.2572182 31.4894409,44.2588626 C31.5822144,44.2619078 31.7675781,44.1970451 31.8661499,44.1270056 C31.9049072,44.0994771 31.9475098,44.0769426 31.9608765,44.0769426 C31.9742432,44.0769426 32.0061646,44.0537382 32.0317993,44.0254179 C32.0841064,43.9678028 32.2226562,43.9559266 32.2717285,44.0048324 C32.2887573,44.0218246 32.3026733,44.0964928 32.3026733,44.1706737 C32.3026733,44.2448547 32.3149414,44.3131279 32.3300171,44.3223853 C32.3450317,44.3317036 32.3548584,44.3641654 32.3519287,44.3946783 C32.348999,44.4251911 32.3532104,44.4674584 32.3613892,44.4887139 C32.3695679,44.5099693 32.3815918,44.5621031 32.3882446,44.6045531 C32.3948975,44.647064 32.4196167,44.7744141 32.4431763,44.8876953 C32.4666748,45.0009157 32.4797974,45.1254641 32.4723511,45.1643817 C32.4577637,45.2400853 32.4840698,45.2551894 32.5393677,45.2029339 C32.6061401,45.1399593 32.9107056,45.0053616 33.0248413,44.9884304 C33.0886841,44.9789294 33.2453613,44.9219842 33.3730469,44.861933 C33.869751,44.6283056 33.8699951,44.6283056 34.0753174,44.8392158 C34.260376,45.0292969 34.2807617,45.0680927 34.3011475,45.2685883 C34.3109131,45.3648164 34.3352051,45.4748089 34.3552246,45.5130565 C34.3751831,45.5513042 34.3916016,45.6129998 34.3917236,45.6502121 C34.3917236,45.6874244 34.4101562,45.7329196 34.432373,45.7513735 C34.454834,45.7699492 34.4671021,45.8069178 34.4598999,45.8343246 C34.4408569,45.9071048 34.4953613,46.0072917 34.5540771,46.0072917 C34.5820312,46.0072917 34.6842041,45.9325626 34.781189,45.8412676 C34.8781738,45.7499727 35.0304565,45.6283476 35.1196289,45.571037 C35.2088013,45.5137265 35.2999878,45.4349168 35.3222656,45.3959992 C35.3838501,45.288443 35.4869995,45.2524488 35.7854614,45.2344212 C35.9656982,45.2235194 36.0784912,45.2042738 36.1207886,45.1771715 C36.1558228,45.1546371 36.2510376,45.1171812 36.3323364,45.0939159 C36.4136353,45.0706506 36.4868774,45.0407468 36.4950562,45.0275307 C36.5032349,45.0143145 36.5556641,45.0034736 36.6115723,45.0034736 C36.678833,45.0034736 36.7132568,44.9919628 36.7132568,44.9694283 C36.7132568,44.950609 36.7393799,44.9110215 36.7713013,44.8814222 C36.8275146,44.8293494 36.8378296,44.8286794 37.1000977,44.8602886 C37.5072632,44.9093771 37.5414429,44.9332514 37.5343628,45.1628591 C37.5315552,45.2517179 37.5429688,45.3252289 37.5633545,45.3497123 C37.5818481,45.3720031 37.6738892,45.426573 37.7677612,45.4709719 C37.8616333,45.5154318 37.9422607,45.5615969 37.9470215,45.5736559 C37.9517212,45.585654 37.9736328,45.5954595 37.9957275,45.5954595 C38.0178223,45.5954595 38.0508423,45.6156796 38.0691528,45.6404675 C38.1005859,45.6830393 38.1051025,45.6826739 38.151062,45.633829 C38.1777954,45.6053259 38.2645264,45.4952726 38.34375,45.3892389 C38.4230347,45.2832661 38.5452271,45.1408119 38.6153564,45.0727214 L38.7428589,44.9490255 L38.7171631,44.8193002 C38.6872559,44.6682586 38.7384644,44.4621598 38.8303833,44.3637391 C38.8798218,44.3108136 38.8980713,44.307403 39.0306396,44.3261614 C39.1108398,44.3375504 39.2602539,44.3443716 39.3626099,44.3413264 C39.5033569,44.337185 39.553894,44.3450416 39.5698853,44.3734837 C39.5866089,44.4033875 39.609375,44.4058237 39.6801758,44.3856036 C39.729248,44.3715348 39.7982788,44.3600239 39.8336182,44.3600239 C39.8690186,44.3600239 39.9590454,44.3292066 40.0337524,44.2915071 C40.1400757,44.2378507 40.1694946,44.2097131 40.1694946,44.1619645 C40.1694946,44.1284064 40.1992798,44.0422274 40.2357788,43.9704826 C40.2962036,43.8514155 40.3080444,43.8414882 40.3711548,43.8570186 C40.4091797,43.8663978 40.5559082,43.8955708 40.6970825,43.9219422 C40.9829102,43.9752331 41.0206909,44.0027617 41.0206909,44.1581275 C41.0206909,44.2761593 41.0513916,44.2960139 41.293457,44.334627 C41.3908081,44.3501575 41.5059814,44.3847509 41.5493774,44.4114877 C41.6373901,44.465814 41.7842407,44.4777512 42.0096436,44.4488827 C42.1547852,44.430307 42.1625366,44.4323169 42.2191772,44.503209 L42.2780151,44.5767809 L42.2973633,44.4877394 C42.3080444,44.4387727 42.3240967,44.3928511 42.3329468,44.3857863 C42.3417969,44.3786605 42.3700562,44.3113008 42.395874,44.2359627 C42.4216309,44.1606855 42.4993286,44.0125672 42.5684814,43.9067771 C42.6875,43.7249181 42.6936646,43.7068905 42.6833496,43.5728411 C42.6773071,43.494945 42.6832886,43.4113848 42.6964722,43.3872669 C42.7096558,43.3631489 42.7393799,43.3008443 42.7624512,43.2488932 C42.7854614,43.1968813 42.8218384,43.147671 42.8432007,43.1395098 C42.864563,43.1313487 42.9832153,43.1360992 43.1068726,43.1500462 C43.2440186,43.1655767 43.3635254,43.1663684 43.413208,43.1521169 C43.5255737,43.1200206 43.6773071,42.9997354 43.6773071,42.9428511 C43.6773071,42.9170279 43.7034302,42.8662949 43.7353516,42.8300571 L43.793457,42.76422 L43.9352417,42.8056956 C44.0397339,42.8362084 44.1995239,42.8480238 44.5414429,42.8507644 L45.0056763,42.8544187 L45.1604614,42.9408413 C45.2455444,42.9884073 45.3190918,43.0376785 45.3237915,43.0502856 C45.3285522,43.0628927 45.3434448,43.0731855 45.3570557,43.0731855 C45.3706055,43.0731855 45.4160156,43.0983997 45.4578247,43.129278 C45.4996338,43.1600953 45.5397339,43.1794019 45.546936,43.1721543 C45.5541992,43.1649068 45.5653687,43.1032111 45.5717773,43.0349987 C45.578186,42.9668473 45.5956421,42.8988176 45.6105347,42.8839571 C45.6254272,42.8690965 45.6375732,42.819338 45.6375732,42.7732947 C45.6375732,42.6809644 45.6846924,42.5584257 45.7200928,42.5584257 C45.7325439,42.5584257 45.7399292,42.5323589 45.7365112,42.5005061 C45.7269287,42.4117082 45.7647705,42.2481204 45.8219604,42.1315503 C45.8560181,42.062059 45.8760376,41.9615675 45.8808594,41.8355574 C45.8918457,41.5502226 45.9857788,41.3739667 46.1136475,41.3989373 C46.3632813,41.4477214 46.3674316,41.4475995 46.465332,41.3859039 C46.5183716,41.3524677 46.5688477,41.3137937 46.5773926,41.2999685 C46.5859375,41.2861433 46.6246338,41.2588584 46.6633911,41.2393082 C46.7417603,41.1998425 46.8426514,41.146308 46.9014893,41.1129935 C46.9227905,41.1009346 46.9575806,41.0841251 46.9788818,41.0755985 C47.0001221,41.0671329 47.0784302,41.0361328 47.1528931,41.0067162 C47.2346191,40.9744981 47.2886963,40.9372858 47.2891846,40.9129242 C47.2896729,40.8907552 47.3131714,40.8449555 47.3414307,40.8110929 L47.3928223,40.7495191 L47.5534058,40.7905074 C47.6416626,40.8129809 47.7874146,40.8356981 47.8771973,40.8409358 C47.96698,40.8461736 48.0482788,40.8625567 48.0577393,40.8772954 C48.0672607,40.8920342 48.130188,40.9121934 48.1975708,40.9221207 C48.2649536,40.9319871 48.3200684,40.9509892 48.3200684,40.9642662 C48.3200684,40.9776042 48.3356934,40.9884451 48.3547974,40.9884451 C48.3739014,40.9884451 48.4232178,41.0046455 48.4644165,41.0244393 C48.6852417,41.1307166 48.8308105,41.1943611 48.8529663,41.1943611 C48.8666382,41.1943611 48.9243164,41.2167738 48.9811401,41.2441805 C49.0379639,41.2715264 49.1185303,41.3020392 49.1600952,41.3119666 C49.2017212,41.321833 49.2531128,41.344002 49.2744141,41.3611769 C49.3257446,41.4025307 49.5408325,41.5032048 49.5778809,41.5032048 C49.5939941,41.5032048 49.616394,41.5191007 49.6277466,41.5386509 C49.6390991,41.5581401 49.7457886,41.624769 49.8648071,41.6866473 C49.9838257,41.7485257 50.1207275,41.8198442 50.1690674,41.8449975 C50.2174072,41.8702117 50.2659912,41.8851941 50.2770996,41.8783728 C50.2964478,41.8664357 50.3405762,41.722337 50.4214478,41.4066721 C50.4862671,41.15386 50.5668335,40.8252835 50.5871582,40.7310652 C50.5978394,40.6814894 50.6187134,40.6178448 50.6335449,40.5895245 C50.6483154,40.5612042 50.6681519,40.4954889 50.6775513,40.4434161 C50.6869507,40.3914041 50.7230835,40.3219128 50.7578735,40.2890247 C50.7926025,40.2560757 50.8212891,40.220386 50.8215332,40.2096669 C50.8218384,40.1988869 50.8548584,40.1448043 50.8950195,40.0895035 C50.9452515,40.0203167 50.9694824,39.9539315 50.9724731,39.8774971 C50.9786377,39.7207913 51.0504761,39.5630502 51.1386719,39.5125 C51.2359619,39.4568338 51.2749634,39.4587828 51.381897,39.5247417 C51.4893799,39.5910051 51.6211548,39.5815041 52.0037231,39.4800382 C52.2522583,39.4141402 52.3284912,39.3790596 52.3051758,39.34136 C52.2984009,39.3305192 52.319458,39.2825878 52.3518677,39.2349609 C52.3842773,39.1872732 52.418396,39.1283182 52.4277344,39.1039567 C52.4561768,39.0299584 52.5649414,39.0215537 52.7279053,39.0808132 C52.8103638,39.1108388 52.9107056,39.1353831 52.9509277,39.1353831 C53.0371094,39.1353831 53.1816406,39.227287 53.21698,39.304635 C53.2312012,39.3358787 53.2338257,39.4266864 53.2230835,39.5177377 L53.2043457,39.6762706 L53.2963867,39.7321195 C53.3469849,39.7628759 53.4754028,39.8334635 53.5817871,39.8890688 C53.7766724,39.9907783 53.9142456,40.0717805 54.1750488,40.2383527 C54.2530518,40.2882329 54.468689,40.4773395 54.6541748,40.6587114 C54.8395996,40.8400223 55.0053711,40.9884451 55.022522,40.9884451 C55.0396118,40.9884451 55.0601807,41.0054982 55.0682373,41.0263882 C55.0762329,41.0472173 55.1466064,41.0954532 55.2245483,41.1335181 C55.3932495,41.2159211 55.3795166,41.2292591 55.492981,40.8729104 C55.5380859,40.731187 55.6147461,40.5168053 55.6633911,40.3964592 C55.7181396,40.2610089 55.7466431,40.153209 55.7383423,40.1133779 C55.730957,40.0779927 55.7127075,39.9911437 55.6976929,39.9203734 C55.6538696,39.7132392 55.6708984,39.2060316 55.7250977,39.1050529 C55.737915,39.0811177 55.7484741,39.0388504 55.7484741,39.0110782 C55.7484741,38.983306 55.7896118,38.9244729 55.8399048,38.8803784 C55.9151611,38.8144804 55.9404297,38.8050403 55.9822998,38.8273921 C56.0103149,38.8423744 56.0443115,38.8477949 56.0579224,38.8393901 C56.0714722,38.8310463 56.1160278,38.8488302 56.1568604,38.8789168 C56.206665,38.9157027 56.2853394,38.9382981 56.3959961,38.9477382 C56.4867554,38.9555339 56.5809326,38.9791646 56.6053467,39.00042 C56.6453247,39.0351962 56.6660156,39.0310547 56.8120728,38.958579 C56.9013672,38.914241 57.0007324,38.8780032 57.0328979,38.8780032 C57.0650024,38.8780032 57.1343384,38.8600365 57.1869507,38.8381111 C57.2868652,38.7964529 57.4528809,38.7493742 57.5410156,38.7377415 C57.6506958,38.7232464 57.7233276,38.6665449 57.7669678,38.5611202 C57.791687,38.5015562 57.8118896,38.4352319 57.8118896,38.4137328 C57.8118896,38.3922946 57.8460083,38.3373593 57.8878174,38.2917423 C57.9700928,38.2018481 58.0679932,38.1832115 58.1213989,38.2474042 C58.1390381,38.2685988 58.1782227,38.2863827 58.208374,38.28687 C58.2385864,38.2872963 58.2858276,38.3046539 58.3133545,38.3254221 C58.3408813,38.3461904 58.4174805,38.3632434 58.4836426,38.3632434 C58.6611938,38.3632434 58.7402344,38.4439411 58.7409058,38.6258002 L58.7414551,38.7621031 L58.8746338,38.8393292 C58.9478149,38.8817792 59.0665283,38.9666793 59.1384277,39.0278877 C59.3449707,39.2037172 59.5422363,39.3761971 59.5881348,39.4211442 C59.631897,39.4639596 59.9534912,39.7354692 60.041626,39.8039861 C60.0692749,39.825546 60.121582,39.8720766 60.1577148,39.9074618 C60.1939087,39.9428469 60.2757568,40.0138 60.3395386,40.065142 C60.4033813,40.116484 60.5485229,40.2501071 60.6619873,40.3621703 C60.9529419,40.6493931 61.2357788,40.8855175 61.2888184,40.8855175 C61.3693237,40.8855175 61.7391357,40.4799584 62.2073364,39.8783497 L62.3341675,39.7154927 L62.3426514,39.4318632 C62.3527832,39.0957346 62.3724365,38.929467 62.4018555,38.929467 C62.4136353,38.929467 62.430481,38.9034001 62.4393311,38.8715474 C62.4481812,38.8396946 62.4962769,38.7677671 62.5462036,38.7117356 L62.6370239,38.6098433 L62.7199097,38.6513798 C62.8494873,38.7162424 62.9422607,38.7579007 63.0081787,38.7803133 C63.1447144,38.679761 63.3950806,38.511849 63.605957,38.461786 C63.7935181,38.4172652 64.0436401,38.5086211 64.2102051,38.5866998 C64.2585449,38.5781124 64.2904663,38.5709866 64.2928467,38.5676369 C64.2973633,38.5613638 64.3355713,38.487122 64.3777466,38.4025874 C64.4725342,38.2127499 64.5567017,38.1558048 64.6639404,38.208913 C64.7042847,38.2289504 64.7496948,38.2459425 64.7648315,38.2467343 C64.7800293,38.2475869 64.8236694,38.2686597 64.8618774,38.2936303 C64.9000854,38.3186009 64.9805298,38.3457031 65.0406494,38.3538033 C65.178894,38.3725008 65.2263184,38.41489 65.265564,38.5546035 C65.289917,38.6413915 65.289978,38.6788474 65.2659302,38.7237336 C65.2402344,38.771665 65.243042,38.7921287 65.2827148,38.844567 C65.309021,38.8792822 65.3651733,38.9270308 65.4075317,38.9507224 C65.4498901,38.9744141 65.5709229,39.0562689 65.6765747,39.1325815 C65.7822266,39.2088941 65.8859863,39.2725386 65.9072266,39.2740612 C65.9284668,39.2755838 65.9734497,39.2363617 66.0072632,39.1868469 C66.0410767,39.1372711 66.0825806,39.0921413 66.0994263,39.086599 C66.116333,39.0810568 66.1603394,39.0553553 66.1973877,39.0295321 C66.2642212,38.9828797 66.2661743,38.983306 66.4682617,39.0849546 C66.7055054,39.2043263 66.7387085,39.2289315 66.7792969,39.3155368 C66.8566284,39.4805255 66.8251343,39.6553805 66.6811523,39.8600176 C66.6118164,39.9585601 66.6210327,39.9870632 66.7548828,40.0876155 C66.8208008,40.1371913 66.9054565,40.2066826 66.9429321,40.2421287 C66.9804077,40.2775139 67.0673828,40.3470052 67.1361694,40.3965201 C67.2049561,40.4460959 67.4071045,40.6318527 67.5854492,40.8094485 C67.763855,40.9869834 67.9487915,41.1607422 67.99646,41.1954574 C68.0840454,41.2594065 68.2015381,41.3596543 68.2976074,41.4524719 C68.3264771,41.4803658 68.3616333,41.5032048 68.3757324,41.5032048 C68.3898315,41.5032048 68.4180908,41.5263483 68.4385376,41.5546686 C68.4589844,41.5829889 68.4888306,41.6061324 68.5047607,41.6061324 C68.520752,41.6061324 68.5540771,41.628545 68.5789185,41.6559518 C68.6418457,41.7253213 68.7125244,41.6873782 68.8242798,41.5242776 C68.873291,41.4527155 68.9558716,41.3602025 69.0076904,41.318666 L69.1019287,41.2430234 L69.1066284,40.926993 C69.1099243,40.7047547 69.1254883,40.5643103 69.1589966,40.4537088 C69.1852417,40.3672253 69.2005615,40.2903646 69.1930542,40.2828734 C69.166748,40.2566238 69.322876,40.0820733 69.40271,40.0483934 C69.4700317,40.0200731 69.489624,40.0203167 69.5228271,40.0500987 C69.5446167,40.0696489 69.6166382,40.1096018 69.6828613,40.1388357 C69.7537231,40.1701403 69.8422241,40.239388 69.8978271,40.3071132 C69.9498291,40.3704532 70.0042114,40.4222215 70.0186768,40.4222215 C70.0331421,40.4222215 70.1033325,40.3863491 70.1746826,40.3425592 C70.2918701,40.2705708 70.3274536,40.262227 70.5407715,40.2566847 C70.6706543,40.2532741 70.7906494,40.2420678 70.807312,40.231775 C70.8240356,40.2214823 70.8562622,40.1761698 70.8790283,40.13104 C70.9943237,39.9026504 71.1844482,39.805935 71.3237305,39.9048429 C71.3656006,39.9346249 71.4116821,39.9589256 71.4260864,39.9589256 C71.4405518,39.9589256 71.4851685,39.9864541 71.5252686,40.020134 C71.5653687,40.0538138 71.6213989,40.0859102 71.6497192,40.0913306 C71.6780396,40.0967511 71.7197266,40.1402974 71.7423096,40.188046 C71.7821045,40.2720934 71.7785034,40.3508422 71.7272339,40.5147954 C71.7138672,40.5574891 71.7255859,40.5751512 71.7832642,40.5992082 C71.8233643,40.6159568 71.9116211,40.6814285 71.9794312,40.7447077 C72.0472412,40.8079868 72.1266479,40.8597551 72.1558838,40.8597551 C72.1851807,40.8597551 72.2385864,40.8828986 72.2746582,40.9112189 C72.31073,40.9395392 72.3630981,40.9626827 72.3910522,40.9626827 C72.4190674,40.9626827 72.4647827,40.991673 72.4926758,41.0270581 C72.5205688,41.0624433 72.5581665,41.0913726 72.5762329,41.0913726 C72.6547241,41.0913726 72.7012939,41.1915596 72.7055664,41.3694598 C72.7090454,41.5145329 72.7203369,41.5568002 72.769043,41.6080813 C72.8016357,41.6424311 72.8625488,41.7197182 72.90448,41.7798912 C72.9463501,41.8400643 72.9907227,41.8892746 73.0030518,41.8892746 C73.0153809,41.8892746 73.1008911,41.9848328 73.1931152,42.1016465 C73.4532471,42.4309539 73.888916,42.8167801 74.0446777,42.8557586 C74.1488037,42.8818254 74.1679077,42.8210433 74.1763306,42.4375924 C74.180603,42.2421518 74.1901855,42.0445796 74.1975708,41.9985362 C74.2150269,41.8905536 74.3057251,41.7155158 74.3909912,41.6254389 C74.470459,41.5415134 74.5455322,41.5361538 74.6605225,41.6060715 C74.7069702,41.6343309 74.7630615,41.6575353 74.7852173,41.6575353 C74.807373,41.6575353 74.8504028,41.6808006 74.8808594,41.70906 C74.9113159,41.7373803 74.9541626,41.7605847 74.9760132,41.7605847 C74.9978638,41.7605847 75.0157471,41.7721564 75.0157471,41.7862861 C75.0157471,41.842135 75.1133423,41.8074198 75.196167,41.7220934 C75.2676392,41.6485215 75.2846069,41.6099084 75.2892456,41.5097824 C75.3076172,41.1111664 75.5413208,40.7449513 75.7188721,40.8365507 C75.7506714,40.8529948 75.7940674,40.8808888 75.8153076,40.8986727 C75.8366089,40.9163957 75.8830566,40.9394174 75.9185181,40.9499538 C75.9539795,40.9604293 75.9967651,40.9799794 76.0136108,40.9933783 C76.0303955,41.0067771 76.1688843,41.0225512 76.3212891,41.028398 C76.486145,41.034732 76.6056519,41.0506888 76.616272,41.0677419 C76.6449585,41.1140898 76.7280884,41.0832115 76.7614136,41.013842 C76.7783203,40.9786395 76.8270264,40.9164567 76.8696289,40.8757119 L76.9471436,40.8015919 L77.0629272,40.869317 C77.1265869,40.9065293 77.1940308,40.937773 77.2127686,40.9386866 C77.2678833,40.9414273 77.4761353,41.1028835 77.5120239,41.1706695 C77.5334473,41.2109879 77.5397339,41.2796875 77.5298462,41.3656838 C77.5233765,41.4217154 77.5185547,41.4554561 77.5331421,41.4920594 C77.6962891,41.516421 77.8565674,41.5535114 77.9904785,41.6093603 C78.347229,41.7579049 78.635376,42.2474504 78.7735596,42.5213962 C78.7929687,42.5010543 78.8145752,42.4769972 78.8364258,42.4512958 C78.9724731,42.2908749 79.1299438,42.1723559 79.2070312,42.1723559 C79.2622681,42.1723559 79.402771,42.2322854 79.4754028,42.2867944 C79.5761719,42.362437 79.7059937,42.517072 79.71698,42.5745044 C79.7329102,42.65776 79.6883545,42.8412634 79.6379395,42.8994876 C79.6165161,42.9242755 79.609436,42.9453482 79.6222534,42.9463836 C79.6351318,42.9474189 79.7558594,42.9483934 79.890625,42.9483934 C80.0253906,42.9483934 80.1746216,42.9605133 80.222229,42.9751302 C80.2822266,42.9935841 80.3257446,42.9934623 80.3640747,42.974643 C80.4006348,42.9567372 80.4697876,42.944861 80.6554565,42.9301222 C80.9070435,42.7644027 81.2999878,42.5346123 81.6314697,42.4684707 C81.9615479,42.4025727 82.3933105,42.5801075 82.6762695,42.7262769 C82.8643799,42.7069094 83.0228882,42.7016717 83.230835,42.7052041 C83.401062,42.7080666 83.7550659,42.7142179 84.0175171,42.7189075 C84.2799072,42.7235971 84.5254517,42.7229881 84.5631104,42.7175676 C84.6374512,42.7068485 84.6356812,42.7122081 84.6863403,42.3342994 C84.6999512,42.2323463 84.7235107,42.1049353 84.7385864,42.0512181 C84.7536621,41.9975008 84.800354,41.8074198 84.8423462,41.6287886 C84.8978882,41.3926033 84.9418335,41.2684203 85.0033569,41.1732884 C85.0498657,41.1013609 85.128479,40.9768124 85.1781616,40.896602 C85.2277832,40.8163306 85.3091431,40.7062164 85.3587646,40.651951 C85.4084473,40.5976247 85.5012817,40.4933573 85.5651245,40.4201508 C85.7019043,40.2633233 85.7752686,40.1905431 85.7966309,40.1905431 C85.8051147,40.1905431 85.9320679,40.0745212 86.0787354,39.9327978 C86.2254028,39.7910744 86.3758545,39.6679877 86.4130859,39.6592784 C86.4503174,39.6505691 86.5213623,39.6233451 86.5710449,39.5988008 C86.7372437,39.5165806 86.8502197,39.4933153 87.1587524,39.4778457 C87.4086914,39.4652995 87.4934692,39.4707808 87.6178589,39.5076277 C87.7017212,39.5324765 87.8051758,39.5631111 87.8477173,39.5757182 C87.8903198,39.5883254 87.977356,39.6333942 88.0411987,39.6757224 C88.1050415,39.7181116 88.1664429,39.7528877 88.1776733,39.7528877 C88.1889038,39.7528877 88.2231445,39.7762139 88.2537231,39.8047169 C88.3369751,39.8820649 88.557251,39.9846879 88.6401978,39.9846879 C88.7156372,39.9846879 89.1109009,40.1720283 89.2921143,40.2937752 C89.4334106,40.3886635 89.5338745,40.4506636 89.6390991,40.5079742 C89.6880493,40.5346501 89.7808838,40.6001827 89.845459,40.6535954 C89.9099731,40.7069472 90.0040283,40.7637706 90.0544434,40.7797883 C90.1048584,40.795806 90.1972656,40.8550655 90.2597656,40.9115234 C90.3222656,40.9679814 90.3814697,41.0141465 90.3913574,41.0141465 C90.4012451,41.0141465 90.4433594,41.0654276 90.4849854,41.1281586 C90.5266113,41.1908896 90.5971069,41.2727445 90.6416626,41.3101394 C90.6861572,41.3475344 90.7373657,41.4046623 90.7553711,41.4370632 C90.8063965,41.5288453 90.9216919,41.697001 90.9610596,41.7370758 C90.9806519,41.7570523 91.0129395,41.8139365 91.0327759,41.8635123 C91.0526733,41.9130271 91.0786133,41.9602277 91.0903931,41.9683279 C91.1226807,41.9906187 91.1387939,42.0763714 91.1793213,42.4425256 C91.2138672,42.75411 91.2114868,43.1100932 91.1733398,43.3325143 L91.1575317,43.4246619 L91.3597412,43.4703398 C91.5736084,43.5185757 91.7091675,43.5559098 91.7940674,43.5898942 C91.8919067,43.6290554 92.1299438,43.667912 92.3486328,43.6803973 C92.6156006,43.6956842 92.9211426,43.7375861 93.168457,43.7882581 C93.2628174,43.765541 93.3604736,43.7500714 93.4459229,43.7529339 C93.6431274,43.7595115 93.8694458,43.9416142 93.984436,44.0470388 C94.0457153,44.0688424 94.1055908,44.0891843 94.1412354,44.100147 C94.197998,44.1175655 94.2676392,44.1412571 94.2959595,44.1528898 C94.3243408,44.1645224 94.3998413,44.188214 94.4636841,44.2056326 C94.5275269,44.2230511 94.6133423,44.2475344 94.65448,44.2600197 C94.6956177,44.2725659 94.7802124,44.2827978 94.8424072,44.2827978 C94.9046631,44.2827978 94.9812012,44.2995464 95.0126343,44.3199492 C95.0440674,44.3404129 95.1162109,44.3687941 95.1729126,44.3830456 C95.2977905,44.4144111 95.5479126,44.5025391 95.6887817,44.5648438 C95.7455444,44.5899362 95.8499756,44.6304372 95.9209595,44.6547988 C95.9918823,44.6792213 96.0719604,44.7108913 96.098999,44.7252646 C96.4440918,44.9090117 96.8423462,45.1065839 96.8682861,45.1065839 C96.8862915,45.1065839 96.9309082,45.1222362 96.9672852,45.1411773 C97.0094604,45.1631636 97.1848145,45.1814957 97.4672852,45.1935547 C97.5755615,45.1458669 97.6956787,45.1037214 97.8011475,45.0921497 C97.947876,45.0760102 98.1248169,45.1548198 98.258606,45.2324114 C98.5707397,45.2472719 98.930542,45.2367965 99.1321411,45.2059182 C99.2243652,45.1917885 99.4448853,45.1696804 99.6221924,45.1567687 C99.6983643,45.1512265 99.7763062,45.1444661 99.8535767,45.1368532 C99.9418335,45.0814306 100.061768,45.0161416 100.164917,44.9955561 C100.257874,44.9770413 100.373413,45.0127919 100.467407,45.0543284 C100.552917,45.0384325 100.618408,45.022902 100.653931,45.0091377 C100.75946,44.9682712 102.961243,44.9450059 103.221497,44.9763105 C103.393005,44.996896 103.53009,44.996287 103.746094,44.9738134 C104.112976,44.9356876 104.101685,44.9517053 104.123108,44.4371892 C104.141235,44.0012391 104.197327,43.2790407 104.212952,43.2790407 C104.220947,43.2790407 104.223328,43.219903 104.218323,43.14761 C104.213257,43.0749517 104.227905,42.9512559 104.250977,42.8709236 C104.338806,42.5654906 104.43219,42.3102424 104.489868,42.217912 C104.522888,42.1651084 104.549866,42.1115129 104.549866,42.0988449 C104.549866,42.0741179 104.637573,41.8831233 104.6875,41.7991368 C104.846863,41.5312206 104.903625,41.5096606 105.498718,41.491024 C105.80365,41.4814621 105.986023,41.4862126 106.0401,41.5050319 C106.101501,41.5263483 106.145813,41.5253129 106.219177,41.5008905 C106.350403,41.4571615 106.476868,41.4685505 106.542847,41.5298807 C106.572754,41.5576529 106.625488,41.58037 106.660095,41.58037 C106.694702,41.58037 106.79071,41.6147198 106.873535,41.6566826 C107.035217,41.7387202 107.368835,41.8572392 107.43866,41.9648564 C107.492065,42.0471375 107.61615,42.1622459 107.69519,42.2028688 C107.822876,42.2684014 107.992798,42.4272387 108.090576,42.5724945 C108.163879,42.6814516 108.367188,43.1706926 108.367188,43.2381741 C108.367188,43.2596123 108.395203,43.3271547 108.429382,43.3882413 C108.463501,43.4492671 108.503235,43.5626092 108.517578,43.640079 C108.531921,43.7174878 108.566895,43.8445943 108.595276,43.9224903 C108.623657,44.0003255 108.654907,44.1161647 108.664734,44.1798702 C108.674561,44.2435148 108.691162,44.3072812 108.701721,44.3214109 C108.722595,44.3494267 108.770996,44.5870737 108.793457,44.7717952 C108.801208,44.8355007 108.81781,44.9224105 108.830383,44.9648606 C108.890076,45.1659652 108.917542,45.3386278 108.912659,45.4824219 C108.909729,45.5688445 108.919861,45.672442 108.93512,45.7125168 C108.950439,45.7525916 108.967041,45.8902953 108.972107,46.0185589 C108.977112,46.1468225 108.993958,46.3443947 109.00946,46.4576151 C109.045471,46.7202936 109.029419,47.5482212 108.986816,47.6277008 C108.969666,47.6596144 108.95105,47.8147975 108.945557,47.9724777 C108.936218,48.2369834 108.894653,48.4750567 108.849915,48.5196384 C108.839783,48.5297484 108.831482,48.6278037 108.831482,48.7375525 C108.831482,48.8473013 108.814209,49.004677 108.793152,49.0872018 C108.777954,49.1464613 108.762756,49.2172925 108.75354,49.2695481 L107.897949,49.4829553 C107.897949,49.4829553 107.650696,49.4856351 107.214172,49.4902029 C106.998596,49.85453 106.69696,50.2792738 106.479248,50.243036 C106.286011,50.2109396 106.059692,49.8486832 105.885315,49.5039063 L105.798645,49.5047589 L105.536255,49.5073778 C105.321472,49.8677461 105.025818,50.2786647 104.811523,50.243036 C104.621399,50.2114268 104.39917,49.8600113 104.225952,49.5202894 L103.918152,49.5232128 L103.896606,49.5234564 C103.682678,49.8798051 103.392578,50.2781775 103.181458,50.243036 C102.994141,50.2119141 102.775757,49.8704868 102.603638,49.5355154 L102.459351,49.5368553 L102.09259,49.540205 C101.884827,49.8735929 101.621521,50.2130103 101.425964,50.1804877 C101.253174,50.151741 101.053955,49.858976 100.888977,49.5508023 L100.490784,49.5542129 L100.453552,49.5545174 C100.247192,49.8832766 99.9886475,50.2125231 99.7958984,50.1804877 C99.6256104,50.1521673 99.4296875,49.8675025 99.2661743,49.5643229 L98.9551392,49.5667591 C98.7401733,49.9278583 98.4434204,50.3413348 98.2285156,50.3055843 C98.0372314,50.2737924 97.8134766,49.9183573 97.6397705,49.5766864 C97.5023804,49.5776609 97.3653564,49.5786353 97.2289429,49.5795489 C97.0123901,49.9511845 96.697876,50.4055276 96.4730225,50.3681935 C96.2722168,50.3347572 96.0356445,49.9447896 95.8587646,49.5884409 C95.6585693,49.589598 95.4606934,49.5907552 95.265625,49.5918515 C95.0567627,49.9287109 94.789856,50.2759241 94.5921631,50.243036 C94.4164429,50.2138021 94.2133179,49.911536 94.046814,49.5976373 C93.8187866,49.5985509 93.5968018,49.5993427 93.381958,49.5999517 C93.199585,49.8622648 92.9957275,50.0818233 92.836731,50.055391 C92.6975098,50.0322476 92.5411377,49.8377205 92.399353,49.6019006 C92.262085,49.6019615 92.1292725,49.6019615 92.0013428,49.6019006 C91.8193359,49.8633002 91.6160889,50.0817624 91.4573975,50.055391 C91.3175659,50.0321258 91.1604004,49.8358934 91.0180664,49.5986118 C90.8816528,49.5976373 90.756958,49.5964802 90.6450806,49.5950794 C90.4736328,49.8309602 90.2880249,50.0172652 90.1408081,49.9927818 C89.9858398,49.9670195 89.8096313,49.7289462 89.6559448,49.4578629 C89.4216309,49.3417801 89.1551514,49.1626617 88.7938843,49.009732 C88.4653931,48.8706884 88.0779419,48.7312185 87.8904419,48.6572203 C87.5914307,48.5391276 87.1225586,47.9025601 87.1225586,47.9025601 C87.1225586,47.9025601 87.1850586,48.7477844 87.6782227,49.4180318 C87.9667969,49.810192 88.84375,50.4271484 89.1499634,50.4950563 C89.5628662,50.5866557 89.8531494,50.7700374 90.312439,50.923028 C90.4364014,50.7347131 90.5675659,50.5904318 90.6862793,50.5706989 C90.8673706,50.5406124 91.1066284,50.8295405 91.3060303,51.1372879 C91.4805298,51.1608577 91.6696167,51.1820523 91.8718872,51.2009325 C91.9888306,51.0299143 92.1110229,50.9020161 92.22229,50.8835013 C92.3656616,50.8596879 92.5455322,51.035822 92.7131958,51.2629935 C92.8725586,51.2720682 93.0371704,51.2802293 93.206665,51.2874769 C93.345459,51.059879 93.4973755,50.8747921 93.6329346,50.8522576 C93.7941284,50.8254599 94.0014038,51.0514134 94.1856689,51.3184161 C94.4912109,51.3251155 94.8075562,51.3295615 95.1326904,51.3320586 C95.2912598,51.0452621 95.4769287,50.7853852 95.6392212,50.7584047 C95.8218994,50.7280137 96.0637207,51.0223013 96.2641602,51.3329721 C96.5206909,51.3316322 96.7808838,51.3293179 97.0438843,51.32609 C97.2147827,50.9959299 97.4295044,50.6640037 97.6141357,50.6333081 C97.8157349,50.5997501 98.0893555,50.9615801 98.2999268,51.3045909 C98.4313965,51.3017284 98.5632324,51.2987441 98.6953735,51.2955771 C98.8493652,51.0235194 99.026123,50.784228 99.1815186,50.7584047 C99.3510742,50.7302062 99.5715942,50.9816784 99.7626953,51.2664651 C99.9595947,51.2605574 100.156494,51.2542843 100.352966,51.2477676 C100.500244,50.9959908 100.665405,50.7827054 100.811584,50.7584047 C100.970276,50.7320334 101.173584,50.9505565 101.355591,51.2120779 C101.487488,51.2070838 101.618896,51.2019678 101.749878,51.196791 C101.914429,50.8899572 102.112793,50.5993238 102.284912,50.5706989 C102.46814,50.540247 102.710876,50.8363617 102.911682,51.1481288 C103.099487,51.1397849 103.285583,51.1313802 103.469482,51.1229146 C103.628784,50.8085895 103.823181,50.5057145 103.991333,50.4764806 C104.169189,50.4454805 104.405762,50.7513399 104.599426,51.0684665 C104.800537,51.0583564 104.997925,51.0483073 105.191101,51.0381972 C105.35199,50.7440314 105.542236,50.4731918 105.708069,50.4456023 C105.882507,50.4166121 106.110901,50.6835538 106.305664,50.9782069 C107.374084,50.9187647 108.2453,50.8649257 108.803223,50.8291142 C108.846802,51.0271736 108.856628,51.1531838 108.856323,51.4891906 C108.856018,51.82739 108.866577,51.9558363 108.90741,52.1197896 C108.935608,52.2330708 108.958679,52.3690692 108.958984,52.4221774 C108.959351,52.4752856 108.969727,52.5187101 108.982483,52.5187101 C109.036011,52.5187101 109.053955,52.8429015 109.031372,53.4000504 C109.016357,53.7696762 109.013855,53.7826487 108.936035,53.8999496 C108.892029,53.9661521 108.856079,54.0490423 108.856079,54.0841839 C108.856079,54.1193254 108.821289,54.2215831 108.778687,54.3114772 C108.736145,54.4013714 108.701355,54.4905956 108.701355,54.5098412 C108.701355,54.529026 108.663635,54.5846921 108.617493,54.6334761 C108.520752,54.7358556 108.515442,54.7365864 107.852661,54.7417633 C107.627014,54.7435295 107.446655,54.7519342 107.451904,54.760339 C107.457092,54.7687437 107.226746,54.7840306 106.940063,54.7943233 C106.33606,54.8160051 106.063049,54.8305003 105.954407,54.8466398 C105.911865,54.8529129 105.621704,54.8601605 105.309631,54.8625966 C104.652771,54.8677125 104.080444,54.9044376 103.724609,54.9643061 C103.633057,54.9797148 103.528564,54.9904948 103.492432,54.9881804 C103.456238,54.985927 103.420898,54.986536 103.413818,54.9895203 C103.406738,54.9925655 103.290649,55.0105322 103.155884,55.0295951 C102.728577,55.0899509 99.0328979,55.2120632 98.6494751,55.1953755 C98.4871216,55.1883107 98.3404541,55.1903205 98.3235474,55.1998215 C98.2573853,55.2370338 96.4974976,55.2243658 96.088623,55.1837429 C95.9680786,55.1718057 91.9794312,55.2382518 85.9264526,55.3263798 L85.9190063,55.3220556 C84.8994751,54.7248929 83.3284912,53.6280137 82.1934814,53.2827495 C80.1550293,52.6627478 79.3380737,51.6855448 77.1760254,51.6798198 C75.2619629,51.6781754 73.7750244,51.2446006 73.8095093,51.5799983 C73.8579102,52.0501764 74.8956299,52.2251533 76.8323364,52.2285639 C78.9403687,52.2322791 79.9234009,53.1491872 81.8780518,53.7436702 C83.7196655,54.3038033 82.864502,54.8275769 85.7383423,55.9600848 C85.8474731,56.0583837 86.0100708,56.1347572 86.2791748,56.1832976 C87.1731567,56.3445102 87.4664917,56.9276042 87.5861816,57.100693 C87.6132812,57.1399152 87.6265869,57.1722551 87.6280518,57.1986874 C87.6434326,57.4812815 86.305542,57.091192 85.9970093,57.2014281 C85.7354736,57.2947938 85.1987915,57.2708585 84.7289429,57.1845577 C84.8063965,57.245218 84.9063721,57.3045993 85.036438,57.3637979 C85.8629761,57.7400013 86.0031128,58.3772387 86.076355,58.5744456 C86.2702026,59.0962093 84.868103,58.2472698 84.5113525,58.2810106 C84.1056519,58.3194409 82.8898926,57.6563193 82.3087158,57.1853495 C82.3532715,57.3103243 82.4439087,57.4466881 82.6098022,57.6098496 C83.2567139,58.2462954 83.1691895,58.8927902 83.170166,59.1030914 C83.1727905,59.6595703 82.1478271,58.3820502 81.8011475,58.291547 C81.5476685,58.2254053 80.8699341,57.6910345 80.2459106,57.1200605 C80.1121216,57.1484417 79.9876099,57.2190902 79.8660278,57.3631888 C79.4360352,57.872589 78.680481,57.7860446 78.4473267,57.7818422 C77.8303833,57.770575 78.8106689,56.9700542 78.7627563,56.6910534 C78.7498169,56.6155326 78.7832642,56.4943947 78.8491211,56.3468246 C78.2011719,56.1584488 77.4765625,55.9761635 76.6702881,55.9229944 C75.6269531,55.8542948 75.053772,56.1764764 73.5505981,56.2035786 C72.4767456,55.9987588 71.4317627,55.7548387 70.2614746,55.7118406 C68.1549072,55.6344926 67.9542236,54.3545363 68.2582397,52.3381909 C68.5384521,50.4798303 73.8325806,49.7333312 70.9144897,48.4784673 C69.8702393,48.0294838 69.5823364,48.3798639 70.7826538,49.1405536 C71.7805786,49.7729797 68.3310547,49.9826109 67.6745605,52.1922652 C67.2630005,53.5777071 67.4401855,54.9156439 68.2739868,55.6563571 C67.5997925,55.6034925 66.7925415,55.5759031 65.7396851,55.5956359 C65.5753174,55.598742 65.4101562,55.6005691 65.2446289,55.6012391 C65.1028442,55.5907027 64.9259033,55.5932607 64.7271118,55.5997165 C64.5619507,55.598133 64.3966675,55.5954532 64.2316284,55.591799 L63.8588257,55.5952705 L63.237854,55.6008737 C62.8571777,55.566402 62.496521,55.4874706 62.2156372,55.3229692 C61.2581787,54.7621661 59.7828979,53.7320376 58.71698,53.4078461 C56.8027344,52.8256048 56.0355225,51.9079049 54.005127,51.9025454 C52.2076416,51.9009619 50.8112183,51.4938193 50.843689,51.8087534 C50.8891602,52.2503066 51.8636475,52.4146862 53.682373,52.4178532 C55.6619873,52.4213248 56.585144,53.2823841 58.4207764,53.8406901 C60.1645508,54.3710412 59.3336792,54.8667381 62.1137695,55.9486349 C62.5571899,56.1212366 63.2717285,56.175441 63.937439,56.1596669 C64.0177002,56.2468204 64.0768433,56.3221585 64.1186523,56.3688109 C64.5669556,56.8691364 62.7893066,56.6074933 62.4620361,56.8275391 C62.0854492,57.0808384 61.003418,57.1413768 60.4440308,56.996791 C60.4244995,57.0064747 60.4046021,57.0160975 60.3843384,57.0255985 C60.5303955,57.2355952 60.7346802,57.3879158 61.1847534,57.4441301 C62.1876831,57.5693485 62.6170654,58.2664546 62.7800903,58.4706653 C63.2113647,59.0110656 61.4147949,58.5502058 61.0706177,58.7273143 C60.7744751,58.8797568 59.8295288,58.7373026 59.0411377,58.5154297 C59.3005371,59.0893271 59.2486572,59.5903835 59.2494507,59.7875294 C59.2521973,60.4898732 58.1464844,58.8774425 57.7724609,58.7633086 C57.5582886,58.6978978 57.0633545,58.269987 56.5354004,57.7413411 C56.2094727,57.6359165 55.9664307,57.4664819 55.7424316,57.3519825 C55.6271362,57.3152575 55.5089722,57.2753654 55.3878174,57.2335244 C55.2359619,57.2191511 55.0769043,57.2605049 54.8903198,57.3956506 C54.2478027,57.8609564 53.5081177,57.5022933 53.2709351,57.4184896 C52.8646851,57.275 53.2753296,56.9609795 53.6321411,56.6622459 C53.1947632,56.5477466 52.7300415,56.4573652 52.2371216,56.4193611 C50.7285767,56.3030956 50.1311035,57.0729209 46.8087769,56.6451319 C45.5917969,56.4884262 44.7370605,56.2451151 43.4128418,56.1058279 C42.2975464,55.8387643 41.2190552,55.5992902 40.4250488,55.5701172 C38.4467773,55.4975197 38.2583008,54.2955204 38.5438232,52.4019573 C38.8069458,50.6567561 43.7786255,49.9557523 41.038208,48.7773227 C40.0576172,48.3556242 39.7872314,48.6846879 40.9144287,49.3990906 C41.8516235,49.9929645 38.6121826,50.1898059 37.9956665,52.2649236 C37.480835,53.9977613 37.9469604,55.6516066 39.5444336,56.0064327 C38.152771,55.9782342 36.7624512,55.8232338 35.5245972,55.6252961 C29.2337036,55.5406397 24.7172852,55.3593897 23.6361694,55.0294733 C23.4915161,54.985318 22.5148926,54.655097 22.413147,54.655097 C22.3660889,54.655097 22.2980957,54.6318926 22.2620239,54.6035723 C22.2259521,54.5753129 22.1777954,54.5521085 22.1550293,54.5521085 C22.1322632,54.5521085 22.0934448,54.5421203 22.0687866,54.5299395 C21.8369141,54.4150748 21.7334595,54.3712849 21.6951904,54.3715894 C21.6703491,54.3718939 21.6500854,54.3606267 21.6500854,54.3467406 C21.6500854,54.3328545 21.6181641,54.3139134 21.5791016,54.3047169 C21.5401001,54.2955204 21.4820557,54.2643985 21.4501953,54.2355301 C21.418335,54.2066616 21.3848877,54.1904003 21.3759155,54.1993532 C21.3668823,54.2083669 21.3352661,54.1987441 21.305603,54.1780368 C21.2759399,54.1572686 21.2266235,54.1403373 21.1960449,54.1403373 C21.1654663,54.1403373 21.1260376,54.1229188 21.1083374,54.1016633 C21.0906982,54.0804687 21.0501099,54.0631111 21.0181274,54.0631111 C20.986145,54.0631111 20.9454956,54.0456926 20.9277954,54.0244981 C20.9101562,54.0032426 20.8753052,53.985885 20.8504028,53.985885 C20.8255615,53.985885 20.7919922,53.9699891 20.7758789,53.9505607 C20.7597046,53.9311324 20.7058105,53.9087198 20.6561279,53.9006804 C20.5109863,53.8771715 19.8392334,53.5333081 19.7410889,53.4322686 C19.6931152,53.3828755 19.6346436,53.3424962 19.611084,53.3424962 C19.5875854,53.3424962 19.5370483,53.313506 19.4987793,53.2781208 C19.4605103,53.2427356 19.4124146,53.2138063 19.3918457,53.2138063 C19.3712769,53.2138063 19.3544312,53.1976668 19.3544312,53.1779339 C19.3544312,53.1582619 19.3254395,53.1349357 19.289978,53.1260438 C19.2545166,53.1171518 19.2254639,53.0984543 19.2254639,53.0845682 C19.2254639,53.0706821 19.2109985,53.0591104 19.1932373,53.0591104 C19.1636353,53.0588059 19.0083008,52.9354146 18.7494507,52.706355 C18.6932983,52.6566574 18.6208496,52.5986769 18.5884399,52.5774824 C18.5560303,52.5562878 18.5359497,52.5286374 18.5437622,52.5160303 C18.5515137,52.5034232 18.5452271,52.4931305 18.5297852,52.4931305 C18.5143433,52.4931305 18.4346313,52.4236391 18.3526001,52.3387391 C18.2706299,52.2537781 18.1896973,52.1842868 18.1728516,52.1842868 C18.1559448,52.1842868 18.1422119,52.1755775 18.1422119,52.1649803 C18.1421509,52.154383 18.1133423,52.1108976 18.078186,52.0684476 C18.0430298,52.0259976 18.0053101,51.9796497 17.9943848,51.96552 C17.9834595,51.9513294 17.9102173,51.8644804 17.831665,51.7725155 C17.6168213,51.5209215 17.4776001,51.329866 17.4352417,51.2286437 C17.4143066,51.1787025 17.3790894,51.1228537 17.3569946,51.1045216 C17.3348999,51.0862504 17.3168335,51.0552503 17.3168335,51.0357611 C17.3168335,51.0162718 17.3052368,51.0003759 17.2910156,51.0003759 C17.2768555,51.0003759 17.2652588,50.9847845 17.2652588,50.9657825 C17.2652588,50.9467805 17.2362061,50.8802125 17.2007446,50.817786 C17.1088257,50.6559035 17.059021,50.5445712 17.059021,50.5008422 C17.059021,50.4799521 17.0474243,50.4557733 17.0332642,50.4470031 C17.019043,50.4382329 17.0073853,50.4114961 17.0070801,50.3875609 C17.0067139,50.3636257 16.9900513,50.3150853 16.9697266,50.2797001 C16.8833618,50.1292675 16.7495117,49.8340054 16.7495117,49.7938088 C16.7495117,49.7491053 16.6445923,49.427411 16.5900269,49.3048723 C16.5625,49.242994 16.5357666,49.1594338 16.5306396,49.1190545 C16.5255127,49.0787361 16.5123901,49.0313529 16.5015259,49.0137517 C16.4778442,48.9755649 16.4567871,48.8363386 16.4545288,48.7032636 C16.4536133,48.6502163 16.4450073,48.6067309 16.4353638,48.6067309 C16.4257202,48.6067309 16.4047852,48.540163 16.3887939,48.4587345 C16.3728027,48.3773669 16.3377686,48.2181641 16.3109131,48.1048828 C16.2840576,47.9916625 16.2591553,47.8497564 16.2556763,47.7895833 C16.2521973,47.7294103 16.2412109,47.6801999 16.2313232,47.6801999 C16.2213745,47.6801999 16.2070923,47.6367755 16.1994629,47.5836673 C16.1740112,47.4061933 16.1624146,47.3587492 16.119751,47.2567351 C16.0963745,47.2009472 16.0829468,47.1406523 16.0898437,47.1226247 C16.0968018,47.1046581 16.0930786,47.0840726 16.081604,47.0770077 C16.0560913,47.0612945 15.9885864,46.4095619 16.0001221,46.290373 C16.0021362,46.2691784 16.0023804,46.164911 16.0007324,46.0587555 C15.9990845,45.9526 15.9976807,45.8541184 15.9973755,45.8399887 C15.9970703,45.8257981 16.0042114,45.7469884 16.0130005,45.6647681 C16.0217285,45.5825479 16.0172729,45.4732863 16.0030518,45.4219443 C15.9888306,45.3706023 15.9869995,45.316276 15.9989624,45.3011719 C16.0109253,45.2861286 16.0158081,45.2505607 16.0097656,45.2222404 C16.0037842,45.193981 15.9942627,45.1071321 15.9886475,45.0292969 C15.9830322,44.9514008 15.9675903,44.7834278 15.9544067,44.6560778 C15.9264526,44.3864562 15.93927,44.056418 15.9795532,44.0079994 C15.9949341,43.9894237 16.0009155,43.9488008 15.9927368,43.917618 C15.9845581,43.8864352 15.9875488,43.8486748 15.9993286,43.8338143 C16.0111694,43.8188928 16.0339355,43.6850869 16.0499878,43.5364205 C16.0849609,43.2121682 16.0828857,43.2233136 16.1409302,43.0522345 C16.1664429,42.9769573 16.1821289,42.9102676 16.1758423,42.9039945 C16.1695557,42.8977214 16.1807861,42.8145266 16.2008667,42.7190902 C16.2208862,42.6236538 16.2467651,42.4818695 16.2583618,42.4040344 C16.2774658,42.2757098 16.3244629,42.083619 16.425293,41.7219716 C16.4627686,41.5875567 16.5527344,41.3735404 16.5855713,41.3407741 C16.5960693,41.3302986 16.6082764,41.2982632 16.6126099,41.2695775 C16.6170044,41.2409526 16.6585083,41.1573316 16.7047729,41.0836988 C16.7510986,41.0101268 16.8231201,40.8804015 16.8648071,40.7954406 C16.9065552,40.7105406 16.9483643,40.6352025 16.9577026,40.6281376 C16.967041,40.6210727 16.9828491,40.5862966 16.9928589,40.5509115 C17.0028076,40.5155263 17.0725708,40.359186 17.1478271,40.2035156 C17.4916992,39.4922799 17.5687256,39.3428217 17.638855,39.2511614 C17.887085,38.9267263 17.9945679,38.798889 18.0384521,38.775441 C18.0671997,38.7600932 18.0906982,38.7322602 18.0906982,38.7137454 C18.0906982,38.6951697 18.1400146,38.634753 18.2003174,38.5795132 C18.2606201,38.5242734 18.3290405,38.4500924 18.352356,38.4147072 C18.3756714,38.3793221 18.4284668,38.3156166 18.4696655,38.2731666 C18.5108643,38.2306557 18.5974121,38.1257791 18.6619263,38.0399656 C18.8028564,37.8526252 18.8513184,37.7934875 18.9612427,37.6746031 C19.0073242,37.6247228 19.0450439,37.56187 19.0450439,37.5348895 C19.0450439,37.5071174 19.0601807,37.4891507 19.0800171,37.4934749 C19.1090088,37.499748 19.2860718,37.3559539 19.5383301,37.121413 C19.5649414,37.0966251 19.5966187,37.076405 19.6086426,37.076405 C19.6207275,37.076405 19.6651001,37.0445523 19.7072144,37.0055738 C19.8391113,36.8836442 19.9215698,36.8190251 19.9452515,36.8190251 C19.9578247,36.8190251 19.9747925,36.8016066 19.9829712,36.7803511 C19.9910889,36.7591566 20.015564,36.741799 20.0372925,36.741799 C20.059021,36.741799 20.0767822,36.7319325 20.0767822,36.7198736 C20.0767822,36.7078146 20.1418457,36.6470325 20.2213745,36.5847887 C20.3009033,36.522484 20.3813477,36.4570733 20.4000854,36.4393502 C20.4188843,36.4216881 20.4424438,36.4072539 20.4524536,36.4072539 C20.4624634,36.4072539 20.4975586,36.3782636 20.5303955,36.3428784 C20.5632935,36.3074324 20.6004639,36.2785639 20.6129761,36.2785639 C20.6255493,36.2785639 20.6834717,36.2292927 20.7416992,36.1691196 C20.7999268,36.1089466 20.9029541,36.0192351 20.9706421,35.9696594 C21.0846558,35.8862819 21.2981567,35.7107569 21.3943481,35.6215327 C21.4168091,35.6006426 21.4435425,35.5835895 21.4537964,35.5835895 C21.4639893,35.5835895 21.5095215,35.5488743 21.5548706,35.5064852 C21.6001587,35.4640961 21.6461792,35.4292591 21.6571045,35.4292591 C21.6680298,35.4292591 21.7260742,35.3977109 21.7860718,35.3592196 C21.8460693,35.3207892 21.935791,35.2674374 21.9854126,35.2407006 C22.0350952,35.2139638 22.1027832,35.1672505 22.1358643,35.1368595 C22.1688843,35.1065293 22.197876,35.0858829 22.2003174,35.0909379 C22.2060547,35.1029969 22.4586182,34.9840516 22.4760742,34.9610299 C22.4834595,34.9512853 22.5182495,34.9313088 22.5534668,34.9165092 C22.6281128,34.8850827 22.7346191,34.8194283 23.0558472,34.6068737 C23.1126099,34.5693569 23.208313,34.5171623 23.2686157,34.4909736 C23.3289185,34.4647849 23.3782959,34.4335412 23.3782959,34.4215432 C23.3782959,34.4094842 23.3956909,34.3996787 23.4169312,34.3996787 C23.4382324,34.3996787 23.4556274,34.389995 23.4556274,34.3781796 C23.4556274,34.3663642 23.5593872,34.2953503 23.6861572,34.2204385 C23.9992676,34.0354734 24.0301514,34.017994 24.074707,33.9998446 C24.0960083,33.9911962 24.1307983,33.9730469 24.1520996,33.9595262 C24.1733398,33.9459446 24.2110596,33.9280998 24.2359009,33.9198169 C24.2607422,33.911473 24.2810669,33.895029 24.2810669,33.8832745 C24.2810669,33.8714592 24.359314,33.8251722 24.4550781,33.7804078 C24.5508423,33.7357044 24.7684937,33.6327159 24.9387207,33.5515919 C25.1089478,33.4704679 25.2888794,33.3884304 25.338562,33.3692456 C25.3881836,33.3501218 25.4346313,33.327831 25.4417114,33.3196699 C25.4487915,33.3114478 25.6170654,33.2247816 25.8156738,33.1270917 C26.0142822,33.029341 26.258606,32.9021736 26.3585815,32.8444976 C26.4585571,32.7868217 26.5805054,32.7202537 26.6294556,32.696623 C26.6784058,32.6729314 26.8384399,32.5947308 26.9851685,32.5228642 C27.1318359,32.4509976 27.262085,32.3921644 27.2745972,32.3921644 C27.2870483,32.3921644 27.3607178,32.363235 27.4382935,32.3278499 C27.5158081,32.2924647 27.5951538,32.2634745 27.614624,32.2634745 C27.6340942,32.2634745 27.6725464,32.2464214 27.7000732,32.2256531 C27.7276001,32.2048849 27.7755737,32.1875273 27.8067017,32.187101 C27.8377686,32.1866137 27.8708496,32.1738239 27.880249,32.1587198 C27.8895874,32.1436156 27.9126587,32.1371598 27.9314575,32.1443464 C27.9502563,32.151594 27.9793701,32.1408749 27.9962158,32.1206548 C28.0130615,32.1004347 28.0363159,32.0897765 28.0479126,32.0969023 C28.0595093,32.1040281 28.0758667,32.0988512 28.0842285,32.0853306 C28.0925903,32.0718708 28.1195068,32.062248 28.144043,32.0638924 C28.1685791,32.0655977 28.2660522,32.0358766 28.3607178,31.9978726 C28.4553223,31.9599294 28.5511475,31.9288684 28.5735474,31.9288684 C28.5959473,31.9288684 28.6141968,31.9166268 28.6141968,31.9015835 C28.6141968,31.8866011 28.6258545,31.8814852 28.6400146,31.8902554 C28.6541748,31.8989646 28.6658325,31.8880019 28.6658325,31.8657111 C28.6658325,31.8350155 28.6842041,31.8284379 28.7415771,31.8384871 C28.7832642,31.8458564 28.8247681,31.8400706 28.8336792,31.8256363 C28.8426514,31.8111412 28.8599854,31.8055381 28.8722534,31.8130901 C28.8845215,31.8206422 28.9678955,31.794149 29.0574951,31.7541961 C29.1470947,31.7141822 29.2841797,31.666799 29.3621826,31.6489541 C29.4402466,31.6310484 29.5273437,31.6060169 29.5556641,31.593288 C29.6181641,31.5652113 30.017334,31.4569241 30.2133789,31.4149005 C30.2913818,31.3981519 30.3900757,31.3743994 30.4326172,31.3621577 C30.5901489,31.3168452 30.9920044,31.2289609 31.1991577,31.1945502 C31.3166504,31.1750609 31.4940186,31.1412592 31.5933228,31.1195165 C31.692627,31.0977739 31.8725586,31.0686009 31.993103,31.0547148 C32.1137085,31.0407678 32.241394,31.0247501 32.2768555,31.0190251 C32.3123169,31.0133611 32.4515991,31.0010585 32.5863647,30.9917402 C32.7211304,30.982361 32.8662109,30.9691448 32.9087524,30.9623845 C32.9512939,30.9555633 33.0848389,30.944966 33.2053833,30.9388756 C33.3259888,30.9327243 33.5233154,30.9184728 33.6438599,30.9071447 C33.7547607,30.8967301 34.1228638,30.8915533 34.522644,30.8918578 L34.5227051,30.8918578 C34.9224854,30.8921014 35.3538818,30.8976436 35.5913086,30.9083018 C36.0682983,30.9296791 36.4083252,30.9754179 37.2807007,31.135717 C38.0435791,31.2759178 38.9645996,31.3984564 39.4473267,31.4240969 C39.574707,31.4308573 39.7303467,31.4581422 39.8188477,31.4892641 C39.9026489,31.5186807 40.0134888,31.5427986 40.0651855,31.5427986 C40.1168823,31.5427986 40.170166,31.5532741 40.1836548,31.5660639 C40.1971436,31.5788537 40.260437,31.5947497 40.3242798,31.6013273 C40.4467773,31.6140562 40.9104004,31.6962765 41.2141113,31.7591293 C41.4714355,31.8124202 41.776062,31.8638231 41.8138428,31.8603516 C41.831543,31.8587681 41.8460693,31.8688781 41.8460693,31.8830078 C41.8460693,31.8970766 41.8634033,31.9020098 41.8847046,31.8938487 C41.9060059,31.8856876 41.9234009,31.8912298 41.9234009,31.9061513 C41.9234009,31.9210118 41.9379272,31.9280158 41.9556274,31.9216818 C41.9733887,31.9154087 42.0198364,31.9263105 42.0588379,31.9459824 C42.1085815,31.9710748 42.1297607,31.972902 42.1297607,31.9521337 C42.1297607,31.9306347 42.1399536,31.9310001 42.1673584,31.9536563 C42.1879883,31.9707703 42.21698,31.977348 42.2318115,31.9682124 C42.246582,31.9590768 42.258728,31.9623656 42.258728,31.9754599 C42.258728,31.9885543 42.3139038,32.0115759 42.3812866,32.0265583 C42.4486694,32.0415407 42.5498047,32.0655977 42.6060791,32.079971 C42.677124,32.0981813 42.7184448,32.097755 42.7414551,32.078692 C42.7661133,32.0582892 42.7745972,32.0618217 42.7745972,32.0925172 C42.7745972,32.1166961 42.8039551,32.1400832 42.84552,32.1489751 C42.8845215,32.1572581 42.9431152,32.1748593 42.975708,32.1880145 C43.0083008,32.2012307 43.0635376,32.2120107 43.0985718,32.2120107 C43.1335449,32.2120107 43.182312,32.2232779 43.2069702,32.2370422 C43.2484131,32.2601857 43.81427,32.4064768 43.9610596,32.4319955 C44.0845947,32.4534946 44.5932617,32.5739625 44.6316528,32.5908938 C44.6529541,32.6002121 44.7052002,32.6108094 44.7477417,32.6144636 C44.9056396,32.6278016 45.1897583,32.6792045 45.3022461,32.7147114 C45.3660889,32.7348706 45.460083,32.755578 45.5111084,32.7608157 C45.5620728,32.7659925 45.6172485,32.7784778 45.633667,32.7886488 C45.6501465,32.7987588 45.7186279,32.8176999 45.7859497,32.8306116 C45.8533325,32.8435841 46.0128784,32.8790302 46.140564,32.9092994 C46.2682495,32.9396295 46.4249268,32.9694115 46.4887695,32.9755628 C46.5525513,32.981775 46.6280518,32.9967574 46.6564331,33.0089991 C46.7384033,33.0443842 47.0936279,33.0908539 47.1416016,33.0725218 C47.1655884,33.0633254 47.2055054,33.0642998 47.2302856,33.0747144 C47.255127,33.0851289 47.3566895,33.0977361 47.4559937,33.1027911 C47.7902832,33.1197833 47.9711304,33.1360446 48.1137695,33.1619897 C48.1917725,33.1761194 48.2846069,33.1868994 48.3200684,33.1858031 C48.3555298,33.1847068 48.512207,33.1854377 48.6682739,33.1876911 C48.8242798,33.1898837 48.9810181,33.1840978 49.0164795,33.1749013 C49.083252,33.1575437 49.1077881,33.1548639 49.4622192,33.1271526 C49.8248291,33.0987714 50.1598511,33.0597929 50.267395,33.0334215 C50.4016724,33.0004725 50.5379639,32.9896316 51.2218018,32.9575962 C52.0822754,32.9172778 52.1583252,32.9072287 52.2753296,32.8181263 C52.3517456,32.759963 52.4088745,32.7401084 52.5235596,32.7318254 C52.6161499,32.725126 52.6791992,32.7317645 52.6901855,32.7496094 C52.6999512,32.7653226 52.741333,32.7782342 52.7822266,32.7782342 C52.8231201,32.7782342 52.862793,32.7883443 52.8704224,32.8006468 C52.8780518,32.8129494 52.9165039,32.8297589 52.9558105,32.83792 C52.9951172,32.8461421 53.0592041,32.8828062 53.0982666,32.9194703 C53.1838379,32.9999853 53.1897583,33.0943863 53.1188965,33.2482296 C53.0634155,33.3685757 53.0036621,33.6654213 53.0241089,33.7185904 C53.03125,33.737227 53.0203857,33.766339 53,33.7832094 C52.9795532,33.8001407 52.9627686,33.8477676 52.9627686,33.8889995 C52.9627686,33.9302314 52.9437256,33.9930234 52.9204102,34.0285303 C52.8835449,34.0846837 52.8615112,34.0922967 52.7507935,34.0872417 C52.6807861,34.0840747 52.6156616,34.0935148 52.6061401,34.1083144 C52.5966187,34.1230532 52.5521851,34.1538705 52.5074463,34.1767095 C52.4626465,34.1996094 52.4090576,34.2352382 52.3884277,34.2558237 C52.3381348,34.3060085 51.6090698,34.6987777 51.3840942,34.7968939 C51.3314819,34.8198547 51.2814941,34.8498803 51.2729492,34.8636446 C51.2644043,34.8774089 51.2232666,34.888737 51.1815796,34.888737 C51.1398315,34.888737 51.1057129,34.8980553 51.1057129,34.9095052 C51.1057129,34.9541478 50.6305542,35.1158476 50.5534058,35.0974546 C50.5404663,35.0943485 50.4967041,35.105494 50.4561768,35.1223034 C50.4156494,35.139052 50.2811279,35.1553133 50.1572876,35.1584803 C50.0334473,35.1616473 49.8972778,35.1714529 49.8547363,35.1802839 C49.668396,35.2190188 49.456543,35.2283371 48.9003906,35.2222467 C48.2848511,35.2154255 47.7843628,35.2157909 47.7397461,35.2230994 C47.7122192,35.2276063 47.2070923,35.2304687 47.0561523,35.2269972 C47.0065308,35.2258401 46.9206543,35.2017221 46.8653564,35.1734018 C46.8100586,35.1451424 46.7529297,35.1293074 46.7383423,35.1383212 C46.7236938,35.1473349 46.5774536,35.1519027 46.413269,35.1484921 C46.1625977,35.1432544 46.1064453,35.1345451 46.0629272,35.094044 C46.0284424,35.0618868 45.9594727,35.0418494 45.8565674,35.0340537 C45.1432495,34.979971 45.0019531,34.9615171 44.9025269,34.9093834 C44.8457642,34.8796014 44.758667,34.851342 44.7090454,34.8465306 C44.6593628,34.8417192 44.560791,34.8322791 44.4898071,34.8255796 C44.4188843,34.8188193 44.2804565,34.801888 44.1821899,34.787941 C44.0839233,34.773994 43.9920044,34.7697308 43.9779053,34.7783791 C43.963562,34.7872711 43.9586182,34.7777092 43.9667358,34.7565755 C43.9777832,34.7278898 43.9590454,34.7191196 43.8873291,34.7194241 C43.8356934,34.7197287 43.7528076,34.7121766 43.703125,34.7029192 C43.5731812,34.6786794 43.3198853,34.6705792 43.300415,34.6899467 C43.2913208,34.6990213 43.253479,34.6911038 43.2162476,34.6722845 C43.1525879,34.6400664 43.0643921,34.6329406 42.5961304,34.6224651 C42.4761963,34.6197245 42.401001,34.6069346 42.3947144,34.5879935 C42.3883057,34.5688697 42.352417,34.5630229 42.2965698,34.5720367 C42.2410278,34.5810505 42.1751709,34.570575 42.1182861,34.5436555 C42.0336304,34.5035807 41.7115479,34.4717889 41.4400024,34.4768439 C41.3798218,34.4779402 41.3076782,34.466673 41.2796631,34.4516906 C41.2116699,34.415331 40.1953125,34.3883506 40.1953125,34.4228222 C40.1953125,34.4369519 40.2243042,34.4797064 40.2597656,34.5178931 C40.2952271,34.5560799 40.3242798,34.6069346 40.3242798,34.6309308 C40.3242798,34.654866 40.2952271,34.6877541 40.2597656,34.7038327 C40.2243042,34.7199723 40.1953125,34.7436639 40.1953125,34.7565146 C40.1953125,34.7693653 40.1575317,34.7855049 40.1114502,34.7924479 C40.0081787,34.8079175 39.7828979,34.7022492 39.7637939,34.6293473 C39.7566528,34.6021232 39.7428589,34.5798324 39.7331543,34.5798324 C39.7234497,34.5798324 39.6618042,34.5277596 39.5961304,34.464115 C39.5093384,34.3798849 39.4639893,34.3530872 39.4298096,34.3656943 C39.3580322,34.3921875 39.3449707,34.4258065 39.3445435,34.5850701 C39.3441162,34.7256972 39.3405762,34.7333711 39.2602539,34.7691826 C39.2141724,34.7897681 39.1218872,34.8131552 39.0551147,34.8212555 C38.9349365,34.8357506 38.9320679,34.8343498 38.7842407,34.6875714 C38.7020264,34.6060211 38.6057739,34.4963941 38.5703125,34.4439558 C38.5228882,34.3737336 38.4875488,34.3483367 38.4366455,34.3483367 C38.3388062,34.3480322 38.3161011,34.434333 38.3882446,34.5317183 C38.456665,34.6241095 38.4406128,34.7856876 38.3629761,34.7856876 C38.3371582,34.7856876 38.2974854,34.8043242 38.2746582,34.8271022 C38.2356567,34.8660198 38.1790161,34.8669943 38.0214233,34.8314873 C37.9368896,34.8124244 37.7201538,34.6703965 37.7196655,34.6337324 C37.7193604,34.6138777 37.6895752,34.5588206 37.6533813,34.5114982 C37.5977173,34.4387181 37.5713501,34.4253801 37.4824829,34.4253801 C37.3815918,34.4253801 37.3779907,34.4282426 37.3916626,34.4961505 C37.3995361,34.5351289 37.4202271,34.6016969 37.4377441,34.6442078 C37.4552002,34.6866578 37.4660645,34.7330057 37.461731,34.7471354 C37.4573975,34.7612651 37.4552002,34.7964676 37.4568481,34.8252751 C37.4614868,34.9084698 37.2655029,35.0038453 37.1365356,34.9811891 C36.9767456,34.9530515 36.8257446,34.8625483 36.7803955,34.76766 C36.7581177,34.7209467 36.729187,34.68276 36.7161865,34.68276 C36.703125,34.68276 36.6803589,34.6479839 36.6655273,34.6055339 C36.6428833,34.5407321 36.6248779,34.5285513 36.5534058,34.5285513 C36.4475708,34.5288558 35.8891602,34.6214907 35.8682251,34.6423198 C35.8598022,34.6507245 35.8781128,34.7024929 35.9089966,34.7573064 C35.9797974,34.883012 35.9741211,34.9895329 35.8949585,35.0195586 C35.8626709,35.0318002 35.8363037,35.0527512 35.8363037,35.06615 C35.8363037,35.0998908 35.6869507,35.1330225 35.5791016,35.1231561 C35.5077515,35.1166394 35.4574585,35.0814978 35.3317261,34.9503717 C35.159729,34.7709488 35.0708008,34.7351983 35.0983276,34.8565188 C35.1484985,35.0772345 35.1477051,35.0877709 35.0734253,35.1849126 C35.0053711,35.274015 34.9946899,35.2787046 34.8963623,35.2629914 C34.8388062,35.2538558 34.7806396,35.235402 34.7672119,35.2219422 C34.7537231,35.2085433 34.7246704,35.1973979 34.7026978,35.1973979 C34.6806641,35.1973979 34.6347046,35.156166 34.6005249,35.1060421 C34.4790649,34.9281418 34.3233643,34.878566 34.1600952,34.9657195 C34.1293335,34.9821636 34.0874023,34.9891675 34.0668945,34.9813109 C34.0463867,34.9734543 34.0066528,34.9899593 33.9786377,35.0179751 C33.9509888,35.0455645 33.9225464,35.0681599 33.9146729,35.0688298 L33.8865967,35.0688298 L33.8865967,35.0688298 Z M105.52478,43.6437941 C105.54718,43.9947224 105.287659,43.4946405 105.344849,43.2504767 C105.370789,43.1395707 105.380188,42.835234 105.463989,42.7364478 C105.59375,42.5835181 105.896057,42.6590999 105.788757,42.7158014 C105.712952,42.7558153 105.654114,42.8186072 105.626831,42.9261635 C105.580505,43.1086316 105.511963,43.443603 105.52478,43.6437941 L105.52478,43.6437941 Z M88.2526245,42.4666436 C88.5278931,42.4798597 88.737915,42.7051432 88.9815063,42.8593519 C89.1019897,42.9387706 89.1234741,42.9613659 89.1832886,43.0209299 C89.3250732,43.1621661 89.4351807,43.3437206 89.4575806,43.5412928 C89.4675293,43.6291772 89.3860474,43.6911164 89.2836914,43.5396484 C89.1339111,43.3221606 88.9299316,43.1538222 88.7064209,42.9884073 C88.6005859,42.9117902 88.480835,42.8426033 88.3496094,42.8393145 C88.3496094,42.8393145 88.3953857,42.9406586 88.4067993,43.0165449 C88.4399414,43.2361034 88.3482056,43.4585244 88.2025757,43.6232086 C88.2025757,43.6232086 88.0348511,43.7210202 88.0939941,43.4880019 C88.1403809,43.2973727 88.1486206,43.0909694 88.0557861,42.9228747 C88.0557861,42.9228747 87.7902222,42.9937668 87.6035767,43.0732464 C87.2927856,43.2055906 87.0596313,43.459438 86.8067017,43.6898984 C86.7443237,43.744651 86.5432129,43.8144468 86.663147,43.5489058 C86.8770752,43.0753171 87.3410645,42.7782888 87.8342896,42.5779759 C87.8342896,42.5779759 88.0681763,42.4639029 88.2526245,42.4666436 L88.2526245,42.4666436 Z M49.6289443,41.2077703 C49.6235693,41.2071759 49.6178193,41.2083647 49.6118193,41.211931 C49.5875693,41.2261965 49.5676943,41.259126 49.5676943,41.2851605 C49.5676943,41.311195 49.5875693,41.3323555 49.6118193,41.3323555 C49.6360693,41.3323555 49.6556943,41.299426 49.6556943,41.2592449 C49.6556943,41.2290496 49.6446943,41.2095535 49.6289443,41.2077703 L49.6289443,41.2077703 Z" id="Alligator"></path>
            <path d="M104.831238,80.9565062 C96.6036377,95.8106015 80.7438354,105.879173 62.5459595,105.879173 C44.3480225,105.879173 28.4882202,95.8106015 20.2609253,80.9565062 L104.831238,80.9565062 L104.831238,80.9565062 Z M62.4849243,85.7054877 L65.2155151,90.481754 L70.6115723,91.5972089 L66.9031372,95.664493 L67.5074463,101.130192 L62.4849243,98.8676117 L57.4623413,101.130192 L58.0667114,95.664493 L54.3582153,91.5972089 L59.7542725,90.481754 L62.4849243,85.7054877 L62.4849243,85.7054877 Z M82.2603149,85.7054877 L83.8011475,88.4006678 L86.8460693,89.0301096 L84.753418,91.3252121 L85.0944824,94.4094464 L82.2603149,93.132718 L79.4261475,94.4094464 L79.7671509,91.3252121 L77.6744995,89.0301096 L80.7194214,88.4006678 L82.2603149,85.7054877 L82.2603149,85.7054877 Z M42.7095337,85.7054877 L44.2503662,88.4006678 L47.2952881,89.0301096 L45.2026367,91.3252121 L45.5437012,94.4094464 L42.7095337,93.132718 L39.8753662,94.4094464 L40.2163696,91.3252121 L38.1237183,89.0301096 L41.1686401,88.4006678 L42.7095337,85.7054877 Z" id="Shape"></path>
            <polygon id="Path" points="62.4847412 12.1943002 65.215332 16.9705666 70.6113892 18.0860215 66.9029541 22.1533056 67.5072632 27.6190041 62.4847412 25.3564243 57.4621582 27.6190041 58.0665283 22.1533056 54.3580322 18.0860215 59.7540894 16.9705666 62.4847412 12.1943002"></polygon>
            <polygon id="Path" points="82.2601318 18.1841986 83.8009644 20.8793788 86.8458862 21.5088206 84.7532349 23.8039231 85.0942993 26.8881573 82.2601318 25.6114289 79.4259644 26.8881573 79.7669678 23.8039231 77.6743164 21.5088206 80.7192383 20.8793788 82.2601318 18.1841986"></polygon>
            <polygon id="Path" points="42.7093506 18.1841986 44.2501831 20.8793788 47.295105 21.5088206 45.2024536 23.8039231 45.5435181 26.8881573 42.7093506 25.6114289 39.8751831 26.8881573 40.2161865 23.8039231 38.1235352 21.5088206 41.168457 20.8793788"></polygon>
        </g>
    </g>
</svg>