<?xml version="1.0" encoding="UTF-8" standalone="no"?><!DOCTYPE svg PUBLIC "-//W3C//DTD SVG 1.1//EN" "http://www.w3.org/Graphics/SVG/1.1/DTD/svg11.dtd"><svg width="100%" height="100%" viewBox="0 0 2048 1895" version="1.1" xmlns="http://www.w3.org/2000/svg" xmlns:xlink="http://www.w3.org/1999/xlink" xml:space="preserve" xmlns:serif="http://www.serif.com/" style="fill-rule:evenodd;clip-rule:evenodd;stroke-linejoin:round;stroke-miterlimit:1.41421;"><path d="M1903.74,1301.39c-7.721,19.191 -16.078,38.124 -25.062,56.755c-59.815,124.045 -147.415,234.736 -252.437,321.181c-143.191,117.86 -320.867,191.997 -504.751,210.7c-188.458,19.169 -382.696,-19.248 -549.54,-110.266c-173.436,-94.615 -316.015,-244.444 -401.743,-422.908c-8.75,-18.214 -16.892,-36.715 -24.423,-55.462l85.469,0c3.201,7.173 6.502,14.301 9.902,21.381c91.534,190.586 254.02,345.44 450.456,427.17c182.539,75.947 392.441,86.803 582.419,29.915c131.453,-39.363 253.606,-110.922 352.809,-206.357c80.371,-77.319 145.674,-170.308 191.327,-272.109l85.574,0Zm-1825.05,-404c2.161,-42.313 7.151,-84.509 15.017,-126.223c26.99,-143.126 87.869,-279.865 176.235,-396.182c118.785,-156.359 286.665,-274.592 474.587,-332.775c90.053,-27.882 184.256,-41.979 278.694,-42.209c1.02,-0.001 2.041,-0.001 3.061,0c131.436,0.32 263.055,28.024 383.043,81.43c171.318,76.254 318.757,204.667 418.079,362.663c85.094,135.363 134.788,293.784 143.444,453.296l-78.949,0c-4.511,-79.065 -19.66,-157.466 -45.365,-232.22c-45.711,-132.935 -124.645,-254.549 -227.253,-350.934c-121.553,-114.18 -276.525,-192.565 -440.83,-221.948c-50.222,-8.981 -101.28,-13.456 -152.295,-13.578l-2.809,0c-120.632,0.287 -241.022,25.608 -351.162,74.63c-134.476,59.853 -253.273,154.598 -341.932,272.382c-95.861,127.351 -155.541,280.915 -170.432,439.814c-0.993,10.604 -1.79,21.224 -2.389,31.854l-78.744,0Z"/><path d="M1442.54,930.246l583.3,0c7.279,7.28 14.559,14.559 21.838,21.839l0,292l-21.838,21.839l-2004,0l-21.839,-21.839l0,-292l21.839,-21.839l640.881,0c15.286,0.329 30.572,0.62 45.857,0.941l0.944,0.226c8.691,0.925 17.328,2.269 25.927,3.832c26.385,4.821 53.917,9.422 80.916,6.198c13.25,-1.582 26.474,-5.859 39.721,-4.699c1.565,0.137 3.923,0.518 3.923,0.518c-1.249,6.161 2.348,12.135 7.779,14.613c6.642,3.032 14.251,5.111 21.7,4.61c6.044,-0.407 11.529,-3.384 16.727,-6.269c0,0 3.184,1.086 3.184,1.086c5.385,2.947 11.239,5.723 11.239,5.723c5.17,5.095 10.399,10.158 16.329,14.274c2.476,1.718 5.654,3.127 5.654,3.127c7.188,5.623 12.59,16.306 22.373,19.728c3.864,1.352 8.239,0.747 11.352,-1.701c4.819,-3.789 4.934,-10.388 4.75,-16.655c-0.064,-1.901 0.116,-1.363 0.116,-1.363c4.244,0.679 8.526,1.192 12.817,1.192c5.293,0 10.296,-1.713 10.296,-1.713c9.259,-0.656 20.395,3.849 29.429,-1.16c0.534,-0.296 1.049,-0.628 1.536,-0.997c10.358,-7.858 1.402,-20.27 -7.419,-28.052c-1.645,-1.434 -1.136,-0.658 -0.253,-1.139l0.67,-0.375c8.987,-1.64 18.963,0.787 27.072,-3.595c3.791,-2.049 5.402,-5.337 6.024,-8.35l127.888,0l0.649,0.127c4.823,0.948 9.604,2.362 14.251,2.793c0.042,0.004 1.778,-0.035 2.279,-0.047c8.946,-0.22 17.695,-1.612 26.444,-2.873l36.498,0c2.984,0.567 5.95,1.233 8.892,1.951l-0.14,0.193c-3.413,4.689 -7.384,10.559 -6.349,16.428c0.046,0.258 0.099,0.515 0.161,0.769c1.366,5.627 6.926,9.197 12.683,9.458c10.348,0.353 21.675,-0.963 29.37,-8.012c7.319,6.321 14.303,13.181 22.766,15.815c7.235,4.846 12.439,13.336 21.018,15.721c7.454,2.073 14.152,-3.28 15.054,-9.993c0.401,-2.981 0.202,-7.748 0.202,-7.748c1.761,0.657 3.546,1.254 5.373,1.701c2.944,0.72 6.384,0.759 6.384,0.759c8.228,2.112 16.041,8.077 24.793,7.552c5.705,-0.341 10.302,-4.565 11.144,-9.754c0.494,-3.041 -0.704,-6.69 -0.704,-6.69c-1.024,-2.814 -1.951,-5.562 -3.297,-8.17c-0.698,-1.323 -0.016,-0.586 -0.016,-0.586c7.108,0.912 15.137,3.364 22.201,0.258c0.472,-0.207 0.932,-0.441 1.375,-0.704c0.649,-0.386 1.265,-0.829 1.828,-1.326c4.767,-4.213 4.586,-11.373 1.301,-16.292c-0.292,-0.447 -0.589,-0.891 -0.892,-1.33Zm-1333.96,70.855l-44.304,0l0,193.967l52.139,0c19.631,0 29.446,-9.635 29.446,-28.906l0,-48.626c0,-10.806 -7.114,-18.19 -21.342,-22.153l0,-1.35c12.427,-2.522 18.64,-9.365 18.64,-20.532l0,-37.28c0,-23.413 -11.526,-35.119 -34.579,-35.12Zm1759.21,0l-50.788,0l0,193.967l25.934,0l0,-78.343l15.669,0l17.019,78.343l24.584,0l-18.1,-80.774c10.266,-4.503 15.398,-15.219 15.398,-32.148l0,-47.816c0,-22.152 -9.905,-33.228 -29.716,-33.229Zm-1674.38,0l-25.934,0l0,193.967l25.934,0l0,-193.967Zm735.886,0l-64.296,0l0,193.967l64.296,0l0,-23.503l-38.361,0l0,-64.565l34.038,0l0,-23.503l-34.038,0l0,-58.893l38.361,0l0,-23.503Zm538.136,0l-64.295,0l0,193.967l25.934,0l0,-88.068l34.039,0l0,-23.503l-34.039,0l0,-58.893l38.361,0l0,-23.503Zm515.985,0l-64.296,0l0,193.967l64.296,0l0,-23.503l-38.361,0l0,-64.565l34.038,0l0,-23.503l-34.038,0l0,-58.893l38.361,0l0,-23.503Zm-1241.34,0l-75.641,0l0,23.503l24.853,0l0,170.464l25.935,0l0,-170.464l24.853,0l0,-23.503Zm809.096,0l-75.641,0l0,23.503l24.854,0l0,170.464l25.934,0l0,-170.464l24.853,0l0,-23.503Zm-202.071,0l-24.854,0c-20.711,0.001 -31.067,11.077 -31.067,33.229l0,127.78c0,21.972 10.446,32.958 31.338,32.958l24.313,0c20.892,0 31.337,-10.986 31.337,-32.958l0,-127.78c0,-22.152 -10.355,-33.228 -31.067,-33.229Zm-943.09,0l-16.209,0c-20.711,0.001 -31.067,11.077 -31.067,33.229l0,39.712c0,5.042 0.54,9.14 1.621,12.291c1.081,3.152 2.837,5.719 5.268,7.7c2.431,1.981 6.348,4.412 11.751,7.294l24.584,13.777c3.242,1.981 5.583,3.602 7.024,4.863c1.441,1.261 2.161,3.692 2.161,7.294l0,32.958c0,7.564 -3.422,11.346 -10.266,11.346l-4.592,0c-7.744,0 -11.617,-3.782 -11.617,-11.346l0,-10.536l-25.934,0l0,9.726c0,23.773 10.356,35.659 31.067,35.659l15.939,0c20.892,0 31.337,-10.896 31.337,-32.688l0,-41.332c0,-6.844 -0.63,-11.482 -1.891,-13.913c-1.26,-2.431 -3.016,-4.503 -5.268,-6.214c-2.251,-1.71 -6.078,-4.097 -11.481,-7.158l-24.584,-13.238c-3.241,-1.981 -5.583,-3.602 -7.023,-4.862c-1.441,-1.261 -2.162,-3.692 -2.162,-7.294l0,-32.148c0,-7.744 3.692,-11.616 11.077,-11.617l4.052,0c7.564,0.001 11.346,3.873 11.346,11.617l0,17.019l25.934,0l0,-18.91c0,-22.152 -10.355,-33.228 -31.067,-33.229Zm835.841,0l-16.209,0c-20.712,0.001 -31.067,11.077 -31.067,33.229l0,39.712c0,5.042 0.54,9.14 1.621,12.291c1.08,3.152 2.836,5.719 5.268,7.7c2.431,1.981 6.348,4.412 11.751,7.294l24.584,13.777c3.242,1.981 5.583,3.602 7.024,4.863c1.44,1.261 2.161,3.692 2.161,7.294l0,32.958c0,7.564 -3.422,11.346 -10.266,11.346l-4.592,0c-7.745,0 -11.617,-3.782 -11.617,-11.346l0,-10.536l-25.934,0l0,9.726c0,23.773 10.356,35.659 31.067,35.659l15.939,0c20.892,0 31.337,-10.896 31.337,-32.688l0,-41.332c0,-6.844 -0.63,-11.482 -1.891,-13.913c-1.261,-2.431 -3.017,-4.503 -5.268,-6.214c-2.251,-1.71 -6.078,-4.097 -11.481,-7.158l-24.584,-13.238c-3.242,-1.981 -5.583,-3.602 -7.024,-4.862c-1.44,-1.261 -2.161,-3.692 -2.161,-7.294l0,-32.148c0,-7.744 3.692,-11.616 11.076,-11.617l4.053,0c7.564,0.001 11.346,3.873 11.346,11.617l0,17.019l25.934,0l0,-18.91c0,-22.152 -10.355,-33.228 -31.067,-33.229Zm-728.592,0l-24.853,0c-20.712,0.001 -31.068,11.077 -31.068,33.229l0,127.78c0,21.972 10.446,32.958 31.338,32.958l24.313,0c20.892,0 31.337,-10.986 31.337,-32.958l0,-127.78c0,-22.152 -10.355,-33.228 -31.067,-33.229Zm-249.077,0l-17.83,0c-19.991,0.001 -29.986,11.077 -29.986,33.229l0,128.05c0,21.792 9.995,32.688 29.986,32.688l50.788,0l0,-94.552l-39.442,0l0,23.503l13.508,0l0,47.546l-17.56,0c-7.564,0 -11.346,-4.682 -11.346,-14.047l0,-118.866c0,-9.365 3.782,-14.047 11.346,-14.048l6.484,0c7.384,0.001 11.076,4.684 11.076,14.048l0,17.29l25.934,0l0,-21.072c0,-22.512 -10.986,-33.768 -32.958,-33.769Zm734.535,0l-50.788,0l0,193.967l25.934,0l0,-78.343l15.669,0l17.019,78.343l24.584,0l-18.1,-80.774c10.265,-4.503 15.398,-15.219 15.398,-32.148l0,-47.816c0,-22.152 -9.905,-33.228 -29.716,-33.229Zm-405.494,0l-25.934,0l0,156.957c0,24.674 10.356,37.01 31.067,37.01l21.882,0c20.892,0 31.338,-12.247 31.338,-36.74l0,-157.227l-25.935,0l0,157.767c0,8.465 -3.511,12.697 -10.536,12.697l-10.535,0c-7.565,0 -11.347,-4.232 -11.347,-12.697l0,-157.767Zm1169.75,0l-19.45,0c-20.712,0.001 -31.068,11.077 -31.068,33.229l0,160.738l25.935,0l0,-71.049l29.716,0l0,71.049l25.934,0l0,-160.738c0,-22.152 -10.355,-33.228 -31.067,-33.229Zm-980.1,0l-25.934,0l0,193.967l25.934,0l0,-88.068l31.878,0l0,88.068l25.934,0l0,-193.967l-25.934,0l0,82.396l-31.878,0l0,-82.396Zm293.112,0l-25.935,0l0,193.967l25.935,0l0,-126.97l27.825,88.339l0,38.631l25.934,0l0,-193.967l-25.934,0l0,93.742l-27.825,-93.742Zm506.259,0l-25.665,0l28.636,193.967l28.096,0l15.668,-112.382l15.939,112.382l28.096,0l28.635,-193.967l-25.664,0l-18.37,145.341l-18.37,-145.341l-20.261,0l-18.37,145.341l-18.37,-145.341Zm-1074.11,170.464l-13.237,0c-7.744,0 -11.616,-3.782 -11.616,-11.346l0,-124.268c0,-7.564 3.782,-11.346 11.346,-11.347l12.157,0c7.744,0.001 11.616,3.783 11.616,11.347l0,124.268c0,7.564 -3.421,11.346 -10.266,11.346Zm835.841,0l-13.237,0c-7.744,0 -11.616,-3.782 -11.616,-11.346l0,-124.268c0,-7.564 3.781,-11.346 11.346,-11.347l12.157,0c7.744,0.001 11.616,3.783 11.616,11.347l0,124.268c0,7.564 -3.422,11.346 -10.266,11.346Zm-1234.31,0l-19.451,0l0,-65.105l14.318,0c10.266,0 15.398,4.592 15.398,13.777l0,42.954c0,5.583 -3.421,8.374 -10.265,8.374Zm1658.44,-71.049l-29.716,0l0,-64.565c0,-7.564 3.781,-11.346 11.346,-11.347l7.024,0c7.564,0.001 11.346,3.783 11.346,11.347l0,64.565Zm-777.218,-5.943l-17.02,0l0,-69.969l17.02,0c7.744,0.001 11.616,4.683 11.616,14.048l0,41.873c0,9.365 -3.872,14.048 -11.616,14.048Zm869.069,0l-17.02,0l0,-69.969l17.02,0c7.744,0.001 11.616,4.683 11.616,14.048l0,41.873c0,9.365 -3.872,14.048 -11.616,14.048Zm-1757.59,-11.616l-12.157,0l0,-58.353l15.399,0c7.744,0.001 11.616,4.683 11.616,14.048l0,30.257c0,9.365 -4.952,14.047 -14.858,14.048Zm865.726,-98.671l0.002,0l-0.046,-0.02l0.044,0.02Zm-0.397,-0.194c0.051,0.027 0.102,0.054 0.153,0.079c0.054,0.027 0.109,0.053 0.164,0.079l-0.164,-0.079l-0.153,-0.079Zm-0.278,-0.155l0.073,0.042l-0.131,-0.076l0.058,0.034Zm-0.139,-0.082l0.03,0.017l-0.151,-0.092l0.121,0.075Zm-0.409,-0.262l0.065,0.043l-0.126,-0.085l0.061,0.042Zm-0.146,-0.099l0.031,0.021l-0.16,-0.111l0.129,0.09Zm-0.432,-0.309l0.068,0.049l-0.155,-0.115l0.087,0.066Zm-5.511,-5.085c1.68,1.81 3.441,3.534 5.408,5.007c-1.575,-1.186 -3.442,-2.987 -5.408,-5.007Zm7.36,-15.393c3.333,8.606 2.596,15.948 2.608,18.963c0.001,0.451 -0.025,0.843 -0.076,1.181c1.004,-6.553 -0.019,-13.708 -2.532,-20.144Zm391.6,9.6l0.066,0.031l-0.129,-0.061l0.063,0.03Zm-0.675,-0.354l0.063,0.036l-0.119,-0.068l0.056,0.032Zm-6.535,-5.142c1.935,1.831 3.955,3.586 6.276,4.989c0.053,0.032 0.106,0.064 0.159,0.095c-1.788,-1.048 -4.059,-2.966 -6.435,-5.084Zm9.642,-5.399c0.807,4.104 0.486,7.375 0.493,9.02c0.002,0.429 -0.033,0.791 -0.102,1.092l0.047,-0.212c0.69,-3.193 0.454,-6.564 -0.438,-9.9Zm-436.646,-13.593c0.724,0.417 1.391,0.892 1.967,1.464c5.689,5.626 11.085,12.086 18.345,15.3c1.223,0.541 2.364,1.2 3.443,1.948c-1.053,-0.852 -1.982,-1.449 -2.732,-1.678c-3.509,-1.074 -11.618,-8.1 -20.268,-16.78c-0.255,-0.082 -0.507,-0.167 -0.755,-0.254Zm42.53,13.165c9.948,2.778 20.412,5.571 29.889,4.057c-6.374,1.018 -18.952,-1.035 -29.889,-4.057Zm43.432,2.834c4.92,0.445 9.892,1.188 14.845,0.557c-3.592,0.439 -9.501,-0.176 -14.845,-0.557Zm396.689,0.699l0.072,0.006l-0.142,-0.013l0.07,0.007Zm-0.756,-0.101l0.072,0.011l-0.136,-0.023l0.064,0.012Zm-16.664,-6.052c5.464,1.988 10.578,4.863 16.368,5.997c0.061,0.012 0.121,0.023 0.182,0.034c-4.069,-0.738 -11.135,-4.074 -16.55,-6.031Zm-387.305,5.264c-1.136,0.09 -2.12,0.415 -3.082,0.739c0.075,-0.034 0.146,-0.069 0.216,-0.105c0.661,-0.34 1.648,-0.537 2.866,-0.634c0,0 0,0 0,0Zm23.105,0.718l-0.149,0.02l0.071,-0.009l0.078,-0.011Zm0.447,-0.07l-0.179,0.03l0.145,-0.024l0.034,-0.006Zm0.213,-0.04l-0.153,0.029l0.069,-0.013l0.084,-0.016Zm0.844,-0.218l-0.07,0.023l0.064,-0.021l0.006,-0.002Zm378.821,-10.298c2.047,3.466 2.841,6.528 3.398,8.032c0.149,0.401 0.241,0.753 0.279,1.06l-0.028,-0.214c-0.433,-3.118 -1.756,-6.117 -3.649,-8.878Zm-67.353,3.155c-5.169,-1.956 -9.477,-5.901 -13.815,-9.488l-0.423,-0.348c5.983,4.907 11.304,8.707 14.238,9.836l0.033,0.013c0.241,0.091 0.466,0.165 0.673,0.219c0.691,0.181 1.547,0.651 2.517,1.32c-0.989,-0.59 -2.032,-1.106 -3.146,-1.522l-0.044,-0.017l-0.019,-0.008l-0.014,-0.005Zm50.955,1.39l0.162,0.058l-0.165,-0.059l-0.042,-0.015l0.045,0.016Zm-8.465,-1.517c2.686,0.501 5.469,0.479 8.139,1.403c-2.324,-0.814 -4.296,-1.333 -5.519,-1.217c-0.725,0.069 -1.608,0.001 -2.62,-0.186Zm-26.445,-12.738l0.168,0.111c8.121,5.313 16.663,10.725 26.052,12.584c-6.379,-1.263 -17.559,-7.007 -26.22,-12.695Zm-446.248,7.24c0,0 1.07,0.325 -0.007,-0.004c-0.003,-0.001 0.005,0.003 0.007,0.004Zm382.273,-2.411c-1.169,0.044 -2.256,0.036 -3.22,0.01c1.042,0.04 2.135,0.033 3.22,-0.01Zm0.385,-0.016l-0.195,0.009l0.096,-0.004l0.099,-0.005Zm0.224,-0.011l-0.051,0.003l0.022,-0.001l0.029,-0.002Zm-10.182,-2.895l-0.008,0.035l0.022,-0.098l-0.014,0.063Zm3.379,-5.95c-1.497,1.858 -2.868,3.784 -3.363,5.88c0.39,-1.605 1.802,-3.71 3.363,-5.88Zm65.812,3.475c0.391,0.481 0.825,0.976 1.305,1.488c-0.449,-0.481 -0.888,-0.976 -1.305,-1.488Zm-472.476,1.449l0.078,0.022l-0.206,-0.061l0.128,0.039Zm435.911,-6.996c0.047,0.042 3.977,3.547 8.056,6.991c-2.62,-2.217 -5.317,-4.595 -7.954,-7.014l-0.102,0.023Zm-436.821,6.714c0.223,0.072 0.45,0.143 0.682,0.213l-0.336,-0.103l-0.346,-0.11Zm34.971,-3.085l0.132,0.043c0,0 3.669,1.96 5.829,3.15l-0.39,-0.215c-1.813,-1.004 -3.478,-1.999 -5.084,-2.822l-0.487,-0.156Zm438.297,1.773l0.071,0.088l-0.096,-0.119l0.025,0.031Zm-360.722,-7.434l-0.057,-0.015c-0.32,0.159 -0.646,0.317 -0.978,0.473c2.318,3.34 5.532,5.792 12.434,6.78c-4.732,-0.689 -9.45,-2.525 -12.434,-6.78c0.553,-0.262 0.86,-0.398 1.035,-0.458Zm360.373,6.987l0.003,0.003l-0.008,-0.01l0.005,0.007Zm-0.165,-0.221l0.003,0.005l-0.007,-0.009l0.004,0.004Zm-443.275,-2.908c-2.306,-0.18 -4.719,0.434 -7.503,2.339c2.234,-1.512 4.852,-2.528 7.503,-2.339Zm442.815,2.258l0.003,0.005l-0.049,-0.073l0.046,0.068Zm-0.142,-0.213l0.021,0.033l-0.114,-0.178l0.093,0.145Zm-1.385,-2.694c0.301,0.815 0.721,1.659 1.291,2.549c-0.513,-0.804 -0.955,-1.651 -1.291,-2.549Zm-33.977,-1.17c-2.027,0.458 -3.924,1.522 -5.776,3.599c1.555,-1.728 3.491,-3.07 5.776,-3.599Zm73.583,1.029c1.031,0.809 2.306,1.604 3.89,2.396l-0.166,-0.085c-1.509,-0.782 -3.214,-1.955 -3.629,-2.245l-0.095,-0.066Zm-476.218,2.327l0.078,0.026l-0.137,-0.045l0.059,0.019Zm-4.621,-1.532c0.085,0.028 2.298,0.772 4.451,1.477c-1.419,-0.466 -2.864,-0.958 -4.337,-1.468l-0.114,-0.009Zm515.795,0.365c3.484,0.674 7.028,1.213 10.441,0.671c-2.33,0.356 -6.306,-0.113 -10.441,-0.671Zm10.556,0.652l-0.104,0.017l0.073,-0.012l0.031,-0.005Zm0.188,-0.034l-0.069,0.013l0.041,-0.008l0.028,-0.005Zm0.162,-0.035l-0.133,0.029c0.044,-0.009 0.089,-0.019 0.133,-0.029c0.048,-0.01 0.095,-0.022 0.142,-0.034l-0.142,0.034Zm-45.343,-1.65c6.207,1.113 12.756,1.997 18.571,0.645c-4.53,0.941 -11.908,0.535 -18.571,-0.645Zm-40.137,0.017c0.025,0.019 0.694,0.524 1.693,1.255c-0.607,-0.459 -1.185,-0.91 -1.728,-1.352l0.035,0.097Zm-470.292,-8.795l0.42,0.109c-3.152,2.644 -6.559,5.361 -7.988,7.673l-0.061,0.1c1.949,-3.27 5.183,-5.375 8.049,-7.773l-0.423,-0.109l0.003,0Zm141.844,4.394c-7.473,2.699 -20.915,3.211 -28.927,1.422c9.518,2.164 19.949,1.869 28.927,-1.422Zm410.867,-2.678c0.954,1.094 1.723,2.141 2.351,3.06c-0.642,-0.987 -1.437,-2.028 -2.351,-3.06Zm-400.711,-0.393c-3.654,0.285 -6.586,1.717 -9.638,2.878l-0.296,0.111c1.181,-0.44 2.204,-0.936 3.023,-1.489c1.257,-0.846 3.819,-1.259 6.911,-1.5c0,0 0,0 0,0Zm260.188,-0.433l0,0.054l0,-0.026l0,-0.028Zm-0.005,-0.111l0.003,0.045l-0.001,-0.021l-0.002,-0.024Zm-248.758,0.004l0.561,-0.034l0.053,-0.004l-0.614,0.038Zm1.224,-0.078l-0.435,0.029l0.332,-0.022l0.103,-0.007Zm0.595,-0.045l-0.383,0.029l0.245,-0.018l0.138,-0.011Zm0.927,-0.079l-0.113,0.01l0.055,-0.005l0.058,-0.005Zm0.402,-0.039l-0.068,0.006l0.055,-0.005l0.013,-0.001Zm0.487,-0.053l-0.108,0.012l0.054,-0.005l0.054,-0.007Zm0.81,-0.099l-0.106,0.014l0.029,-0.004l0.077,-0.01Zm0.329,-0.046l-0.122,0.017l0.057,-0.008l0.065,-0.009Zm0.311,-0.047l-0.11,0.017l0.075,-0.011l0.035,-0.006Zm-224.913,-0.297c-0.361,0.058 -0.721,0.114 -1.082,0.17l-0.635,0.098c0.575,-0.088 1.142,-0.177 1.702,-0.268l0.015,0Zm225.723,0.158l-0.172,0.032l0.165,-0.031l0.007,-0.001Zm0.247,-0.049l-0.147,0.029l0.142,-0.028l0.005,-0.001Zm0.242,-0.051l0.199,-0.045l0.02,-0.004l-0.219,0.049Z"/><path id="Alligator" d="M555.198,575.806c-0.126,0.016 0.265,0.61 0.874,1.334c0.769,0.913 1.049,1.633 0.887,2.277c-0.142,0.569 0.015,1.149 0.399,1.467c0.56,0.465 0.548,0.59 -0.106,1.069c-0.408,0.298 -0.744,0.891 -0.745,1.317c-0.006,0.617 -0.438,0.827 -2.112,1.019c-2.038,0.234 -4.441,-0.29 -4.441,-0.968c0,-0.182 -0.304,-0.331 -0.676,-0.331c-0.372,0 -1.343,-0.665 -2.156,-1.479c-0.814,-0.813 -1.582,-1.479 -1.707,-1.479c-0.126,0 -0.454,-0.309 -0.729,-0.686c-0.458,-0.626 -0.684,-0.604 -2.583,0.251c-1.144,0.515 -2.959,1.204 -4.033,1.531l-1.953,0.595l-0.326,3.486c-0.179,1.918 -0.286,4.18 -0.236,5.028c0.049,0.848 -0.114,1.668 -0.363,1.821c-0.248,0.154 -0.451,0.648 -0.451,1.099c0,0.574 -0.292,0.82 -0.973,0.82c-0.534,0 -1.16,0.189 -1.391,0.42c-0.277,0.277 -0.914,0.252 -1.88,-0.073c-2.784,-0.939 -3.786,-1.399 -3.786,-1.742c0,-0.189 -0.551,-1.046 -1.225,-1.904c-0.673,-0.858 -1.352,-1.988 -1.507,-2.511c-0.308,-1.034 -0.554,-1.132 -1.442,-0.569c-0.321,0.202 -0.454,0.578 -0.296,0.833c0.184,0.297 0.04,0.37 -0.396,0.203c-0.604,-0.232 -2.584,0.486 -3.163,1.146c-0.116,0.133 -1.115,0.673 -2.219,1.2c-2.317,1.108 -2.478,1.759 -1.125,4.554c1.654,3.416 0.039,7.208 -3.016,7.086c-1.634,-0.066 -3.783,-1.245 -3.783,-2.076c0,-0.285 -0.391,-0.874 -0.87,-1.307c-0.745,-0.675 -0.928,-0.699 -1.262,-0.171c-0.214,0.339 -0.392,0.857 -0.396,1.15c-0.005,0.293 -0.389,1.347 -0.857,2.341c-0.787,1.675 -1.077,1.884 -3.909,2.831c-1.683,0.562 -3.24,1.173 -3.46,1.356c-0.221,0.184 -0.75,0.334 -1.175,0.334c-0.88,0 -1.519,1.211 -0.859,1.627c0.741,0.467 2.062,3.195 1.904,3.933c-0.082,0.384 -0.567,0.807 -1.077,0.938c-0.51,0.131 -1.302,0.804 -1.761,1.496c-0.459,0.692 -1.248,1.363 -1.755,1.49c-1.102,0.276 -3.536,-0.138 -4.289,-0.729c-0.296,-0.233 -0.652,-0.31 -0.791,-0.17c-0.14,0.139 -0.91,-0.42 -1.71,-1.244l-1.454,-1.499l-1.978,2.087c-4.424,4.663 -4.319,4.473 -4.272,7.603c0.026,1.806 0.329,3.47 0.825,4.541c1.09,2.354 1.454,4.015 0.879,4.015c-0.258,0 -0.469,0.484 -0.469,1.076c0,1 -0.103,1.056 -1.478,0.798c-1.194,-0.224 -1.48,-0.147 -1.48,0.403c0,0.374 -0.19,0.681 -0.423,0.681c-0.232,0 -0.422,-0.201 -0.422,-0.448c0,-0.246 -0.18,-0.336 -0.4,-0.2c-0.497,0.307 -4.187,-2.336 -4.223,-3.025c-0.055,-1.074 -1.009,-1.03 -1.974,0.093c-0.555,0.647 -1.01,1.386 -1.01,1.642c0,0.257 -0.505,1.012 -1.122,1.678c-0.891,0.96 -1.109,1.59 -1.054,3.034c0.054,1.431 -0.126,1.959 -0.835,2.456c-0.541,0.378 -0.803,0.893 -0.654,1.28c0.136,0.356 0.065,0.759 -0.157,0.896c-0.222,0.138 -0.41,0.762 -0.418,1.387c-0.008,0.625 -0.287,1.613 -0.619,2.194c-0.892,1.561 -0.763,2.693 0.423,3.724c1.226,1.067 1.291,1.591 0.417,3.342c-0.605,1.213 -3.495,3.499 -4.423,3.499c-0.238,0 -0.432,0.19 -0.432,0.423c0,0.232 -0.808,0.432 -1.796,0.443c-1.697,0.02 -1.848,0.124 -2.73,1.901c-0.866,1.744 -0.878,1.881 -0.176,1.881c0.417,0 0.874,-0.116 1.015,-0.257c0.142,-0.142 1.077,-0.302 2.078,-0.357c1.001,-0.055 2.011,-0.151 2.243,-0.215c0.233,-0.066 0.776,-0.094 1.208,-0.066c0.634,0.041 0.73,0.268 0.501,1.179c-0.155,0.621 -0.659,1.606 -1.118,2.19c-0.561,0.714 -0.756,1.423 -0.594,2.16c0.175,0.797 -0.125,1.652 -1.098,3.119c-0.986,1.489 -1.214,2.145 -0.867,2.493c0.348,0.348 0.197,0.834 -0.576,1.847c-0.576,0.756 -1.048,1.792 -1.048,2.303c0,1.088 1.562,3.776 2.194,3.776c0.271,0 0.329,0.598 0.155,1.585c-0.473,2.665 -0.64,2.953 -2.047,3.53c-1.562,0.641 -3.552,2.34 -3.178,2.715c0.139,0.139 1.08,0.332 2.092,0.43c1.012,0.097 2.544,0.348 3.404,0.558c0.86,0.209 1.668,0.276 1.796,0.148c0.127,-0.128 0.232,0.293 0.232,0.936c0,1.152 -0.53,2.628 -2.14,5.945c-0.451,0.93 -0.819,2.118 -0.819,2.641c0,0.523 -0.156,0.951 -0.348,0.951c-0.576,0 -0.015,2.584 0.613,2.825c0.32,0.123 0.581,0.488 0.581,0.812c0,0.882 5.847,0.84 6.187,-0.045c0.134,-0.348 0.54,-0.634 0.903,-0.634c0.364,0 1.019,-0.323 1.455,-0.718c0.436,-0.395 1.022,-0.761 1.301,-0.815c0.279,-0.053 1.54,-0.471 2.802,-0.929c3.358,-1.218 4.25,-0.712 4.274,2.424c0.01,1.442 0.317,2.924 0.785,3.803c0.614,1.152 0.691,1.783 0.383,3.153c-0.211,0.942 -0.598,1.969 -0.86,2.284c-0.913,1.101 -0.632,2.656 0.645,3.565c0.971,0.692 1.619,0.817 3.237,0.625c2.867,-0.339 6.357,-1.556 6.357,-2.216c0,-0.307 0.333,-0.562 0.739,-0.568c0.407,-0.005 2.817,-0.552 5.356,-1.215c3.842,-1.004 4.888,-1.134 6.233,-0.775c0.917,0.245 1.719,0.758 1.856,1.189c0.132,0.417 0.419,0.758 0.635,0.758c0.217,0 0.394,0.336 0.394,0.746c0,0.41 0.355,1.714 0.788,2.898c0.432,1.185 0.908,2.797 1.058,3.586c0.149,0.788 0.363,1.908 0.475,2.489c0.113,0.581 0.489,1.266 0.837,1.521c0.348,0.256 0.523,0.573 0.39,0.706c-0.132,0.133 -0.015,1.328 0.26,2.655c0.399,1.92 0.39,2.621 -0.041,3.427c-0.456,0.851 -0.438,1.117 0.111,1.666c0.589,0.589 0.859,0.536 2.759,-0.54c1.159,-0.657 3.034,-1.815 4.167,-2.574c1.283,-0.86 2.545,-1.365 3.341,-1.338c1.52,0.05 4.557,-1.015 6.172,-2.165c0.635,-0.452 1.333,-0.822 1.552,-0.822c0.219,0 0.742,-0.381 1.162,-0.846c0.857,-0.946 3.127,-1.141 3.931,-0.338c0.279,0.279 0.507,1.505 0.507,2.723c0,1.218 0.201,2.339 0.448,2.491c0.246,0.153 0.407,0.686 0.359,1.187c-0.048,0.501 0.021,1.195 0.155,1.544c0.134,0.349 0.331,1.205 0.44,1.902c0.109,0.698 0.514,2.789 0.9,4.649c0.385,1.859 0.6,3.904 0.478,4.543c-0.239,1.243 0.192,1.491 1.098,0.633c1.094,-1.034 6.084,-3.244 7.954,-3.522c1.046,-0.156 3.613,-1.091 5.705,-2.077c8.138,-3.836 8.142,-3.836 11.506,-0.373c3.032,3.121 3.366,3.758 3.7,7.05c0.16,1.58 0.558,3.386 0.886,4.014c0.327,0.628 0.596,1.641 0.598,2.252c0,0.611 0.302,1.358 0.666,1.661c0.368,0.305 0.569,0.912 0.451,1.362c-0.312,1.195 0.581,2.84 1.543,2.84c0.458,0 2.132,-1.227 3.721,-2.726c1.589,-1.499 4.084,-3.496 5.545,-4.437c1.461,-0.941 2.955,-2.235 3.32,-2.874c1.009,-1.766 2.699,-2.357 7.589,-2.653c2.953,-0.179 4.801,-0.495 5.494,-0.94c0.574,-0.37 2.134,-0.985 3.466,-1.367c1.332,-0.382 2.532,-0.873 2.666,-1.09c0.134,-0.217 0.993,-0.395 1.909,-0.395c1.102,0 1.666,-0.189 1.666,-0.559c0,-0.309 0.428,-0.959 0.951,-1.445c0.921,-0.855 1.09,-0.866 5.387,-0.347c6.671,0.806 7.231,1.198 7.115,4.968c-0.046,1.459 0.141,2.666 0.475,3.068c0.303,0.366 1.811,1.262 3.349,1.991c1.538,0.73 2.859,1.488 2.937,1.686c0.077,0.197 0.436,0.358 0.798,0.358c0.362,0 0.903,0.332 1.203,0.739c0.515,0.699 0.589,0.693 1.342,-0.109c0.438,-0.468 1.859,-2.275 3.157,-4.016c1.299,-1.74 3.301,-4.079 4.45,-5.197l2.089,-2.031l-0.421,-2.13c-0.49,-2.48 0.349,-5.864 1.855,-7.48c0.81,-0.869 1.109,-0.925 3.281,-0.617c1.314,0.187 3.762,0.299 5.439,0.249c2.306,-0.068 3.134,0.061 3.396,0.528c0.274,0.491 0.647,0.531 1.807,0.199c0.804,-0.231 1.935,-0.42 2.514,-0.42c0.58,0 2.055,-0.506 3.279,-1.125c1.742,-0.881 2.224,-1.343 2.224,-2.127c0,-0.551 0.488,-1.966 1.086,-3.144c0.99,-1.955 1.184,-2.118 2.218,-1.863c0.623,0.154 3.027,0.633 5.34,1.066c4.683,0.875 5.302,1.327 5.302,3.878c0,1.938 0.503,2.264 4.469,2.898c1.595,0.255 3.482,0.823 4.193,1.262c1.442,0.892 3.848,1.088 7.541,0.614c2.378,-0.305 2.505,-0.272 3.433,0.892l0.964,1.208l0.317,-1.462c0.175,-0.804 0.438,-1.558 0.583,-1.674c0.145,-0.117 0.608,-1.223 1.031,-2.46c0.422,-1.236 1.695,-3.668 2.828,-5.405c1.95,-2.986 2.051,-3.282 1.882,-5.483c-0.099,-1.279 -0.001,-2.651 0.215,-3.047c0.216,-0.396 0.703,-1.419 1.081,-2.272c0.377,-0.854 0.973,-1.662 1.323,-1.796c0.35,-0.134 2.294,-0.056 4.32,0.173c2.247,0.255 4.205,0.268 5.019,0.034c1.841,-0.527 4.327,-2.502 4.327,-3.436c0,-0.424 0.428,-1.257 0.951,-1.852l0.952,-1.081l2.323,0.681c1.712,0.501 4.33,0.695 9.932,0.74l7.606,0.06l2.536,1.419c1.394,0.781 2.599,1.59 2.676,1.797c0.078,0.207 0.322,0.376 0.545,0.376c0.222,0 0.966,0.414 1.651,0.921c0.685,0.506 1.342,0.823 1.46,0.704c0.119,-0.119 0.302,-1.132 0.407,-2.252c0.105,-1.119 0.391,-2.236 0.635,-2.48c0.244,-0.244 0.443,-1.061 0.443,-1.817c0,-1.516 0.772,-3.528 1.352,-3.528c0.204,0 0.325,-0.428 0.269,-0.951c-0.157,-1.458 0.463,-4.144 1.4,-6.058c0.558,-1.141 0.886,-2.791 0.965,-4.86c0.18,-4.685 1.719,-7.579 3.814,-7.169c4.09,0.801 4.158,0.799 5.762,-0.214c0.869,-0.549 1.696,-1.184 1.836,-1.411c0.14,-0.227 0.774,-0.675 1.409,-0.996c1.284,-0.648 2.937,-1.527 3.901,-2.074c0.349,-0.198 0.919,-0.474 1.268,-0.614c0.348,-0.139 1.631,-0.648 2.851,-1.131c1.339,-0.529 2.225,-1.14 2.233,-1.54c0.008,-0.364 0.393,-1.116 0.856,-1.672l0.842,-1.011l2.631,0.673c1.446,0.369 3.834,0.742 5.305,0.828c1.471,0.086 2.803,0.355 2.958,0.597c0.156,0.242 1.187,0.573 2.291,0.736c1.104,0.162 2.007,0.474 2.007,0.692c0,0.219 0.256,0.397 0.569,0.397c0.313,0 1.121,0.266 1.796,0.591c3.618,1.745 6.003,2.79 6.366,2.79c0.224,0 1.169,0.368 2.1,0.818c0.931,0.449 2.251,0.95 2.932,1.113c0.682,0.162 1.524,0.526 1.873,0.808c0.841,0.679 4.365,2.332 4.972,2.332c0.264,0 0.631,0.261 0.817,0.582c0.186,0.32 1.934,1.414 3.884,2.43c1.95,1.016 4.193,2.187 4.985,2.6c0.792,0.414 1.588,0.66 1.77,0.548c0.317,-0.196 1.04,-2.562 2.365,-7.745c1.062,-4.151 2.382,-9.546 2.715,-11.093c0.175,-0.814 0.517,-1.859 0.76,-2.324c0.242,-0.465 0.567,-1.544 0.721,-2.399c0.154,-0.854 0.746,-1.995 1.316,-2.535c0.569,-0.541 1.039,-1.127 1.043,-1.303c0.005,-0.177 0.546,-1.065 1.204,-1.973c0.823,-1.136 1.22,-2.226 1.269,-3.481c0.101,-2.573 1.278,-5.163 2.723,-5.993c1.594,-0.914 2.233,-0.882 3.985,0.201c1.761,1.088 3.92,0.932 10.188,-0.734c4.072,-1.082 5.321,-1.658 4.939,-2.277c-0.111,-0.178 0.234,-0.965 0.765,-1.747c0.531,-0.783 1.09,-1.751 1.243,-2.151c0.466,-1.215 2.248,-1.353 4.918,-0.38c1.351,0.493 2.995,0.896 3.654,0.896c1.412,0 3.78,1.509 4.359,2.779c0.233,0.513 0.276,2.004 0.1,3.499l-0.307,2.603l1.508,0.917c0.829,0.505 2.933,1.664 4.676,2.577c3.193,1.67 5.447,3 9.72,5.735c1.278,0.819 4.811,3.924 7.85,6.902c3.038,2.977 5.754,5.414 6.035,5.414c0.28,0 0.617,0.28 0.749,0.623c0.131,0.342 1.284,1.134 2.561,1.759c2.764,1.353 2.539,1.572 4.398,-4.279c0.739,-2.327 1.995,-5.847 2.792,-7.823c0.897,-2.224 1.364,-3.994 1.228,-4.648c-0.121,-0.581 -0.42,-2.007 -0.666,-3.169c-0.718,-3.401 -0.439,-11.729 0.449,-13.387c0.21,-0.393 0.383,-1.087 0.383,-1.543c0,-0.456 0.674,-1.422 1.498,-2.146c1.233,-1.082 1.647,-1.237 2.333,-0.87c0.459,0.246 1.016,0.335 1.239,0.197c0.222,-0.137 0.952,0.155 1.621,0.649c0.816,0.604 2.105,0.975 3.918,1.13c1.487,0.128 3.03,0.516 3.43,0.865c0.655,0.571 0.994,0.503 3.387,-0.687c1.463,-0.728 3.091,-1.323 3.618,-1.323c0.526,0 1.662,-0.295 2.524,-0.655c1.637,-0.684 4.357,-1.457 5.801,-1.648c1.797,-0.238 2.987,-1.169 3.702,-2.9c0.405,-0.978 0.736,-2.067 0.736,-2.42c0,-0.352 0.559,-1.254 1.244,-2.003c1.348,-1.476 2.952,-1.782 3.827,-0.728c0.289,0.348 0.931,0.64 1.425,0.648c0.495,0.007 1.269,0.292 1.72,0.633c0.451,0.341 1.706,0.621 2.79,0.621c2.909,0 4.204,1.325 4.215,4.311l0.009,2.238l2.182,1.268c1.199,0.697 3.144,2.091 4.322,3.096c3.384,2.887 6.616,5.719 7.368,6.457c0.717,0.703 5.986,5.161 7.43,6.286c0.453,0.354 1.31,1.118 1.902,1.699c0.593,0.581 1.934,1.746 2.979,2.589c1.046,0.843 3.424,3.037 5.283,4.877c4.767,4.716 9.401,8.593 10.27,8.593c1.319,0 7.378,-6.659 15.049,-16.537l2.078,-2.674l0.139,-4.657c0.166,-5.519 0.488,-8.249 0.97,-8.249c0.193,0 0.469,-0.428 0.614,-0.951c0.145,-0.523 0.933,-1.704 1.751,-2.624l1.488,-1.673l1.358,0.682c2.123,1.065 3.643,1.749 4.723,2.117c2.237,-1.651 6.339,-4.408 9.794,-5.23c3.073,-0.731 7.171,0.769 9.9,2.051c0.792,-0.141 1.315,-0.258 1.354,-0.313c0.074,-0.103 0.7,-1.322 1.391,-2.71c1.553,-3.117 2.932,-4.052 4.689,-3.18c0.661,0.329 1.405,0.608 1.653,0.621c0.249,0.014 0.964,0.36 1.59,0.77c0.626,0.41 1.944,0.855 2.929,0.988c2.265,0.307 3.042,1.003 3.685,3.297c0.399,1.425 0.4,2.04 0.006,2.777c-0.421,0.787 -0.375,1.123 0.275,1.984c0.431,0.57 1.351,1.354 2.045,1.743c0.694,0.389 2.677,1.733 4.408,2.986c1.731,1.253 3.431,2.298 3.779,2.323c0.348,0.025 1.085,-0.619 1.639,-1.432c0.554,-0.814 1.234,-1.555 1.51,-1.646c0.277,-0.091 0.998,-0.513 1.605,-0.937c1.095,-0.766 1.127,-0.759 4.438,0.91c3.887,1.96 4.431,2.364 5.096,3.786c1.267,2.709 0.751,5.58 -1.608,8.94c-1.136,1.618 -0.985,2.086 1.208,3.737c1.08,0.814 2.467,1.955 3.081,2.537c0.614,0.581 2.039,1.722 3.166,2.535c1.127,0.814 4.439,3.864 7.361,6.78c2.923,2.915 5.953,5.768 6.734,6.338c1.435,1.05 3.36,2.696 4.934,4.22c0.473,0.458 1.049,0.833 1.28,0.833c0.231,0 0.694,0.38 1.029,0.845c0.335,0.465 0.824,0.845 1.085,0.845c0.262,0 0.808,0.368 1.215,0.818c1.031,1.139 2.189,0.516 4.02,-2.162c0.803,-1.175 2.156,-2.694 3.005,-3.376l1.544,-1.242l0.077,-5.189c0.054,-3.649 0.309,-5.955 0.858,-7.771c0.43,-1.42 0.681,-2.682 0.558,-2.805c-0.431,-0.431 2.127,-3.297 3.435,-3.85c1.103,-0.465 1.424,-0.461 1.968,0.028c0.357,0.321 1.537,0.977 2.622,1.457c1.161,0.514 2.611,1.651 3.522,2.763c0.852,1.04 1.743,1.89 1.98,1.89c0.237,0 1.387,-0.589 2.556,-1.308c1.92,-1.182 2.503,-1.319 5.998,-1.41c2.128,-0.056 4.094,-0.24 4.367,-0.409c0.274,-0.169 0.802,-0.913 1.175,-1.654c1.889,-3.75 5.004,-5.338 7.286,-3.714c0.686,0.489 1.441,0.888 1.677,0.888c0.237,0 0.968,0.452 1.625,1.005c0.657,0.553 1.575,1.08 2.039,1.169c0.464,0.089 1.147,0.804 1.517,1.588c0.652,1.38 0.593,2.673 -0.247,5.365c-0.219,0.701 -0.027,0.991 0.918,1.386c0.657,0.275 2.103,1.35 3.214,2.389c1.111,1.039 2.412,1.889 2.891,1.889c0.48,0 1.355,0.38 1.946,0.845c0.591,0.465 1.449,0.845 1.907,0.845c0.459,0 1.208,0.476 1.665,1.057c0.457,0.581 1.073,1.056 1.369,1.056c1.286,0 2.049,1.645 2.119,4.566c0.057,2.382 0.242,3.076 1.04,3.918c0.534,0.564 1.532,1.833 2.219,2.821c0.686,0.988 1.413,1.796 1.615,1.796c0.202,0 1.603,1.569 3.114,3.487c4.262,5.407 11.4,11.742 13.952,12.382c1.706,0.428 2.019,-0.57 2.157,-6.866c0.07,-3.209 0.227,-6.453 0.348,-7.209c0.286,-1.773 1.772,-4.647 3.169,-6.126c1.302,-1.378 2.532,-1.466 4.416,-0.318c0.761,0.464 1.68,0.845 2.043,0.845c0.363,0 1.068,0.382 1.567,0.846c0.499,0.465 1.201,0.846 1.559,0.846c0.358,0 0.651,0.19 0.651,0.422c0,0.917 1.599,0.347 2.956,-1.054c1.171,-1.208 1.449,-1.842 1.525,-3.486c0.301,-6.545 4.13,-12.558 7.039,-11.054c0.521,0.27 1.232,0.728 1.58,1.02c0.349,0.291 1.11,0.669 1.691,0.842c0.581,0.172 1.282,0.493 1.558,0.713c0.275,0.22 2.544,0.479 5.041,0.575c2.701,0.104 4.659,0.366 4.833,0.646c0.47,0.761 1.832,0.254 2.378,-0.885c0.277,-0.578 1.075,-1.599 1.773,-2.268l1.27,-1.217l1.897,1.112c1.043,0.611 2.148,1.124 2.455,1.139c0.903,0.045 4.315,2.696 4.903,3.809c0.351,0.662 0.454,1.79 0.292,3.202c-0.106,0.92 -0.185,1.474 0.054,2.075c2.673,0.4 5.299,1.009 7.493,1.926c5.845,2.439 10.566,10.477 12.83,14.975c0.318,-0.334 0.672,-0.729 1.03,-1.151c2.229,-2.634 4.809,-4.58 6.072,-4.58c0.905,0 3.207,0.984 4.397,1.879c1.651,1.242 3.778,3.781 3.958,4.724c0.261,1.367 -0.469,4.38 -1.295,5.336c-0.351,0.407 -0.467,0.753 -0.257,0.77c0.211,0.017 2.189,0.033 4.397,0.033c2.208,0 4.653,0.199 5.433,0.439c0.983,0.303 1.696,0.301 2.324,-0.008c0.599,-0.294 1.732,-0.489 4.774,-0.731c4.122,-2.721 10.56,-6.494 15.991,-7.58c5.408,-1.082 12.482,1.833 17.118,4.233c3.082,-0.318 5.679,-0.404 9.086,-0.346c2.789,0.047 8.589,0.148 12.889,0.225c4.299,0.077 8.322,0.067 8.939,-0.022c1.218,-0.176 1.189,-0.088 2.019,-6.293c0.223,-1.674 0.609,-3.766 0.856,-4.648c0.247,-0.882 1.012,-4.003 1.7,-6.936c0.91,-3.878 1.63,-5.917 2.638,-7.479c0.762,-1.181 2.05,-3.226 2.864,-4.543c0.813,-1.318 2.146,-3.126 2.959,-4.017c0.814,-0.892 2.335,-2.604 3.381,-3.806c2.241,-2.575 3.443,-3.77 3.793,-3.77c0.139,0 2.219,-1.905 4.622,-4.232c2.403,-2.327 4.868,-4.348 5.478,-4.491c0.61,-0.143 1.774,-0.59 2.588,-0.993c2.723,-1.35 4.574,-1.732 9.629,-1.986c4.095,-0.206 5.484,-0.116 7.522,0.489c1.374,0.408 3.069,0.911 3.766,1.118c0.698,0.207 2.124,0.947 3.17,1.642c1.046,0.696 2.052,1.267 2.236,1.267c0.184,0 0.745,0.383 1.246,0.851c1.364,1.27 4.973,2.955 6.332,2.955c1.236,0 7.712,3.076 10.681,5.075c2.315,1.558 3.961,2.576 5.685,3.517c0.802,0.438 2.323,1.514 3.381,2.391c1.057,0.876 2.598,1.809 3.424,2.072c0.826,0.263 2.34,1.236 3.364,2.163c1.024,0.927 1.994,1.685 2.156,1.685c0.162,0 0.852,0.842 1.534,1.872c0.682,1.03 1.837,2.374 2.567,2.988c0.729,0.614 1.568,1.552 1.863,2.084c0.836,1.507 2.725,4.268 3.37,4.926c0.321,0.328 0.85,1.262 1.175,2.076c0.326,0.813 0.751,1.588 0.944,1.721c0.529,0.366 0.793,1.774 1.457,7.786c0.566,5.116 0.527,10.961 -0.098,14.613l-0.259,1.513l3.313,0.75c3.504,0.792 5.725,1.405 7.116,1.963c1.603,0.643 5.503,1.281 9.086,1.486c4.374,0.251 9.38,0.939 13.432,1.771c1.546,-0.373 3.146,-0.627 4.546,-0.58c3.231,0.108 6.939,3.098 8.823,4.829c1.004,0.358 1.985,0.692 2.569,0.872c0.93,0.286 2.071,0.675 2.535,0.866c0.465,0.191 1.702,0.58 2.748,0.866c1.046,0.286 2.452,0.688 3.126,0.893c0.674,0.206 2.06,0.374 3.079,0.374c1.02,0 2.274,0.275 2.789,0.61c0.515,0.336 1.697,0.802 2.626,1.036c2.046,0.515 6.144,1.962 8.452,2.985c0.93,0.412 2.641,1.077 3.804,1.477c1.162,0.401 2.474,0.921 2.917,1.157c5.654,3.017 12.179,6.261 12.604,6.261c0.295,0 1.026,0.257 1.622,0.568c0.691,0.361 3.564,0.662 8.192,0.86c1.774,-0.783 3.742,-1.475 5.47,-1.665c2.404,-0.265 5.303,1.029 7.495,2.303c5.114,0.244 11.009,0.072 14.312,-0.435c1.511,-0.232 5.124,-0.595 8.029,-0.807c1.248,-0.091 2.525,-0.202 3.791,-0.327c1.446,-0.91 3.411,-1.982 5.101,-2.32c1.523,-0.304 3.416,0.283 4.956,0.965c1.401,-0.261 2.474,-0.516 3.056,-0.742c1.729,-0.671 37.803,-1.053 42.067,-0.539c2.81,0.338 5.056,0.328 8.595,-0.041c6.011,-0.626 5.826,-0.363 6.177,-8.811c0.297,-7.158 1.216,-19.016 1.472,-19.016c0.131,0 0.17,-0.971 0.088,-2.158c-0.083,-1.193 0.157,-3.224 0.535,-4.543c1.439,-5.015 2.969,-9.206 3.914,-10.722c0.541,-0.867 0.983,-1.747 0.983,-1.955c0,-0.406 1.437,-3.542 2.255,-4.921c2.611,-4.399 3.541,-4.753 13.291,-5.059c4.996,-0.157 7.984,-0.079 8.87,0.23c1.006,0.35 1.732,0.333 2.934,-0.068c2.15,-0.718 4.222,-0.531 5.303,0.476c0.49,0.456 1.354,0.829 1.921,0.829c0.567,0 2.14,0.564 3.497,1.253c2.649,1.347 8.115,3.293 9.259,5.06c0.875,1.351 2.908,3.241 4.203,3.908c2.092,1.076 4.876,3.684 6.478,6.069c1.201,1.789 4.532,9.822 4.532,10.93c0,0.352 0.459,1.461 1.019,2.464c0.559,1.002 1.21,2.863 1.445,4.135c0.235,1.271 0.808,3.358 1.273,4.637c0.465,1.278 0.977,3.18 1.138,4.226c0.161,1.045 0.433,2.092 0.606,2.324c0.342,0.46 1.135,4.362 1.503,7.395c0.127,1.046 0.399,2.473 0.605,3.17c0.978,3.302 1.428,6.137 1.348,8.498c-0.048,1.419 0.118,3.12 0.368,3.778c0.251,0.658 0.523,2.919 0.606,5.025c0.082,2.106 0.358,5.35 0.612,7.209c0.59,4.313 0.327,17.907 -0.371,19.212c-0.281,0.524 -0.586,3.072 -0.676,5.661c-0.153,4.343 -0.834,8.252 -1.567,8.984c-0.166,0.166 -0.302,1.776 -0.302,3.578c0,1.802 -0.283,4.386 -0.628,5.741c-0.249,0.973 -0.498,2.136 -0.649,2.994l-14.018,3.504c0,0 -4.051,0.044 -11.203,0.119c-3.532,5.982 -8.474,12.956 -12.041,12.361c-3.166,-0.527 -6.874,-6.475 -9.731,-12.136l-1.42,0.014l-4.299,0.043c-3.519,5.917 -8.363,12.664 -11.874,12.079c-3.115,-0.519 -6.756,-6.289 -9.594,-11.867l-5.043,0.048l-0.353,0.004c-3.505,5.851 -8.258,12.392 -11.717,11.815c-3.069,-0.511 -6.647,-6.117 -9.467,-11.617l-2.364,0.022l-6.009,0.055c-3.404,5.474 -7.718,11.047 -10.922,10.513c-2.831,-0.472 -6.095,-5.279 -8.798,-10.339l-6.524,0.056l-0.61,0.005c-3.381,5.398 -7.617,10.804 -10.775,10.278c-2.79,-0.465 -6,-5.139 -8.679,-10.117l-5.096,0.04c-3.522,5.929 -8.384,12.718 -11.905,12.131c-3.134,-0.522 -6.8,-6.358 -9.646,-11.968c-2.251,0.016 -4.496,0.032 -6.731,0.047c-3.548,6.102 -8.701,13.562 -12.385,12.949c-3.29,-0.549 -7.166,-6.952 -10.064,-12.803c-3.28,0.019 -6.522,0.038 -9.718,0.056c-3.422,5.531 -7.795,11.232 -11.034,10.692c-2.879,-0.48 -6.207,-5.443 -8.935,-10.597c-3.736,0.015 -7.373,0.028 -10.893,0.038c-2.988,4.307 -6.328,7.912 -8.933,7.478c-2.281,-0.38 -4.843,-3.574 -7.166,-7.446c-2.249,0.001 -4.425,0.001 -6.521,0c-2.982,4.292 -6.312,7.879 -8.912,7.446c-2.291,-0.382 -4.866,-3.604 -7.198,-7.5c-2.235,-0.016 -4.278,-0.035 -6.111,-0.058c-2.809,3.873 -5.85,6.932 -8.262,6.53c-2.539,-0.423 -5.426,-4.332 -7.944,-8.783c-3.839,-1.906 -8.205,-4.847 -14.124,-7.358c-5.382,-2.283 -11.73,-4.573 -14.802,-5.788c-4.899,-1.939 -12.581,-12.391 -12.581,-12.391c0,0 1.024,13.878 9.104,24.883c4.728,6.439 19.096,16.569 24.113,17.684c6.765,1.504 11.521,4.515 19.046,7.027c2.031,-3.092 4.18,-5.461 6.125,-5.785c2.967,-0.494 6.887,4.25 10.154,9.303c2.859,0.387 5.957,0.735 9.271,1.045c1.916,-2.808 3.918,-4.908 5.741,-5.212c2.349,-0.391 5.296,2.501 8.043,6.231c2.611,0.149 5.308,0.283 8.085,0.402c2.274,-3.737 4.763,-6.776 6.984,-7.146c2.641,-0.44 6.037,3.27 9.056,7.654c5.006,0.11 10.189,0.183 15.516,0.224c2.598,-4.709 5.64,-8.976 8.299,-9.419c2.993,-0.499 6.955,4.333 10.239,9.434c4.203,-0.022 8.466,-0.06 12.775,-0.113c2.8,-5.421 6.318,-10.871 9.343,-11.375c3.303,-0.551 7.786,5.39 11.236,11.022c2.154,-0.047 4.314,-0.096 6.479,-0.148c2.523,-4.467 5.419,-8.396 7.965,-8.82c2.778,-0.463 6.391,3.666 9.522,8.342c3.226,-0.097 6.452,-0.2 9.671,-0.307c2.413,-4.134 5.119,-7.636 7.514,-8.035c2.6,-0.433 5.931,3.155 8.913,7.449c2.161,-0.082 4.314,-0.166 6.46,-0.251c2.696,-5.038 5.946,-9.81 8.766,-10.28c3.002,-0.5 6.979,4.362 10.269,9.481c3.077,-0.137 6.126,-0.275 9.139,-0.414c2.61,-5.161 5.795,-10.134 8.55,-10.614c2.914,-0.509 6.79,4.513 9.963,9.72c3.295,-0.166 6.529,-0.331 9.694,-0.497c2.636,-4.83 5.753,-9.277 8.47,-9.73c2.858,-0.476 6.6,3.907 9.791,8.745c17.505,-0.976 31.779,-1.86 40.92,-2.448c0.714,3.252 0.875,5.321 0.87,10.838c-0.005,5.553 0.168,7.662 0.837,10.354c0.462,1.86 0.84,4.093 0.845,4.965c0.006,0.872 0.176,1.585 0.385,1.585c0.877,0 1.171,5.323 0.801,14.471c-0.246,6.069 -0.287,6.282 -1.562,8.208c-0.721,1.087 -1.31,2.448 -1.31,3.025c0,0.577 -0.57,2.256 -1.268,3.732c-0.697,1.476 -1.267,2.941 -1.267,3.257c0,0.315 -0.618,1.229 -1.374,2.03c-1.585,1.681 -1.672,1.693 -12.531,1.778c-3.697,0.029 -6.652,0.167 -6.566,0.305c0.085,0.138 -3.689,0.389 -8.386,0.558c-9.896,0.356 -14.369,0.594 -16.149,0.859c-0.697,0.103 -5.451,0.222 -10.564,0.262c-10.762,0.084 -20.139,0.687 -25.969,1.67c-1.5,0.253 -3.212,0.43 -3.804,0.392c-0.593,-0.037 -1.172,-0.027 -1.288,0.022c-0.116,0.05 -2.018,0.345 -4.226,0.658c-7.001,0.991 -67.551,2.996 -73.833,2.722c-2.66,-0.116 -5.063,-0.083 -5.34,0.073c-1.084,0.611 -29.918,0.403 -36.617,-0.264c-1.975,-0.196 -67.325,0.895 -166.497,2.342l-0.122,-0.071c-16.704,-9.805 -42.443,-27.815 -61.039,-33.484c-33.398,-10.18 -46.783,-26.225 -82.206,-26.319c-31.36,-0.027 -55.722,-7.146 -55.157,-1.639c0.793,7.72 17.795,10.593 49.526,10.649c34.538,0.061 50.644,15.116 82.669,24.877c30.173,9.197 16.162,17.797 63.247,36.392c1.788,1.614 4.452,2.868 8.861,3.665c14.647,2.647 19.453,12.221 21.414,15.063c0.444,0.644 0.662,1.175 0.686,1.609c0.252,4.64 -21.668,-1.765 -26.723,0.045c-4.285,1.533 -13.078,1.14 -20.776,-0.277c1.269,0.996 2.907,1.971 5.038,2.943c13.542,6.177 15.838,16.64 17.038,19.878c3.176,8.567 -19.796,-5.372 -25.641,-4.818c-6.647,0.631 -26.566,-10.257 -36.088,-17.99c0.73,2.052 2.215,4.291 4.933,6.97c10.599,10.45 9.165,21.065 9.181,24.518c0.043,9.137 -16.75,-11.839 -22.43,-13.325c-4.153,-1.086 -15.257,-9.86 -25.481,-19.235c-2.192,0.466 -4.232,1.626 -6.224,3.992c-7.045,8.364 -19.424,6.943 -23.244,6.874c-10.108,-0.185 5.953,-13.329 5.168,-17.91c-0.212,-1.24 0.336,-3.229 1.415,-5.652c-10.616,-3.093 -22.488,-6.086 -35.698,-6.959c-17.094,-1.128 -26.485,4.162 -51.113,4.607c-17.594,-3.363 -34.715,-7.368 -53.889,-8.074c-34.514,-1.27 -37.802,-22.286 -32.821,-55.393c4.591,-30.513 91.33,-42.77 43.52,-63.374c-17.109,-7.372 -21.826,-1.619 -2.16,10.871c16.35,10.384 -40.167,13.826 -50.923,50.107c-6.743,22.748 -3.84,44.716 9.821,56.878c-11.046,-0.868 -24.272,-1.321 -41.522,-0.997c-2.693,0.051 -5.399,0.081 -8.111,0.092c-2.323,-0.173 -5.222,-0.131 -8.479,-0.025c-2.706,-0.026 -5.414,-0.07 -8.118,-0.13l-6.108,0.057l-10.174,0.092c-6.237,-0.566 -12.146,-1.862 -16.748,-4.563c-15.687,-9.208 -39.858,-26.122 -57.322,-31.445c-31.363,-9.56 -43.933,-24.628 -77.199,-24.716c-29.45,-0.026 -52.329,-6.711 -51.797,-1.54c0.745,7.25 16.711,9.949 46.509,10.001c32.434,0.057 47.559,14.195 77.634,23.362c28.57,8.708 14.957,16.847 60.506,34.611c7.265,2.834 18.972,3.724 29.879,3.465c1.315,1.431 2.284,2.668 2.969,3.434c7.345,8.215 -21.78,3.919 -27.142,7.532c-6.17,4.159 -23.898,5.153 -33.063,2.779c-0.32,0.159 -0.646,0.317 -0.978,0.473c2.393,3.448 5.74,5.949 13.114,6.872c16.432,2.056 23.467,13.502 26.138,16.855c7.066,8.873 -22.369,1.306 -28.008,4.214c-4.852,2.503 -20.334,0.164 -33.251,-3.479c4.25,9.423 3.4,17.65 3.413,20.887c0.045,11.532 -18.071,-14.943 -24.199,-16.817c-3.509,-1.074 -11.618,-8.1 -20.268,-16.78c-5.34,-1.731 -9.322,-4.513 -12.992,-6.393c-1.889,-0.603 -3.825,-1.258 -5.81,-1.945c-2.488,-0.236 -5.094,0.443 -8.151,2.662c-10.527,7.64 -22.646,1.751 -26.532,0.375c-6.656,-2.356 0.072,-7.512 5.918,-12.417c-7.166,-1.88 -14.78,-3.364 -22.856,-3.988c-24.716,-1.909 -34.505,10.731 -88.938,3.707c-19.939,-2.573 -33.943,-6.568 -55.639,-8.855c-18.273,-4.385 -35.943,-8.317 -48.952,-8.796c-32.412,-1.192 -35.5,-20.928 -30.822,-52.019c4.311,-28.655 85.767,-40.165 40.868,-59.514c-16.066,-6.924 -20.496,-1.521 -2.028,10.209c15.355,9.751 -37.72,12.983 -47.821,47.055c-8.435,28.452 -0.798,55.607 25.375,61.433c-22.801,-0.463 -45.58,-3.008 -65.861,-6.258c-103.07,-1.39 -177.067,-4.366 -194.78,-9.783c-2.37,-0.725 -18.371,-6.147 -20.038,-6.147c-0.771,0 -1.885,-0.381 -2.476,-0.846c-0.591,-0.464 -1.38,-0.845 -1.753,-0.845c-0.373,0 -1.009,-0.164 -1.413,-0.364c-3.799,-1.886 -5.494,-2.605 -6.121,-2.6c-0.407,0.005 -0.739,-0.18 -0.739,-0.408c0,-0.228 -0.523,-0.539 -1.163,-0.69c-0.639,-0.151 -1.59,-0.662 -2.112,-1.136c-0.522,-0.474 -1.07,-0.741 -1.217,-0.594c-0.148,0.148 -0.666,-0.01 -1.152,-0.35c-0.486,-0.341 -1.294,-0.619 -1.795,-0.619c-0.501,0 -1.147,-0.286 -1.437,-0.635c-0.289,-0.348 -0.954,-0.633 -1.478,-0.633c-0.524,0 -1.19,-0.286 -1.48,-0.634c-0.289,-0.349 -0.86,-0.634 -1.268,-0.634c-0.407,0 -0.957,-0.261 -1.221,-0.58c-0.265,-0.319 -1.148,-0.687 -1.962,-0.819c-2.378,-0.386 -13.384,-6.032 -14.992,-7.691c-0.786,-0.811 -1.744,-1.474 -2.13,-1.474c-0.385,0 -1.213,-0.476 -1.84,-1.057c-0.627,-0.581 -1.415,-1.056 -1.752,-1.056c-0.337,0 -0.613,-0.265 -0.613,-0.589c0,-0.323 -0.475,-0.706 -1.056,-0.852c-0.581,-0.146 -1.057,-0.453 -1.057,-0.681c0,-0.228 -0.237,-0.418 -0.528,-0.418c-0.485,-0.005 -3.03,-2.031 -7.271,-5.792c-0.92,-0.816 -2.107,-1.768 -2.638,-2.116c-0.531,-0.348 -0.86,-0.802 -0.732,-1.009c0.127,-0.207 0.024,-0.376 -0.229,-0.376c-0.253,0 -1.559,-1.141 -2.903,-2.535c-1.343,-1.395 -2.669,-2.536 -2.945,-2.536c-0.277,0 -0.502,-0.143 -0.502,-0.317c-0.001,-0.174 -0.473,-0.888 -1.049,-1.585c-0.576,-0.697 -1.194,-1.458 -1.373,-1.69c-0.179,-0.233 -1.379,-1.659 -2.666,-3.169c-3.52,-4.131 -5.801,-7.268 -6.495,-8.93c-0.343,-0.82 -0.92,-1.737 -1.282,-2.038c-0.362,-0.3 -0.658,-0.809 -0.658,-1.129c0,-0.32 -0.19,-0.581 -0.423,-0.581c-0.232,0 -0.422,-0.256 -0.422,-0.568c0,-0.312 -0.476,-1.405 -1.057,-2.43c-1.506,-2.658 -2.322,-4.486 -2.322,-5.204c0,-0.343 -0.19,-0.74 -0.422,-0.884c-0.233,-0.144 -0.424,-0.583 -0.429,-0.976c-0.006,-0.393 -0.279,-1.19 -0.612,-1.771c-1.415,-2.47 -3.608,-7.318 -3.608,-7.978c0,-0.734 -1.719,-6.016 -2.613,-8.028c-0.451,-1.016 -0.889,-2.388 -0.973,-3.051c-0.084,-0.662 -0.299,-1.44 -0.477,-1.729c-0.388,-0.627 -0.733,-2.913 -0.77,-5.098c-0.015,-0.871 -0.156,-1.585 -0.314,-1.585c-0.158,0 -0.501,-1.093 -0.763,-2.43c-0.262,-1.336 -0.836,-3.95 -1.276,-5.81c-0.44,-1.859 -0.848,-4.189 -0.905,-5.177c-0.057,-0.988 -0.237,-1.796 -0.399,-1.796c-0.163,0 -0.397,-0.713 -0.522,-1.585c-0.417,-2.914 -0.607,-3.693 -1.306,-5.368c-0.383,-0.916 -0.603,-1.906 -0.49,-2.202c0.114,-0.295 0.053,-0.633 -0.135,-0.749c-0.418,-0.258 -1.524,-10.959 -1.335,-12.916c0.033,-0.348 0.037,-2.06 0.01,-3.803c-0.027,-1.743 -0.05,-3.36 -0.055,-3.592c-0.005,-0.233 0.112,-1.527 0.256,-2.877c0.143,-1.35 0.07,-3.144 -0.163,-3.987c-0.233,-0.843 -0.263,-1.735 -0.067,-1.983c0.196,-0.247 0.276,-0.831 0.177,-1.296c-0.098,-0.464 -0.254,-1.89 -0.346,-3.168c-0.092,-1.279 -0.345,-4.037 -0.561,-6.128c-0.458,-4.427 -0.248,-9.846 0.412,-10.641c0.252,-0.305 0.35,-0.972 0.216,-1.484c-0.134,-0.512 -0.085,-1.132 0.108,-1.376c0.194,-0.245 0.567,-2.442 0.83,-4.883c0.573,-5.324 0.539,-5.141 1.49,-7.95c0.418,-1.236 0.675,-2.331 0.572,-2.434c-0.103,-0.103 0.081,-1.469 0.41,-3.036c0.328,-1.567 0.752,-3.895 0.942,-5.173c0.313,-2.107 1.083,-5.261 2.735,-11.199c0.614,-2.207 2.088,-5.721 2.626,-6.259c0.172,-0.172 0.372,-0.698 0.443,-1.169c0.072,-0.47 0.752,-1.843 1.51,-3.052c0.759,-1.208 1.939,-3.338 2.622,-4.733c0.684,-1.394 1.369,-2.631 1.522,-2.747c0.153,-0.116 0.412,-0.687 0.576,-1.268c0.163,-0.581 1.306,-3.148 2.539,-5.704c5.634,-11.678 6.896,-14.132 8.045,-15.637c4.067,-5.327 5.828,-7.426 6.547,-7.811c0.471,-0.252 0.856,-0.709 0.856,-1.013c0,-0.305 0.808,-1.297 1.796,-2.204c0.988,-0.907 2.109,-2.125 2.491,-2.706c0.382,-0.581 1.247,-1.627 1.922,-2.324c0.675,-0.698 2.093,-2.42 3.15,-3.829c2.309,-3.076 3.103,-4.047 4.904,-5.999c0.755,-0.819 1.373,-1.851 1.373,-2.294c0,-0.456 0.248,-0.751 0.573,-0.68c0.475,0.103 3.376,-2.258 7.509,-6.109c0.436,-0.407 0.955,-0.739 1.152,-0.739c0.198,0 0.925,-0.523 1.615,-1.163c2.161,-2.002 3.512,-3.063 3.9,-3.063c0.206,0 0.484,-0.286 0.618,-0.635c0.133,-0.348 0.534,-0.633 0.89,-0.633c0.356,0 0.647,-0.162 0.647,-0.36c0,-0.198 1.066,-1.196 2.369,-2.218c1.303,-1.023 2.621,-2.097 2.928,-2.388c0.308,-0.29 0.694,-0.527 0.858,-0.527c0.164,0 0.739,-0.476 1.277,-1.057c0.539,-0.582 1.148,-1.056 1.353,-1.056c0.206,0 1.155,-0.809 2.109,-1.797c0.954,-0.988 2.642,-2.461 3.751,-3.275c1.868,-1.369 5.366,-4.251 6.942,-5.716c0.368,-0.343 0.806,-0.623 0.974,-0.623c0.167,0 0.913,-0.57 1.656,-1.266c0.742,-0.696 1.496,-1.268 1.675,-1.268c0.179,0 1.13,-0.518 2.113,-1.15c0.983,-0.631 2.453,-1.507 3.266,-1.946c0.814,-0.439 1.923,-1.206 2.465,-1.705c0.541,-0.498 1.016,-0.837 1.056,-0.754c0.094,0.198 4.232,-1.755 4.518,-2.133c0.121,-0.16 0.691,-0.488 1.268,-0.731c1.223,-0.516 2.968,-1.594 8.231,-5.084c0.93,-0.616 2.498,-1.473 3.486,-1.903c0.988,-0.43 1.797,-0.943 1.797,-1.14c0,-0.198 0.285,-0.359 0.633,-0.359c0.349,0 0.634,-0.159 0.634,-0.353c0,-0.194 1.7,-1.36 3.777,-2.59c5.13,-3.037 5.636,-3.324 6.366,-3.622c0.349,-0.142 0.919,-0.44 1.268,-0.662c0.348,-0.223 0.966,-0.516 1.373,-0.652c0.407,-0.137 0.74,-0.407 0.74,-0.6c0,-0.194 1.282,-0.954 2.851,-1.689c1.569,-0.734 5.135,-2.425 7.924,-3.757c2.789,-1.332 5.737,-2.679 6.551,-2.994c0.813,-0.314 1.574,-0.68 1.69,-0.814c0.116,-0.135 2.873,-1.558 6.127,-3.162c3.254,-1.605 7.257,-3.693 8.895,-4.64c1.638,-0.947 3.636,-2.04 4.438,-2.428c0.802,-0.389 3.424,-1.673 5.828,-2.853c2.403,-1.18 4.537,-2.146 4.742,-2.146c0.204,0 1.411,-0.475 2.682,-1.056c1.27,-0.581 2.57,-1.057 2.889,-1.057c0.319,0 0.949,-0.28 1.4,-0.621c0.451,-0.341 1.237,-0.626 1.747,-0.633c0.509,-0.008 1.051,-0.218 1.205,-0.466c0.153,-0.248 0.531,-0.354 0.839,-0.236c0.308,0.119 0.785,-0.057 1.061,-0.389c0.276,-0.332 0.657,-0.507 0.847,-0.39c0.19,0.117 0.458,0.032 0.595,-0.19c0.137,-0.221 0.578,-0.379 0.98,-0.352c0.402,0.028 1.999,-0.46 3.55,-1.084c1.55,-0.623 3.12,-1.133 3.487,-1.133c0.367,0 0.666,-0.201 0.666,-0.448c0,-0.246 0.191,-0.33 0.423,-0.186c0.232,0.143 0.423,-0.037 0.423,-0.403c0,-0.504 0.301,-0.612 1.241,-0.447c0.683,0.121 1.363,0.026 1.509,-0.211c0.147,-0.238 0.431,-0.33 0.632,-0.206c0.201,0.124 1.567,-0.311 3.035,-0.967c1.468,-0.657 3.714,-1.435 4.992,-1.728c1.279,-0.294 2.706,-0.705 3.17,-0.914c1.024,-0.461 7.564,-2.239 10.776,-2.929c1.278,-0.275 2.895,-0.665 3.592,-0.866c2.581,-0.744 9.165,-2.187 12.559,-2.752c1.925,-0.32 4.831,-0.875 6.458,-1.232c1.627,-0.357 4.575,-0.836 6.55,-1.064c1.976,-0.229 4.068,-0.492 4.649,-0.586c0.581,-0.093 2.863,-0.295 5.071,-0.448c2.208,-0.154 4.585,-0.371 5.282,-0.482c0.697,-0.112 2.885,-0.286 4.86,-0.386c1.976,-0.101 5.209,-0.335 7.184,-0.521c1.817,-0.171 7.848,-0.256 14.398,-0.251l0.001,0c6.55,0.004 13.618,0.095 17.508,0.27c7.815,0.351 13.386,1.102 27.679,3.734c12.499,2.302 27.589,4.314 35.498,4.735c2.087,0.111 4.637,0.559 6.087,1.07c1.373,0.483 3.189,0.879 4.036,0.879c0.847,0 1.72,0.172 1.941,0.382c0.221,0.21 1.258,0.471 2.304,0.579c2.007,0.209 9.603,1.559 14.579,2.591c4.216,0.875 9.207,1.719 9.826,1.662c0.29,-0.026 0.528,0.14 0.528,0.372c0,0.231 0.284,0.312 0.633,0.178c0.349,-0.134 0.634,-0.043 0.634,0.202c0,0.244 0.238,0.359 0.528,0.255c0.291,-0.103 1.052,0.076 1.691,0.399c0.815,0.412 1.162,0.442 1.162,0.101c0,-0.353 0.167,-0.347 0.616,0.025c0.338,0.281 0.813,0.389 1.056,0.239c0.242,-0.15 0.441,-0.096 0.441,0.119c0,0.215 0.904,0.593 2.008,0.839c1.104,0.246 2.761,0.641 3.683,0.877c1.164,0.299 1.841,0.292 2.218,-0.021c0.404,-0.335 0.543,-0.277 0.543,0.227c0,0.397 0.481,0.781 1.162,0.927c0.639,0.136 1.599,0.425 2.133,0.641c0.534,0.217 1.439,0.394 2.013,0.394c0.573,0 1.372,0.185 1.776,0.411c0.679,0.38 9.95,2.782 12.355,3.201c2.024,0.353 10.358,2.331 10.987,2.609c0.349,0.153 1.205,0.327 1.902,0.387c2.587,0.219 7.242,1.063 9.085,1.646c1.046,0.331 2.586,0.671 3.422,0.757c0.835,0.085 1.739,0.29 2.008,0.457c0.27,0.166 1.392,0.477 2.495,0.689c1.104,0.213 3.718,0.795 5.81,1.292c2.092,0.498 4.659,0.987 5.705,1.088c1.045,0.102 2.282,0.348 2.747,0.549c1.343,0.581 7.163,1.344 7.949,1.043c0.393,-0.151 1.047,-0.135 1.453,0.036c0.407,0.171 2.071,0.378 3.698,0.461c5.477,0.279 8.44,0.546 10.777,0.972c1.278,0.232 2.799,0.409 3.38,0.391c0.581,-0.018 3.148,-0.006 5.705,0.031c2.556,0.036 5.124,-0.059 5.705,-0.21c1.094,-0.285 1.496,-0.329 7.303,-0.784c5.941,-0.466 11.43,-1.106 13.192,-1.539c2.2,-0.541 4.433,-0.719 15.637,-1.245c14.098,-0.662 15.344,-0.827 17.261,-2.29c1.252,-0.955 2.188,-1.281 4.067,-1.417c1.517,-0.11 2.55,-0.001 2.73,0.292c0.16,0.258 0.838,0.47 1.508,0.47c0.67,0 1.32,0.166 1.445,0.368c0.125,0.202 0.755,0.478 1.399,0.612c0.644,0.135 1.694,0.737 2.334,1.339c1.402,1.322 1.499,2.872 0.338,5.398c-0.909,1.976 -1.888,6.85 -1.553,7.723c0.117,0.306 -0.061,0.784 -0.395,1.061c-0.335,0.278 -0.61,1.06 -0.61,1.737c0,0.677 -0.312,1.708 -0.694,2.291c-0.604,0.922 -0.965,1.047 -2.779,0.964c-1.147,-0.052 -2.214,0.103 -2.37,0.346c-0.156,0.242 -0.884,0.748 -1.617,1.123c-0.734,0.376 -1.612,0.961 -1.95,1.299c-0.824,0.824 -12.769,7.273 -16.455,8.884c-0.862,0.377 -1.681,0.87 -1.821,1.096c-0.14,0.226 -0.814,0.412 -1.497,0.412c-0.684,0 -1.243,0.153 -1.243,0.341c0,0.733 -7.785,3.388 -9.049,3.086c-0.212,-0.051 -0.929,0.132 -1.593,0.408c-0.664,0.275 -2.868,0.542 -4.897,0.594c-2.029,0.052 -4.26,0.213 -4.957,0.358c-3.053,0.636 -6.524,0.789 -15.636,0.689c-10.085,-0.112 -18.285,-0.106 -19.016,0.014c-0.451,0.074 -8.727,0.121 -11.2,0.064c-0.813,-0.019 -2.22,-0.415 -3.126,-0.88c-0.906,-0.464 -1.842,-0.724 -2.081,-0.576c-0.24,0.148 -2.636,0.223 -5.326,0.167c-4.107,-0.086 -5.027,-0.229 -5.74,-0.894c-0.565,-0.528 -1.695,-0.857 -3.381,-0.985c-11.687,-0.888 -14.002,-1.191 -15.631,-2.047c-0.93,-0.489 -2.357,-0.953 -3.17,-1.032c-0.814,-0.079 -2.429,-0.234 -3.592,-0.344c-1.162,-0.111 -3.43,-0.389 -5.04,-0.618c-1.61,-0.229 -3.116,-0.299 -3.347,-0.157c-0.235,0.146 -0.316,-0.011 -0.183,-0.358c0.181,-0.471 -0.126,-0.615 -1.301,-0.61c-0.846,0.005 -2.204,-0.119 -3.018,-0.271c-2.129,-0.398 -6.279,-0.531 -6.598,-0.213c-0.149,0.149 -0.769,0.019 -1.379,-0.29c-1.043,-0.529 -2.488,-0.646 -10.16,-0.818c-1.965,-0.045 -3.197,-0.255 -3.3,-0.566c-0.105,-0.314 -0.693,-0.41 -1.608,-0.262c-0.91,0.148 -1.989,-0.024 -2.921,-0.466c-1.387,-0.658 -6.664,-1.18 -11.113,-1.097c-0.986,0.018 -2.168,-0.167 -2.627,-0.413c-1.114,-0.597 -17.766,-1.04 -17.766,-0.474c0,0.232 0.475,0.934 1.056,1.561c0.581,0.627 1.057,1.462 1.057,1.856c0,0.393 -0.476,0.933 -1.057,1.197c-0.581,0.265 -1.056,0.654 -1.056,0.865c0,0.211 -0.619,0.476 -1.374,0.59c-1.692,0.254 -5.383,-1.481 -5.696,-2.678c-0.117,-0.447 -0.343,-0.813 -0.502,-0.813c-0.159,0 -1.169,-0.855 -2.245,-1.9c-1.422,-1.383 -2.165,-1.823 -2.725,-1.616c-1.176,0.435 -1.39,0.987 -1.397,3.602c-0.007,2.309 -0.065,2.435 -1.381,3.023c-0.755,0.338 -2.267,0.722 -3.361,0.855c-1.969,0.238 -2.016,0.215 -4.438,-2.195c-1.347,-1.339 -2.924,-3.139 -3.505,-4c-0.777,-1.153 -1.356,-1.57 -2.19,-1.57c-1.603,-0.005 -1.975,1.412 -0.793,3.011c1.121,1.517 0.858,4.17 -0.414,4.17c-0.423,0 -1.073,0.306 -1.447,0.68c-0.639,0.639 -1.567,0.655 -4.149,0.072c-1.385,-0.313 -4.936,-2.645 -4.944,-3.247c-0.005,-0.326 -0.493,-1.23 -1.086,-2.007c-0.912,-1.195 -1.344,-1.414 -2.8,-1.414c-1.653,0 -1.712,0.047 -1.488,1.162c0.129,0.64 0.468,1.733 0.755,2.431c0.286,0.697 0.464,1.458 0.393,1.69c-0.071,0.232 -0.107,0.81 -0.08,1.283c0.076,1.366 -3.135,2.932 -5.248,2.56c-2.618,-0.462 -5.092,-1.948 -5.835,-3.506c-0.365,-0.767 -0.839,-1.394 -1.052,-1.394c-0.214,0 -0.587,-0.571 -0.83,-1.268c-0.371,-1.064 -0.666,-1.264 -1.837,-1.264c-1.734,0.005 -10.883,1.526 -11.226,1.868c-0.138,0.138 0.162,0.988 0.668,1.888c1.16,2.064 1.067,3.813 -0.23,4.306c-0.529,0.201 -0.961,0.545 -0.961,0.765c0,0.554 -2.447,1.098 -4.214,0.936c-1.169,-0.107 -1.993,-0.684 -4.053,-2.837c-2.818,-2.946 -4.275,-3.533 -3.824,-1.541c0.822,3.624 0.809,3.797 -0.408,5.392c-1.115,1.463 -1.29,1.54 -2.901,1.282c-0.943,-0.15 -1.896,-0.453 -2.116,-0.674c-0.221,-0.22 -0.697,-0.403 -1.057,-0.403c-0.361,0 -1.114,-0.677 -1.674,-1.5c-1.99,-2.921 -4.541,-3.735 -7.216,-2.304c-0.504,0.27 -1.191,0.385 -1.527,0.256c-0.336,-0.129 -0.987,0.142 -1.446,0.602c-0.453,0.453 -0.919,0.824 -1.048,0.835l-0.46,0Zm1173.72,140.795c0.367,5.762 -3.885,-2.449 -2.948,-6.458c0.425,-1.821 0.579,-6.818 1.952,-8.44c2.126,-2.511 7.079,-1.27 5.321,-0.339c-1.242,0.657 -2.206,1.688 -2.653,3.454c-0.759,2.996 -1.882,8.496 -1.672,11.783Zm-282.987,-19.328c4.51,0.217 7.951,3.916 11.942,6.448c1.974,1.304 2.326,1.675 3.306,2.653c2.323,2.319 4.127,5.3 4.494,8.544c0.163,1.443 -1.172,2.46 -2.849,-0.027c-2.454,-3.571 -5.796,-6.335 -9.458,-9.051c-1.734,-1.258 -3.696,-2.394 -5.846,-2.448c0,0 0.75,1.664 0.937,2.91c0.543,3.605 -0.96,7.257 -3.346,9.961c0,0 -2.748,1.606 -1.779,-2.22c0.76,-3.13 0.895,-6.519 -0.626,-9.279c0,0 -4.351,1.164 -7.409,2.469c-5.092,2.173 -8.912,6.341 -13.056,10.125c-1.022,0.899 -4.317,2.045 -2.352,-2.315c3.505,-7.776 11.107,-12.653 19.188,-15.942c0,0 3.832,-1.873 6.854,-1.828Zm-633.479,-20.671c-0.043,-0.005 -0.089,0.005 -0.137,0.035c-0.194,0.12 -0.353,0.397 -0.353,0.616c0,0.219 0.159,0.397 0.353,0.397c0.194,0 0.351,-0.277 0.351,-0.615c0,-0.254 -0.088,-0.418 -0.214,-0.433l0,0Z"/><path d="M1717.55,1329.25c-134.796,243.894 -394.643,409.213 -692.797,409.213c-298.155,0 -558.002,-165.319 -692.798,-409.213l1385.6,0Zm-693.797,77.975l44.738,78.423l88.409,18.315l-60.759,66.782l9.901,89.743l-82.289,-37.15l-82.29,37.15l9.902,-89.743l-60.76,-66.782l88.409,-18.315l44.739,-78.423Zm324,0l25.245,44.253l49.888,10.335l-34.286,37.684l5.588,50.641l-46.435,-20.963l-46.435,20.963l5.587,-50.641l-34.286,-37.684l49.888,-10.335l25.246,-44.253Zm-648,0l25.245,44.253l49.888,10.335l-34.286,37.684l5.588,50.641l-46.435,-20.963l-46.435,20.963l5.587,-50.641l-34.286,-37.684l49.888,-10.335l25.246,-44.253Z"/><path d="M1023.75,200.222l44.738,78.423l88.409,18.315l-60.759,66.782l9.901,89.743l-82.289,-37.15l-82.29,37.15l9.902,-89.743l-60.76,-66.782l88.409,-18.315l44.739,-78.423Z"/><path d="M1347.75,298.572l25.245,44.253l49.888,10.335l-34.286,37.684l5.588,50.641l-46.435,-20.963l-46.435,20.963l5.587,-50.641l-34.286,-37.684l49.888,-10.335l25.246,-44.253Z"/><path d="M699.75,298.572l25.245,44.253l49.888,10.335l-34.286,37.684l5.588,50.641l-46.435,-20.963l-46.435,20.963l5.587,-50.641l-34.286,-37.684l49.888,-10.335l25.246,-44.253Z"/></svg>